<svg xmlns="http://www.w3.org/2000/svg" xmlns:xlink="http://www.w3.org/1999/xlink" width="500" zoomAndPan="magnify" viewBox="0 0 375 374.999991" height="500" preserveAspectRatio="xMidYMid meet" version="1.0"><defs><clipPath id="5e1cae6713"><path d="M 179 34.539062 L 186 34.539062 L 186 238 L 179 238 Z M 179 34.539062 " clip-rule="nonzero"/></clipPath><clipPath id="7720153e51"><path d="M 37.5 235 L 83 235 L 83 314 L 37.5 314 Z M 37.5 235 " clip-rule="nonzero"/></clipPath><clipPath id="4bcc638c2d"><path d="M 126 84 L 317 84 L 317 337.539062 L 126 337.539062 Z M 126 84 " clip-rule="nonzero"/></clipPath></defs><g clip-path="url(#5e1cae6713)"><path fill="#9fcbec" d="M 185.757812 237.109375 L 179.878906 237.109375 L 179.878906 34.507812 L 185.757812 34.507812 L 185.757812 237.109375 " fill-opacity="1" fill-rule="nonzero"/></g><g clip-path="url(#7720153e51)"><path fill="#171717" d="M 82.203125 248.335938 C 81.511719 246.929688 80.382812 245.792969 79.175781 244.820312 C 77.808594 243.730469 76.3125 242.78125 74.835938 241.855469 C 71.707031 239.898438 68.441406 238.160156 65.066406 236.671875 C 64.234375 236.308594 63.394531 235.957031 62.554688 235.621094 C 62.535156 235.617188 62.523438 235.613281 62.503906 235.609375 C 62.367188 235.492188 62.179688 235.4375 61.984375 235.441406 C 58.34375 235.492188 54.726562 236.046875 51.230469 237.066406 C 49.460938 237.582031 47.726562 238.21875 46.046875 238.976562 C 44.519531 239.660156 42.992188 240.417969 41.601562 241.359375 C 40.339844 242.21875 39.179688 243.285156 38.449219 244.640625 C 37.722656 245.992188 37.628906 247.582031 38.160156 249.015625 C 38.910156 251.039062 40.511719 252.332031 42.351562 253.269531 C 42.527344 258.699219 42.703125 264.128906 42.882812 269.554688 C 43.085938 275.867188 43.292969 282.175781 43.5 288.488281 C 43.609375 291.878906 43.722656 295.273438 43.832031 298.667969 C 42.710938 298.875 41.660156 299.550781 40.996094 300.550781 C 39.789062 302.367188 39.644531 304.894531 40.441406 306.902344 C 41.246094 308.929688 43.367188 310.558594 45.632812 310.082031 C 47.757812 309.632812 49.175781 307.628906 49.398438 305.542969 C 49.546875 304.183594 49.277344 302.800781 48.792969 301.527344 C 48.347656 300.351562 47.570312 299.203125 46.246094 299 C 45.902344 298.828125 45.546875 298.710938 45.183594 298.652344 C 44.980469 292.445312 44.777344 286.242188 44.578125 280.035156 C 44.371094 273.726562 44.164062 267.414062 43.957031 261.101562 C 43.878906 258.699219 43.800781 256.300781 43.722656 253.898438 C 44.539062 254.234375 45.367188 254.523438 46.167969 254.796875 C 52.714844 257.003906 59.613281 258.414062 66.542969 258.277344 C 66.703125 263.15625 66.863281 268.03125 67.023438 272.910156 C 67.226562 279.222656 67.433594 285.535156 67.640625 291.84375 C 67.75 295.238281 67.863281 298.628906 67.96875 302.019531 C 66.84375 302.226562 65.796875 302.90625 65.132812 303.90625 C 63.929688 305.722656 63.78125 308.25 64.582031 310.257812 C 65.382812 312.285156 67.507812 313.914062 69.769531 313.4375 C 71.898438 312.988281 73.316406 310.984375 73.539062 308.898438 C 73.683594 307.539062 73.417969 306.15625 72.933594 304.886719 C 72.488281 303.707031 71.710938 302.558594 70.386719 302.355469 C 70.042969 302.179688 69.683594 302.066406 69.324219 302.007812 C 69.117188 295.800781 68.917969 289.59375 68.714844 283.390625 C 68.507812 277.078125 68.300781 270.769531 68.097656 264.457031 C 68.03125 262.382812 67.960938 260.304688 67.890625 258.234375 C 67.953125 258.226562 68.019531 258.226562 68.082031 258.226562 C 69.949219 258.125 71.816406 257.90625 73.652344 257.550781 C 75.417969 257.214844 77.25 256.824219 78.871094 256.023438 C 80.332031 255.300781 81.621094 254.214844 82.308594 252.710938 C 82.945312 251.316406 82.875 249.703125 82.203125 248.335938 " fill-opacity="1" fill-rule="nonzero"/></g><path fill="#4e5492" d="M 142.464844 257.511719 C 142.449219 257.21875 142.289062 257.042969 142.085938 256.96875 C 140.199219 251.492188 137.554688 246.3125 134.550781 241.371094 C 132.964844 238.761719 131.28125 236.21875 129.542969 233.707031 C 127.921875 231.363281 126.3125 228.980469 124.4375 226.820312 C 122.460938 224.542969 120.113281 222.511719 117.210938 221.527344 C 116.84375 221.402344 116.53125 221.585938 116.378906 221.855469 C 112.648438 222.492188 108.878906 222.804688 105.101562 223.035156 C 101.152344 223.277344 97.195312 223.46875 93.246094 223.683594 C 85.273438 224.113281 77.300781 224.542969 69.332031 224.972656 C 64.828125 225.214844 60.324219 225.457031 55.824219 225.703125 C 55.804688 225.703125 55.785156 225.703125 55.765625 225.707031 C 55.71875 225.417969 55.679688 225.128906 55.644531 224.839844 C 55.539062 223.972656 54.191406 224.128906 54.296875 224.996094 C 54.820312 229.222656 56.183594 233.292969 57.957031 237.144531 C 59.695312 240.917969 61.765625 244.566406 64.0625 248.03125 C 68.515625 254.738281 74.136719 260.808594 81.121094 264.917969 C 83.910156 266.5625 86.871094 267.882812 89.96875 268.800781 C 86.734375 274.066406 84.574219 279.894531 83.03125 285.875 C 82.183594 289.179688 81.515625 292.527344 80.945312 295.890625 C 80.375 299.242188 79.847656 302.613281 79.425781 305.984375 C 79.222656 307.578125 79.210938 309.648438 80.730469 310.636719 C 81.648438 311.230469 82.863281 311.335938 83.714844 310.753906 C 83.953125 310.828125 84.234375 310.789062 84.445312 310.554688 C 88.371094 306.210938 92.117188 301.707031 95.667969 297.054688 C 99.191406 292.441406 102.5625 287.6875 105.664062 282.777344 C 108.636719 278.082031 111.320312 273.050781 112.269531 267.519531 C 113.117188 262.582031 112.425781 257.523438 110.871094 252.789062 C 113.355469 255.582031 116.230469 258.027344 119.421875 260.003906 C 120.253906 260.523438 121.109375 261.011719 121.976562 261.464844 C 119.609375 266.386719 117.789062 271.558594 116.527344 276.875 C 115.105469 282.886719 114.421875 289.066406 114.480469 295.246094 C 114.515625 298.566406 114.769531 301.878906 115.246094 305.164062 C 114.847656 305.34375 114.609375 305.960938 115.046875 306.355469 C 116.351562 307.523438 117.910156 308.339844 119.59375 308.78125 C 119.695312 309.351562 120.609375 309.601562 120.890625 308.929688 C 123.796875 302.074219 127.859375 295.8125 131.679688 289.449219 C 135.441406 283.1875 139.011719 276.71875 140.976562 269.644531 C 142.078125 265.691406 142.65625 261.617188 142.464844 257.511719 " fill-opacity="1" fill-rule="nonzero"/><g clip-path="url(#4bcc638c2d)"><path fill="#171717" d="M 316.644531 95.449219 C 316.230469 93.160156 315.371094 90.921875 313.816406 89.15625 C 312.425781 87.574219 310.613281 86.445312 308.632812 85.742188 C 304.339844 84.222656 299.65625 84.449219 295.179688 84.636719 C 289.109375 84.890625 283.03125 85.140625 276.960938 85.394531 C 264.816406 85.898438 252.667969 86.40625 240.523438 86.910156 C 235.859375 87.105469 230.855469 87.257812 226.644531 89.515625 C 224.640625 90.589844 222.929688 92.113281 221.695312 94.03125 C 220.433594 95.992188 219.65625 98.195312 219.105469 100.445312 C 218.511719 102.878906 218.195312 105.367188 217.84375 107.84375 C 217.417969 110.859375 216.992188 113.871094 216.566406 116.886719 L 214.011719 134.976562 C 212.679688 144.417969 211.347656 153.859375 210.011719 163.296875 C 204.546875 164.746094 199.082031 166.21875 193.632812 167.734375 C 187.046875 169.554688 180.480469 171.429688 173.929688 173.363281 C 167.351562 175.304688 160.792969 177.308594 154.253906 179.386719 C 147.8125 181.433594 141.351562 183.484375 134.988281 185.769531 C 132.257812 186.75 129.476562 188.042969 127.714844 190.441406 C 126.132812 192.601562 125.621094 195.429688 126.941406 197.84375 C 128.167969 200.097656 130.476562 201.609375 132.941406 202.195312 C 136.164062 202.964844 139.523438 202.253906 142.679688 201.527344 C 149.097656 200.054688 155.507812 198.535156 161.890625 196.933594 C 168.25 195.332031 174.585938 193.652344 180.875 191.816406 C 187.160156 189.984375 193.398438 188.007812 199.566406 185.820312 C 202.136719 184.914062 204.691406 183.96875 207.234375 182.980469 L 203.796875 207.34375 L 202.589844 215.855469 C 197.78125 219.023438 192.964844 222.183594 188.152344 225.351562 C 184.777344 227.574219 181.332031 229.71875 178.042969 232.070312 C 175.117188 234.164062 172.332031 236.59375 170.515625 239.742188 C 168.800781 242.722656 167.972656 246.277344 168.898438 249.652344 C 169.449219 251.636719 170.582031 253.394531 172.019531 254.863281 C 172.140625 259.128906 172.21875 263.394531 172.257812 267.660156 C 172.328125 275.996094 172.242188 284.332031 172 292.667969 C 171.871094 297.015625 171.703125 301.355469 171.492188 305.695312 C 171.023438 305.886719 170.597656 306.199219 170.277344 306.609375 C 169.710938 306.882812 169.214844 307.296875 168.875 307.824219 C 168.34375 308.648438 168.214844 309.640625 168.414062 310.566406 C 168.066406 311.226562 168.039062 312.023438 168.378906 312.75 C 168.472656 312.949219 168.589844 313.128906 168.730469 313.292969 C 168.929688 313.660156 169.183594 313.996094 169.492188 314.273438 C 170.773438 315.449219 172.769531 315.324219 174.175781 314.460938 C 176.925781 312.777344 177.5625 307.492188 174.429688 305.835938 C 174.039062 305.628906 173.601562 305.519531 173.15625 305.5 C 173.535156 297.597656 173.777344 289.6875 173.875 281.777344 C 173.980469 273.410156 173.933594 265.039062 173.726562 256.675781 C 173.722656 256.570312 173.722656 256.460938 173.71875 256.355469 C 174.066406 256.617188 174.421875 256.871094 174.785156 257.105469 C 177.980469 259.179688 181.710938 260.152344 185.390625 260.984375 C 189.386719 261.890625 193.378906 262.796875 197.347656 263.804688 C 205.378906 265.84375 213.34375 268.171875 221.210938 270.777344 C 225.113281 272.070312 228.976562 273.460938 232.847656 274.847656 C 236.683594 276.21875 240.601562 277.53125 244.664062 278.042969 C 248.390625 278.511719 252.175781 278.21875 255.683594 276.832031 C 256.015625 276.703125 256.34375 276.5625 256.664062 276.417969 C 256.707031 278.757812 256.738281 281.097656 256.757812 283.445312 C 256.839844 292.875 256.742188 302.308594 256.46875 311.738281 C 256.324219 316.652344 256.132812 321.566406 255.894531 326.480469 C 255.367188 326.695312 254.882812 327.050781 254.515625 327.511719 C 253.875 327.820312 253.316406 328.292969 252.929688 328.886719 C 252.328125 329.820312 252.183594 330.9375 252.410156 331.988281 C 252.015625 332.738281 251.988281 333.636719 252.371094 334.453125 C 252.480469 334.683594 252.613281 334.886719 252.769531 335.070312 C 252.992188 335.488281 253.28125 335.867188 253.628906 336.183594 C 255.082031 337.511719 257.339844 337.371094 258.929688 336.394531 C 262.042969 334.488281 262.761719 328.511719 259.21875 326.636719 C 258.773438 326.402344 258.277344 326.277344 257.777344 326.253906 C 258.207031 317.316406 258.480469 308.367188 258.589844 299.414062 C 258.691406 291.4375 258.667969 283.457031 258.519531 275.480469 C 260.554688 274.34375 262.433594 272.929688 264.183594 271.394531 C 266.839844 269.070312 269.230469 266.46875 271.625 263.886719 C 274.519531 260.773438 277.417969 257.660156 280.3125 254.542969 L 288.996094 245.203125 C 291.652344 242.34375 294.386719 239.53125 296.78125 236.445312 C 298.140625 234.691406 299.386719 232.789062 300.394531 230.777344 C 300.753906 239.3125 300.972656 247.847656 301.046875 256.386719 C 301.125 265.820312 301.03125 275.253906 300.757812 284.679688 C 300.613281 289.597656 300.421875 294.511719 300.183594 299.421875 C 299.652344 299.640625 299.171875 299.992188 298.808594 300.457031 C 298.167969 300.765625 297.609375 301.234375 297.222656 301.832031 C 296.621094 302.761719 296.476562 303.882812 296.699219 304.933594 C 296.304688 305.679688 296.273438 306.582031 296.660156 307.402344 C 296.765625 307.628906 296.90625 307.835938 297.0625 308.015625 C 297.28125 308.433594 297.574219 308.8125 297.917969 309.128906 C 299.371094 310.457031 301.628906 310.316406 303.222656 309.339844 C 306.335938 307.433594 307.050781 301.453125 303.507812 299.582031 C 303.0625 299.347656 302.566406 299.222656 302.070312 299.203125 C 302.496094 290.257812 302.769531 281.308594 302.882812 272.359375 C 303 262.890625 302.945312 253.425781 302.710938 243.957031 C 302.578125 238.601562 302.390625 233.242188 302.144531 227.890625 C 302.132812 227.605469 302.015625 227.398438 301.847656 227.269531 C 302.808594 224.34375 303.171875 221.261719 302.589844 218.15625 C 302.917969 217.820312 302.894531 217.171875 302.398438 217.035156 C 304.757812 205.648438 306.851562 194.207031 308.675781 182.726562 C 310.542969 170.921875 312.132812 159.074219 313.429688 147.199219 C 314.726562 135.316406 315.734375 123.40625 316.453125 111.480469 C 316.632812 108.554688 316.804688 105.628906 316.929688 102.703125 C 317.035156 100.289062 317.070312 97.839844 316.644531 95.449219 " fill-opacity="1" fill-rule="nonzero"/></g><path fill="#eb7f8a" d="M 289.753906 105.371094 C 288.894531 103.726562 287.167969 103.097656 285.394531 103.113281 C 283.316406 103.128906 281.429688 104.101562 279.382812 104.335938 C 277.527344 104.546875 275.9375 103.777344 274.828125 102.296875 C 273.636719 100.707031 273.292969 98.722656 273.257812 96.773438 C 273.246094 96.207031 273.265625 95.636719 273.292969 95.070312 C 273.957031 94.1875 274.492188 93.203125 274.882812 92.167969 C 275.902344 89.453125 275.953125 86.4375 275.402344 83.609375 C 274.898438 81.035156 273.890625 78.476562 272.125 76.496094 C 268.125 72.023438 261.761719 71.894531 256.234375 72.566406 C 255.445312 72.664062 254.65625 72.769531 253.871094 72.878906 C 253.75 72.894531 253.648438 72.933594 253.566406 72.992188 C 253.320312 72.984375 253.070312 73.09375 252.925781 73.375 C 250.394531 78.390625 249.734375 84.304688 251.097656 89.757812 C 251.710938 92.214844 252.71875 94.683594 254.519531 96.523438 C 256.503906 98.542969 259.175781 99.253906 261.9375 99.332031 C 262.40625 99.347656 262.878906 99.351562 263.347656 99.347656 C 263.351562 99.355469 263.351562 99.367188 263.351562 99.375 C 264.210938 102.890625 261.652344 106.226562 258.535156 107.570312 C 256.644531 108.378906 253.800781 109.277344 251.757812 109.265625 C 250.75 109.261719 249.742188 109.175781 248.734375 109.070312 C 247.84375 108.980469 246.914062 108.890625 246.027344 109.066406 C 241.757812 109.910156 243.96875 114.722656 245.324219 117.445312 C 246.894531 120.589844 249.503906 123.117188 252.59375 124.753906 C 260.070312 128.710938 269.144531 126.699219 276.121094 122.675781 C 279.667969 120.628906 282.933594 118.046875 285.914062 115.25 C 287.335938 113.917969 288.675781 112.457031 289.511719 110.675781 C 290.265625 109.0625 290.621094 107.011719 289.753906 105.371094 " fill-opacity="1" fill-rule="nonzero"/><path fill="#f4733c" d="M 284.328125 78.105469 C 283.742188 76.015625 282.757812 74.066406 281.769531 72.144531 C 280.886719 70.425781 279.957031 68.542969 278.3125 67.421875 C 277.011719 66.535156 275.1875 66.175781 273.738281 66.828125 C 270.671875 63.902344 266.886719 61.941406 262.417969 62.109375 C 260.167969 62.195312 257.820312 62.917969 256.109375 64.425781 C 254.867188 65.523438 253.894531 67.03125 253.726562 68.671875 C 252.898438 68.839844 252.140625 69.351562 251.644531 70.03125 C 250.84375 71.132812 250.792969 72.566406 251.320312 73.796875 C 252.5625 76.695312 255.800781 77.402344 258.589844 77.941406 C 260.054688 78.226562 261.503906 78.570312 262.808594 79.339844 C 263.933594 80.007812 264.925781 80.890625 265.777344 81.878906 C 267.730469 84.160156 268.917969 86.933594 269.996094 89.703125 C 270.617188 91.300781 271.109375 93.042969 272.003906 94.511719 C 272.628906 95.539062 273.78125 96.261719 274.925781 96.082031 C 275.769531 96.945312 277.078125 97.402344 278.191406 96.75 C 278.375 96.640625 278.53125 96.511719 278.667969 96.367188 C 279.105469 96.613281 279.570312 96.792969 280.070312 96.839844 C 281.023438 96.929688 281.933594 96.488281 282.476562 95.707031 C 282.984375 94.984375 283.21875 94.09375 283.328125 93.222656 C 283.46875 92.15625 283.5 91.066406 283.496094 89.988281 C 283.496094 89.054688 283.445312 88.125 283.351562 87.195312 C 285.113281 84.578125 285.175781 81.132812 284.328125 78.105469 " fill-opacity="1" fill-rule="nonzero"/><path fill="#515795" d="M 279.058594 86.613281 C 278.292969 83.683594 277.257812 80.824219 275.96875 78.082031 C 274.75 75.484375 273.371094 72.824219 271.40625 70.703125 C 269.507812 68.660156 267.070312 67.226562 264.355469 66.582031 C 261.199219 65.828125 257.789062 66.285156 254.917969 67.777344 C 254.589844 67.945312 254.394531 68.289062 254.535156 68.65625 C 254.65625 68.96875 255.089844 69.203125 255.414062 69.039062 C 260.125 66.59375 265.90625 67.332031 269.785156 70.980469 C 271.730469 72.804688 273.0625 75.234375 274.234375 77.601562 C 275.484375 80.117188 276.515625 82.738281 277.324219 85.425781 C 278.066406 87.910156 279.101562 91.160156 277.617188 93.570312 C 277.425781 93.882812 277.429688 94.285156 277.742188 94.523438 C 278.007812 94.726562 278.5 94.710938 278.691406 94.398438 C 280.160156 92.007812 279.734375 89.191406 279.058594 86.613281 " fill-opacity="1" fill-rule="nonzero"/><path fill="#515795" d="M 273.640625 87.613281 C 272.710938 85.578125 271.765625 83.546875 270.832031 81.515625 C 269.992188 79.691406 269.152344 77.835938 267.714844 76.394531 C 266.527344 75.199219 265.03125 74.308594 263.414062 73.820312 C 261.535156 73.253906 259.585938 73.199219 257.6875 73.699219 C 257.332031 73.789062 257.1875 74.265625 257.308594 74.574219 C 257.453125 74.953125 257.835938 75.050781 258.1875 74.957031 C 261.15625 74.183594 264.449219 75.140625 266.652344 77.238281 C 267.984375 78.5 268.742188 80.214844 269.496094 81.851562 C 270.363281 83.738281 271.230469 85.625 272.097656 87.507812 C 273.003906 89.472656 273.9375 91.46875 273.996094 93.667969 C 274.015625 94.542969 275.363281 94.375 275.339844 93.511719 C 275.289062 91.429688 274.492188 89.484375 273.640625 87.613281 " fill-opacity="1" fill-rule="nonzero"/><path fill="#515795" d="M 283.113281 85.664062 C 282.527344 82.960938 281.90625 80.261719 281.023438 77.640625 C 280.175781 75.136719 279.089844 72.597656 277.527344 70.445312 C 276.714844 69.320312 275.664062 68.308594 274.324219 67.863281 C 273.5 67.589844 272.96875 68.835938 273.796875 69.109375 C 275.183594 69.570312 276.117188 70.710938 276.882812 71.902344 C 277.761719 73.273438 278.46875 74.753906 279.074219 76.265625 C 280.300781 79.347656 281.066406 82.585938 281.765625 85.820312 C 281.949219 86.667969 283.296875 86.515625 283.113281 85.664062 " fill-opacity="1" fill-rule="nonzero"/><path fill="#090a0a" d="M 257.21875 91.109375 C 256.613281 91.09375 256.023438 91.015625 255.445312 90.851562 C 256.066406 88.769531 256.683594 86.691406 257.304688 84.609375 C 257.410156 84.253906 257.304688 83.878906 256.9375 83.722656 C 256.632812 83.589844 256.15625 83.738281 256.054688 84.085938 C 255.367188 86.402344 254.675781 88.714844 253.988281 91.027344 C 253.886719 91.367188 253.980469 91.773438 254.351562 91.914062 C 255.214844 92.242188 256.109375 92.429688 257.03125 92.449219 C 257.398438 92.457031 257.734375 92.265625 257.796875 91.875 C 257.847656 91.546875 257.582031 91.117188 257.21875 91.109375 " fill-opacity="1" fill-rule="nonzero"/><path fill="#090a0a" d="M 260.628906 93.910156 C 259.28125 94.421875 257.855469 94.484375 256.453125 94.144531 C 255.609375 93.9375 255.425781 95.28125 256.265625 95.488281 C 257.882812 95.882812 259.574219 95.757812 261.128906 95.167969 C 261.945312 94.859375 261.445312 93.601562 260.628906 93.910156 " fill-opacity="1" fill-rule="nonzero"/><path fill="#090a0a" d="M 261.785156 85.464844 C 261.785156 85.464844 261.785156 85.464844 261.785156 85.460938 C 261.78125 85.324219 261.742188 85.1875 261.652344 85.078125 C 261.609375 85.035156 261.566406 84.992188 261.523438 84.949219 C 261.429688 84.875 261.320312 84.835938 261.203125 84.816406 C 261.070312 84.8125 260.976562 84.800781 260.847656 84.859375 C 260.738281 84.90625 260.625 84.980469 260.554688 85.078125 C 260.527344 85.121094 260.480469 85.195312 260.460938 85.238281 C 260.410156 85.355469 260.414062 85.402344 260.414062 85.507812 C 260.410156 85.613281 260.410156 85.660156 260.457031 85.78125 C 260.480469 85.839844 260.515625 85.898438 260.554688 85.949219 C 260.703125 86.144531 260.949219 86.242188 261.191406 86.214844 C 261.28125 86.210938 261.367188 86.179688 261.441406 86.128906 C 261.523438 86.089844 261.59375 86.035156 261.648438 85.957031 C 261.707031 85.886719 261.742188 85.808594 261.761719 85.722656 C 261.789062 85.640625 261.800781 85.554688 261.785156 85.464844 " fill-opacity="1" fill-rule="nonzero"/><path fill="#090a0a" d="M 253.957031 84.882812 C 253.933594 84.835938 253.914062 84.789062 253.894531 84.742188 C 253.820312 84.578125 253.691406 84.4375 253.523438 84.367188 C 253.441406 84.328125 253.359375 84.3125 253.269531 84.320312 C 253.183594 84.3125 253.09375 84.324219 253.015625 84.363281 C 252.851562 84.433594 252.699219 84.558594 252.640625 84.730469 C 252.578125 84.894531 252.558594 85.078125 252.628906 85.238281 C 252.652344 85.289062 252.675781 85.335938 252.695312 85.382812 C 252.765625 85.546875 252.894531 85.6875 253.0625 85.761719 C 253.144531 85.796875 253.230469 85.8125 253.316406 85.804688 C 253.40625 85.8125 253.492188 85.800781 253.574219 85.761719 C 253.734375 85.691406 253.886719 85.566406 253.953125 85.398438 C 254.011719 85.234375 254.027344 85.046875 253.957031 84.882812 " fill-opacity="1" fill-rule="nonzero"/><path fill="#090a0a" d="M 262.90625 82.292969 C 262.15625 82.085938 261.410156 81.882812 260.664062 81.675781 C 260.308594 81.578125 259.933594 81.671875 259.773438 82.039062 C 259.644531 82.339844 259.785156 82.828125 260.140625 82.925781 C 260.886719 83.128906 261.632812 83.335938 262.382812 83.542969 C 262.738281 83.640625 263.109375 83.546875 263.269531 83.179688 C 263.402344 82.875 263.253906 82.390625 262.90625 82.292969 " fill-opacity="1" fill-rule="nonzero"/><path fill="#090a0a" d="M 253.792969 80.917969 C 253.160156 81.121094 252.53125 81.328125 251.898438 81.535156 C 251.066406 81.808594 251.570312 83.066406 252.398438 82.796875 L 254.289062 82.175781 C 255.121094 81.90625 254.617188 80.648438 253.792969 80.917969 " fill-opacity="1" fill-rule="nonzero"/><path fill="#3861b6" d="M 283.007812 210.179688 C 282.992188 209.933594 282.875 209.773438 282.714844 209.683594 C 280.714844 206.5 277.5 204.328125 274.082031 202.894531 C 270.183594 201.261719 265.933594 200.417969 261.75 199.96875 C 252.484375 198.964844 243.148438 200.140625 234.089844 202.109375 C 228.871094 203.242188 223.707031 204.632812 218.546875 206.023438 C 218.277344 206.09375 218.128906 206.378906 218.125 206.648438 C 211.761719 209.503906 206.117188 213.78125 201.449219 218.949219 C 196.46875 224.453125 192.597656 230.953125 189.988281 237.894531 C 186.933594 246.019531 185.515625 254.695312 185.378906 263.355469 C 185.238281 272.207031 186.402344 281.015625 188.4375 289.621094 C 190.511719 298.414062 193.441406 306.976562 196.746094 315.378906 C 197.09375 316.257812 197.441406 317.128906 197.792969 318.003906 C 197.617188 318.273438 197.613281 318.632812 197.945312 318.871094 C 199.207031 319.773438 200.589844 320.484375 202.058594 320.972656 C 202.25 321.191406 202.601562 321.257812 202.882812 321.140625 C 203.105469 321.109375 203.300781 320.988281 203.402344 320.75 C 203.480469 320.566406 203.460938 320.332031 203.359375 320.144531 C 204.890625 311.535156 206.398438 302.921875 207.488281 294.246094 C 208.578125 285.507812 209.242188 276.703125 209.03125 267.894531 C 208.925781 263.371094 208.574219 258.851562 207.945312 254.363281 C 211.785156 252.628906 215.488281 250.585938 219.007812 248.269531 C 222.511719 245.964844 225.824219 243.390625 228.925781 240.574219 C 228.921875 240.582031 228.917969 240.589844 228.917969 240.59375 C 227.515625 243.574219 226.328125 246.652344 225.453125 249.828125 C 224.523438 253.207031 223.976562 256.679688 223.707031 260.171875 C 223.179688 266.9375 223.496094 273.804688 224.117188 280.554688 C 224.703125 286.933594 225.726562 293.28125 227.410156 299.46875 C 229.085938 305.625 231.445312 311.59375 234.652344 317.121094 C 235.046875 317.808594 235.460938 318.484375 235.882812 319.160156 C 236.101562 319.503906 236.628906 319.492188 236.90625 319.230469 C 237.992188 319.570312 239.085938 319.910156 240.175781 320.242188 C 240.746094 320.414062 241.351562 320.582031 241.941406 320.382812 C 242.039062 320.347656 242.132812 320.304688 242.222656 320.253906 C 242.5 320.230469 242.753906 320.050781 242.808594 319.699219 C 242.808594 319.691406 242.808594 319.683594 242.8125 319.675781 C 242.902344 319.515625 242.96875 319.328125 242.992188 319.128906 C 243.011719 318.992188 242.988281 318.875 242.945312 318.773438 C 243.851562 312.535156 244.355469 306.238281 244.4375 299.933594 C 244.527344 293.316406 244.175781 286.695312 243.363281 280.128906 C 243.03125 277.453125 242.621094 274.785156 242.144531 272.128906 C 249.359375 265.675781 256.929688 259.613281 263.542969 252.507812 C 267.078125 248.707031 270.394531 244.6875 273.40625 240.457031 C 276.339844 236.332031 278.949219 231.925781 280.636719 227.132812 C 282.554688 221.707031 283.355469 215.925781 283.007812 210.179688 " fill-opacity="1" fill-rule="nonzero"/><path fill="#1f2c55" d="M 243.046875 320.773438 C 240.347656 320.332031 237.699219 319.648438 235.125 318.734375 C 234.519531 318.515625 234.070312 319.148438 234.214844 319.605469 C 232.3125 320.800781 230.214844 321.65625 228.011719 322.128906 C 227.878906 322.109375 227.742188 322.128906 227.613281 322.207031 C 227.59375 322.214844 227.574219 322.214844 227.554688 322.222656 C 227.132812 322.300781 226.957031 322.667969 226.992188 323 C 226.769531 323.417969 227.042969 323.871094 227.496094 323.984375 C 230.765625 324.808594 233.960938 325.902344 237.0625 327.238281 C 237.230469 327.691406 237.867188 327.957031 238.214844 327.445312 C 239.585938 325.4375 241.265625 323.679688 243.21875 322.226562 C 243.355469 322.128906 243.433594 322.007812 243.46875 321.878906 C 243.730469 321.519531 243.628906 320.871094 243.046875 320.773438 " fill-opacity="1" fill-rule="nonzero"/><path fill="#1f2c55" d="M 203.238281 320.460938 C 201.15625 319.75 199.152344 318.816406 197.277344 317.660156 C 197.144531 317.582031 197 317.535156 196.855469 317.53125 C 196.691406 317.324219 196.417969 317.203125 196.101562 317.316406 C 192.820312 318.4375 189.394531 319.042969 185.929688 319.140625 C 185.246094 318.921875 184.589844 319.863281 185.273438 320.292969 C 189.058594 322.667969 192.988281 324.8125 197.035156 326.714844 C 197.042969 326.71875 197.046875 326.730469 197.054688 326.738281 C 197.253906 327.003906 197.738281 327.128906 198.003906 326.871094 C 199.792969 325.132812 201.582031 323.386719 203.371094 321.644531 C 203.5 321.523438 203.589844 321.375 203.621094 321.21875 C 203.710938 320.925781 203.617188 320.59375 203.238281 320.460938 " fill-opacity="1" fill-rule="nonzero"/><path fill="#eb7f8a" d="M 192.953125 167.730469 C 192.832031 167.601562 192.648438 167.523438 192.414062 167.554688 C 182.664062 168.816406 173.128906 171.703125 164.320312 176.066406 C 162.136719 177.152344 160 178.320312 157.910156 179.578125 C 156.871094 180.203125 155.839844 180.851562 154.824219 181.519531 C 153.828125 182.175781 152.859375 182.886719 151.816406 183.472656 C 150.8125 184.035156 149.738281 184.460938 148.589844 184.589844 C 147.46875 184.710938 146.339844 184.566406 145.242188 184.335938 C 142.972656 183.859375 140.800781 182.972656 138.496094 182.617188 C 137.355469 182.4375 136.070312 182.300781 134.96875 182.734375 C 133.972656 183.128906 133.140625 184.113281 133.601562 185.230469 C 133.914062 185.980469 134.691406 186.496094 135.492188 186.882812 C 133.691406 187.3125 131.953125 188.019531 130.355469 188.972656 C 128.015625 190.359375 125.136719 192.667969 125.613281 195.734375 C 125.835938 197.152344 126.8125 198.242188 128.191406 198.632812 C 129.632812 199.042969 131.09375 198.691406 132.449219 198.132812 C 133.976562 197.5 135.46875 196.792969 137.027344 196.21875 C 138.597656 195.640625 140.191406 195.132812 141.804688 194.6875 C 148.3125 192.890625 155.035156 192.066406 161.703125 191.113281 C 168.324219 190.164062 174.992188 189.082031 181.3125 186.835938 C 186.835938 184.875 192.152344 182.007812 196.363281 177.886719 C 196.878906 177.382812 197.382812 176.863281 197.863281 176.328125 C 198.265625 176.511719 198.90625 176.25 198.894531 175.648438 C 198.824219 172.121094 196.324219 168.792969 192.953125 167.730469 " fill-opacity="1" fill-rule="nonzero"/><path fill="#88a9de" d="M 306.53125 167.734375 C 306.472656 165.238281 306.414062 162.738281 306.339844 160.242188 C 306.199219 155.320312 306.027344 150.402344 305.789062 145.484375 C 305.550781 140.496094 305.238281 135.507812 304.824219 130.53125 C 304.421875 125.714844 304 120.863281 303.269531 116.078125 C 302.632812 111.921875 301.414062 107.71875 298.3125 104.707031 C 295.691406 102.160156 291.636719 101 288.207031 102.605469 C 287.6875 102.84375 287.488281 102.800781 287.183594 102.988281 C 287.003906 103.09375 286.796875 103.144531 286.585938 103.136719 C 286.414062 103.125 286.195312 103.136719 286.089844 103.058594 C 285.828125 102.855469 285.34375 103.109375 285.152344 103.429688 C 281.972656 108.753906 277.253906 113.265625 271.484375 115.660156 C 265.933594 117.96875 259.628906 118.007812 254.121094 115.53125 C 251.117188 114.175781 248.484375 112.089844 246.597656 109.382812 C 246.542969 109.304688 246.480469 109.246094 246.414062 109.203125 C 246.324219 109.109375 246.195312 109.046875 246.027344 109.027344 C 243.414062 108.761719 240.757812 108.511719 238.136719 108.84375 C 235.539062 109.167969 233.140625 110.144531 231.140625 111.839844 C 229.183594 113.5 227.644531 115.574219 226.082031 117.59375 C 224.246094 119.976562 222.40625 122.359375 220.566406 124.742188 C 216.867188 129.53125 213.171875 134.316406 209.472656 139.105469 C 206.175781 143.375 202.859375 147.636719 199.84375 152.113281 C 196.863281 156.542969 194.167969 161.199219 192.179688 166.164062 C 192.023438 166.558594 191.871094 166.957031 191.722656 167.351562 C 191.648438 167.546875 191.511719 167.707031 191.339844 167.820312 C 191.042969 168.011719 190.859375 168.425781 191.097656 168.808594 C 192.828125 171.628906 194.121094 174.722656 194.902344 177.9375 C 194.988281 178.292969 195.257812 178.570312 195.652344 178.527344 C 195.730469 178.519531 195.804688 178.496094 195.878906 178.457031 C 196.039062 178.371094 196.226562 178.339844 196.410156 178.351562 C 196.546875 178.355469 196.695312 178.3125 196.835938 178.199219 C 205.347656 171.328125 213.484375 163.992188 221.199219 156.234375 C 222.40625 155.011719 223.609375 153.785156 224.796875 152.546875 C 225.460938 151.855469 226.625 152.386719 226.542969 153.339844 C 226.398438 154.980469 226.179688 156.609375 225.882812 158.226562 C 225.15625 162.183594 223.882812 165.960938 222.46875 169.714844 C 221.113281 173.320312 219.691406 176.914062 218.757812 180.65625 C 218.292969 182.53125 217.960938 184.4375 217.839844 186.363281 C 217.710938 188.449219 217.851562 190.53125 218.035156 192.613281 C 218.425781 196.964844 218.980469 201.597656 216.964844 205.660156 C 216.871094 205.847656 216.875 206.023438 216.9375 206.167969 C 216.976562 206.257812 217.007812 206.355469 217.023438 206.453125 C 217.0625 206.742188 217.296875 207.035156 217.597656 207.046875 C 226.453125 207.378906 235.308594 207.707031 244.164062 208.039062 C 252.683594 208.359375 261.300781 208.589844 269.625 210.613281 C 273.96875 211.667969 278.195312 213.238281 282.074219 215.472656 C 282.210938 215.554688 282.367188 215.554688 282.511719 215.507812 C 282.582031 215.484375 282.652344 215.464844 282.726562 215.453125 C 282.921875 215.417969 283.101562 215.300781 283.207031 215.070312 C 285.128906 210.789062 286.699219 206.363281 287.917969 201.832031 C 288.515625 199.597656 289.027344 197.332031 289.445312 195.058594 C 289.863281 192.796875 290.109375 190.507812 290.511719 188.242188 C 291.164062 184.578125 292.9375 179.882812 297.203125 179.292969 C 299.339844 178.996094 301.472656 179.699219 303.585938 179.085938 C 305.523438 178.523438 306.605469 176.988281 306.675781 175 C 306.757812 172.589844 306.589844 170.148438 306.53125 167.734375 " fill-opacity="1" fill-rule="nonzero"/><path fill="#4e5492" d="M 290.609375 136.582031 C 290.394531 133.773438 290.160156 130.964844 289.902344 128.164062 C 289.824219 127.292969 288.476562 127.453125 288.554688 128.320312 C 289.472656 138.285156 290.097656 148.273438 290.433594 158.273438 C 290.527344 161.089844 290.601562 163.902344 290.648438 166.722656 C 290.65625 167.089844 291.0625 167.351562 291.402344 167.3125 C 291.796875 167.273438 292.003906 166.925781 291.992188 166.5625 C 291.820312 156.558594 291.359375 146.558594 290.609375 136.582031 " fill-opacity="1" fill-rule="nonzero"/><path fill="#4e5492" d="M 232.75 129.398438 C 232.132812 133.800781 231.289062 138.164062 230.21875 142.480469 C 230.011719 143.328125 231.355469 143.507812 231.5625 142.667969 C 232.628906 138.355469 233.476562 133.988281 234.09375 129.585938 C 234.214844 128.71875 232.871094 128.53125 232.75 129.398438 " fill-opacity="1" fill-rule="nonzero"/><path fill="#eb7f8a" d="M 304.765625 176.738281 C 304.574219 174.722656 303.621094 172.78125 301.855469 171.703125 C 300.097656 170.628906 298.015625 170.398438 296.007812 170.183594 C 293.4375 169.914062 290.867188 169.652344 288.296875 169.402344 C 278.128906 168.40625 267.953125 167.546875 257.777344 166.699219 C 257.054688 166.636719 256.335938 166.578125 255.617188 166.519531 C 254.980469 166.464844 254.285156 166.332031 253.644531 166.421875 C 252.570312 166.574219 251.925781 167.566406 252.007812 168.613281 C 252.066406 169.4375 252.59375 170.070312 253.28125 170.445312 C 252.359375 171.097656 251.433594 171.75 250.511719 172.402344 C 249.390625 173.195312 248.140625 173.925781 247.132812 174.863281 C 246.316406 175.628906 245.652344 176.753906 246.214844 177.871094 C 246.699219 178.839844 247.816406 179.238281 248.832031 179.34375 C 250.117188 179.480469 251.453125 179.367188 252.726562 179.15625 C 255.382812 178.722656 257.925781 177.804688 260.523438 177.113281 C 263.203125 176.398438 265.910156 176.113281 268.675781 176.394531 C 271.515625 176.683594 274.28125 177.441406 276.960938 178.402344 C 282.191406 180.277344 287.121094 182.929688 292.4375 184.566406 C 293.753906 184.972656 295.09375 185.320312 296.449219 185.578125 C 297.699219 185.8125 299.03125 185.957031 300.289062 185.699219 C 301.429688 185.464844 302.476562 184.933594 303.179688 183.988281 C 303.183594 183.988281 303.1875 183.984375 303.191406 183.976562 C 303.300781 183.910156 303.390625 183.804688 303.445312 183.640625 C 303.457031 183.601562 303.472656 183.5625 303.488281 183.523438 C 303.757812 183.046875 303.945312 182.511719 304.007812 181.96875 C 304.539062 180.269531 304.9375 178.527344 304.765625 176.738281 " fill-opacity="1" fill-rule="nonzero"/><path fill="#88a9de" d="M 307.222656 175.515625 C 306.851562 173.933594 306.21875 172.417969 305.042969 171.265625 C 303.5 169.746094 301.351562 169.550781 299.292969 169.488281 C 298.921875 169.476562 298.585938 169.675781 298.527344 170.0625 C 298.492188 170.292969 298.605469 170.5625 298.800781 170.714844 C 298.785156 170.878906 298.832031 171.050781 298.921875 171.207031 C 301.296875 175.402344 301.828125 180.605469 300.367188 185.195312 C 300.257812 185.550781 300.375 185.921875 300.730469 186.082031 C 302.238281 186.757812 303.964844 186.347656 305.242188 185.371094 C 306.679688 184.265625 307.382812 182.527344 307.578125 180.761719 C 307.769531 179.035156 307.625 177.203125 307.222656 175.515625 " fill-opacity="1" fill-rule="nonzero"/><path fill="#c85160" d="M 119.6875 102.339844 C 119.53125 101.746094 119.320312 101.175781 119.058594 100.621094 C 119.460938 100.386719 119.585938 99.648438 119.027344 99.359375 C 115.925781 97.734375 112.832031 96.097656 109.71875 94.5 C 106.894531 93.042969 103.917969 91.910156 100.691406 92.421875 C 94.550781 93.402344 90.242188 98.96875 89.277344 104.878906 C 88.789062 107.894531 89.230469 111.035156 90.746094 113.710938 C 91.007812 114.167969 91.296875 114.605469 91.613281 115.015625 C 90.910156 116.894531 90.074219 118.738281 88.777344 120.277344 C 86.882812 122.53125 83.882812 123.222656 81.863281 125.324219 C 79.785156 127.484375 79 130.492188 79.398438 133.421875 C 79.617188 135.039062 80.128906 136.609375 80.699219 138.128906 C 81.292969 139.707031 81.941406 141.269531 82.609375 142.816406 C 83.261719 144.3125 83.914062 145.816406 84.652344 147.265625 C 85.265625 148.46875 86.011719 149.671875 87.203125 150.367188 C 88.480469 151.117188 90.042969 151.085938 91.382812 150.515625 C 92.746094 149.9375 93.824219 148.871094 94.734375 147.734375 C 96.671875 145.304688 98.082031 142.488281 99.292969 139.640625 C 100.574219 136.632812 101.71875 133.5625 102.914062 130.519531 C 103.183594 129.824219 103.601562 129.042969 103.335938 128.285156 C 103.125 127.679688 102.589844 127.3125 102.019531 127.074219 C 100.890625 126.59375 99.773438 126.171875 99.132812 125.035156 C 98.390625 123.730469 98.941406 122.246094 99.679688 121.070312 C 99.988281 120.585938 100.328125 120.125 100.667969 119.664062 C 102.421875 119.851562 104.210938 119.785156 105.949219 119.523438 C 108.769531 119.101562 111.523438 118.128906 113.886719 116.523438 C 118.410156 113.453125 121.109375 107.761719 119.6875 102.339844 " fill-opacity="1" fill-rule="nonzero"/><path fill="#c85160" d="M 161.476562 169.046875 C 161.371094 168.691406 161.082031 168.578125 160.800781 168.632812 C 160.746094 168.621094 160.6875 168.621094 160.632812 168.621094 C 154.949219 168.632812 149.265625 168.648438 143.582031 168.660156 C 140.75 168.667969 137.914062 168.695312 135.078125 168.675781 C 132.617188 168.664062 130.015625 168.519531 127.785156 167.378906 C 125.933594 166.425781 124.390625 164.691406 124.136719 162.601562 C 124.71875 162.472656 124.765625 161.433594 124.03125 161.253906 C 122.140625 160.792969 120.230469 161.285156 118.390625 161.75 C 116.453125 162.238281 114.515625 162.722656 112.578125 163.210938 C 112.445312 163.246094 112.347656 163.320312 112.277344 163.414062 C 111.921875 163.585938 111.695312 164.015625 112.019531 164.402344 C 113.96875 166.710938 114.285156 169.894531 115.082031 172.699219 C 115.488281 174.121094 116.035156 175.542969 116.953125 176.722656 C 117.972656 178.03125 119.390625 178.902344 120.984375 179.332031 C 122.722656 179.796875 124.5625 179.757812 126.339844 179.589844 C 128.417969 179.394531 130.492188 179.0625 132.558594 178.785156 C 137.035156 178.1875 141.503906 177.585938 145.980469 176.988281 C 151.019531 176.3125 156.058594 175.640625 161.101562 174.960938 C 161.101562 174.960938 161.101562 174.960938 161.109375 174.960938 C 161.46875 175.066406 161.902344 174.910156 161.957031 174.425781 C 162.152344 172.609375 161.984375 170.804688 161.476562 169.046875 " fill-opacity="1" fill-rule="nonzero"/><path fill="#9fcbec" d="M 129.394531 174.019531 C 128.429688 173.351562 126.921875 173.460938 125.808594 173.5 C 124.519531 173.550781 123.246094 173.761719 122.007812 174.101562 C 119.230469 174.859375 116.710938 176.347656 114.667969 178.367188 C 114.589844 178.445312 114.546875 178.546875 114.53125 178.65625 C 114.511719 178.722656 114.5 178.804688 114.503906 178.890625 C 114.617188 181.304688 116.023438 183.492188 118.09375 184.691406 C 118.21875 184.847656 118.414062 184.945312 118.675781 184.914062 C 120.089844 184.714844 121.488281 184.410156 122.851562 183.984375 C 123.554688 183.765625 124.253906 183.515625 124.9375 183.226562 C 125.519531 182.988281 126.253906 182.761719 126.617188 182.207031 C 126.976562 181.652344 126.773438 180.960938 126.253906 180.59375 C 125.660156 180.171875 125.015625 180.355469 124.378906 180.535156 C 124.296875 180.558594 123.921875 180.636719 123.914062 180.625 C 123.820312 180.457031 124.242188 180.25 124.324219 180.214844 C 124.910156 179.957031 125.550781 179.835938 126.140625 179.566406 C 127.320312 179.035156 128.425781 178.269531 129.296875 177.3125 C 130.121094 176.402344 130.59375 174.84375 129.394531 174.019531 " fill-opacity="1" fill-rule="nonzero"/><path fill="#9fcbec" d="M 178.191406 169.816406 C 178 168.644531 177.289062 167.609375 176.40625 166.839844 C 174.605469 165.265625 172.070312 164.882812 169.769531 165.261719 C 166.792969 165.75 164.191406 167.316406 161.445312 168.476562 C 161.03125 168.472656 160.570312 168.867188 160.726562 169.402344 C 161.144531 170.847656 161.3125 172.351562 161.230469 173.851562 C 161.164062 173.964844 161.128906 174.101562 161.15625 174.269531 C 161.167969 174.359375 161.179688 174.445312 161.191406 174.535156 C 161.234375 174.832031 161.449219 175.019531 161.695312 175.085938 C 161.816406 175.1875 161.984375 175.246094 162.195312 175.210938 C 164.734375 174.796875 166.734375 172.976562 169.253906 172.5 C 170.535156 172.257812 171.84375 172.277344 173.117188 172.566406 C 174.261719 172.824219 175.476562 173.34375 176.636719 172.871094 C 177.832031 172.386719 178.390625 171.039062 178.191406 169.816406 " fill-opacity="1" fill-rule="nonzero"/><path fill="#ebebe9" d="M 126.628906 161.824219 C 124.296875 155.480469 121.960938 149.132812 119.628906 142.789062 C 118.601562 140.003906 117.664062 137.128906 116.039062 134.621094 C 114.539062 132.316406 112.394531 130.613281 109.925781 129.4375 C 107.265625 128.175781 104.367188 127.507812 101.496094 126.894531 C 101.425781 126.761719 101.304688 126.652344 101.160156 126.589844 C 100.445312 125.339844 100.007812 124.902344 98.578125 124.601562 C 97.722656 124.421875 97.539062 125.761719 98.390625 125.941406 C 99.425781 126.160156 99.578125 126.429688 100.050781 127.375 C 98.027344 131.953125 95.234375 136.160156 91.800781 139.800781 C 90.941406 140.714844 90.039062 141.582031 89.101562 142.414062 C 87.070312 140.28125 85.867188 137.503906 84.824219 134.789062 C 83.746094 131.972656 82.105469 128.519531 83.53125 125.539062 C 84.199219 124.148438 85.917969 121.886719 87.476562 122.226562 C 88.328125 122.410156 88.515625 121.066406 87.664062 120.882812 C 86.046875 120.53125 84.179688 122.550781 83.101562 123.753906 C 81.945312 125.046875 81.570312 126.875 81.652344 128.566406 C 81.746094 130.484375 82.457031 132.316406 83.117188 134.097656 C 83.722656 135.730469 84.347656 137.363281 85.128906 138.925781 C 85.992188 140.640625 87.035156 142.230469 88.386719 143.601562 C 88.519531 144.007812 88.992188 144.300781 89.40625 143.945312 C 91.128906 142.457031 92.734375 140.847656 94.210938 139.125 C 94.246094 139.324219 94.363281 139.503906 94.589844 139.613281 C 99.09375 141.800781 102.804688 145.515625 104.984375 150.019531 C 105.050781 150.15625 105.144531 150.253906 105.25 150.316406 C 106.640625 155.339844 109.015625 160 111.007812 164.796875 C 111.605469 166.226562 112.164062 167.675781 112.65625 169.144531 C 112.765625 169.46875 113.027344 169.589844 113.289062 169.5625 C 113.425781 169.671875 113.601562 169.734375 113.769531 169.691406 C 118.445312 168.570312 122.804688 166.328125 126.382812 163.113281 C 126.617188 162.902344 126.660156 162.625 126.589844 162.382812 C 126.679688 162.234375 126.707031 162.039062 126.628906 161.824219 " fill-opacity="1" fill-rule="nonzero"/><path fill="#ebebe9" d="M 123.617188 224.023438 C 123.582031 223.683594 123.324219 223.363281 122.886719 223.410156 C 122.882812 223.410156 122.878906 223.410156 122.871094 223.410156 C 119.46875 221.046875 117.003906 217.617188 115.183594 213.925781 C 113.070312 209.644531 111.609375 205 110.523438 200.359375 C 108.207031 190.460938 107.816406 180.121094 109.429688 170.082031 C 110.269531 164.886719 112.160156 158.761719 108.535156 154.15625 C 108.378906 153.957031 108.175781 153.882812 107.980469 153.898438 C 106.011719 149.492188 103.453125 145.351562 100.378906 141.628906 C 99.429688 140.476562 98.429688 139.371094 97.382812 138.304688 C 97.351562 138.039062 97.175781 137.804688 96.824219 137.777344 C 94.242188 137.566406 92.546875 139.585938 90.960938 141.300781 C 90.445312 141.855469 89.238281 143.355469 88.398438 142.683594 C 87.996094 142.367188 87.707031 141.867188 87.410156 141.460938 C 87.046875 140.949219 86.699219 140.429688 86.367188 139.898438 C 85.089844 137.828125 84.257812 135.628906 83.488281 133.335938 C 83.167969 132.390625 82.699219 131.429688 81.792969 130.917969 C 80.730469 130.324219 79.476562 130.625 78.429688 131.113281 C 76.59375 131.96875 74.929688 133.183594 73.519531 134.640625 C 73.308594 134.21875 72.546875 134.082031 72.242188 134.648438 C 69.324219 140.101562 66.457031 145.589844 63.867188 151.207031 C 62.585938 154.003906 61.367188 156.828125 60.25 159.695312 C 59.160156 162.488281 58.078125 165.328125 57.394531 168.253906 C 56.722656 171.113281 56.519531 174.160156 57.515625 176.953125 C 57.148438 183.777344 55.835938 190.5 54.613281 197.210938 C 53.378906 203.988281 52.257812 210.8125 52.257812 217.722656 C 52.257812 221.566406 52.632812 225.414062 53.535156 229.15625 C 53.609375 229.46875 53.820312 229.714844 54.132812 229.75 C 54.1875 229.941406 54.339844 230.109375 54.527344 230.21875 C 58.066406 232.242188 62.484375 231.371094 66.320312 230.957031 C 70.894531 230.453125 75.472656 229.953125 80.050781 229.453125 C 89.238281 228.449219 98.421875 227.445312 107.605469 226.441406 C 112.582031 225.898438 117.554688 225.355469 122.53125 224.8125 C 122.535156 224.816406 122.539062 224.816406 122.546875 224.820312 C 123.152344 225.210938 123.832031 224.535156 123.617188 224.023438 " fill-opacity="1" fill-rule="nonzero"/><path fill="#c5bfe5" d="M 103.816406 153.484375 C 103.738281 153.109375 103.425781 152.929688 103.121094 152.921875 C 102.78125 152.871094 102.402344 153.039062 102.324219 153.46875 C 102.234375 153.964844 101.332031 154.253906 100.945312 154.4375 C 100.253906 154.765625 99.542969 155.0625 98.824219 155.320312 C 97.382812 155.839844 95.894531 156.207031 94.378906 156.421875 C 93.984375 156.480469 93.804688 156.796875 93.804688 157.105469 C 93.675781 157.230469 93.59375 157.40625 93.609375 157.640625 C 93.917969 161.492188 93.695312 165.359375 92.972656 169.15625 C 92.917969 169.425781 93.015625 169.628906 93.183594 169.757812 C 93.246094 169.972656 93.421875 170.144531 93.722656 170.164062 C 96.613281 170.351562 99.511719 170.210938 102.371094 169.714844 C 102.53125 169.6875 102.652344 169.617188 102.746094 169.523438 C 102.875 169.460938 102.980469 169.34375 103.039062 169.160156 C 104.636719 164.097656 104.929688 158.679688 103.816406 153.484375 " fill-opacity="1" fill-rule="nonzero"/><path fill="#6b71b1" d="M 86.367188 154.792969 C 86.015625 153.953125 85.007812 153.355469 84.117188 153.746094 C 83.503906 154.015625 83.160156 154.671875 83.230469 155.296875 C 82.992188 155.894531 83.152344 156.597656 83.675781 157.023438 C 84.289062 157.527344 85.230469 157.515625 85.839844 157.015625 C 86.46875 156.496094 86.679688 155.542969 86.367188 154.792969 " fill-opacity="1" fill-rule="nonzero"/><path fill="#6b71b1" d="M 87.234375 169.238281 C 86.574219 168.800781 85.699219 168.828125 85.117188 169.378906 C 84.929688 169.558594 84.78125 169.78125 84.683594 170.023438 C 83.738281 171.363281 85.242188 172.960938 86.6875 172.535156 C 88.160156 172.09375 88.535156 170.101562 87.234375 169.238281 " fill-opacity="1" fill-rule="nonzero"/><path fill="#6b71b1" d="M 88.605469 201.695312 C 88.433594 201.601562 88.261719 201.546875 88.09375 201.519531 C 87.136719 201.027344 85.941406 201.761719 85.878906 202.875 C 85.808594 204.179688 87.171875 205.214844 88.410156 204.714844 C 89.703125 204.195312 89.851562 202.351562 88.605469 201.695312 " fill-opacity="1" fill-rule="nonzero"/><path fill="#6b71b1" d="M 88.433594 217.453125 C 87.386719 217.296875 86.414062 218.046875 86.433594 219.128906 C 86.441406 219.683594 86.730469 220.214844 87.160156 220.527344 C 87.269531 220.617188 87.390625 220.699219 87.53125 220.765625 C 88.472656 221.226562 89.542969 220.675781 89.832031 219.699219 C 90.132812 218.671875 89.515625 217.621094 88.433594 217.453125 " fill-opacity="1" fill-rule="nonzero"/><path fill="#c5bfe5" d="M 94.792969 224.105469 C 92.507812 219.785156 92.019531 214.820312 92.144531 210.003906 C 92.214844 207.316406 92.449219 204.636719 92.625 201.957031 C 92.792969 199.339844 92.867188 196.71875 92.835938 194.097656 C 92.695312 183.746094 91.042969 173.496094 90.40625 163.175781 C 90.054688 157.386719 90.039062 151.570312 90.792969 145.8125 C 90.910156 144.949219 89.566406 144.757812 89.453125 145.621094 C 88.085938 155.996094 89.214844 166.453125 90.257812 176.796875 C 90.789062 182.027344 91.296875 187.269531 91.449219 192.523438 C 91.527344 195.128906 91.507812 197.734375 91.367188 200.335938 C 91.222656 203.019531 90.972656 205.699219 90.851562 208.382812 C 90.601562 213.886719 90.90625 219.636719 93.527344 224.609375 C 93.703125 224.933594 94.042969 225.132812 94.410156 224.988281 C 94.722656 224.867188 94.960938 224.433594 94.792969 224.105469 " fill-opacity="1" fill-rule="nonzero"/><path fill="#c5bfe5" d="M 64.675781 157.394531 C 62.710938 163.261719 61.429688 169.347656 60.867188 175.511719 C 60.789062 176.378906 62.132812 176.570312 62.210938 175.699219 C 62.757812 169.652344 64 163.675781 65.925781 157.917969 C 66.203125 157.09375 64.953125 156.5625 64.675781 157.394531 " fill-opacity="1" fill-rule="nonzero"/><path fill="#c5bfe5" d="M 112.734375 163.613281 C 110.921875 158.328125 108.832031 153.144531 106.480469 148.078125 C 106.113281 147.289062 104.851562 147.785156 105.21875 148.578125 C 107.574219 153.644531 109.660156 158.828125 111.476562 164.109375 C 111.757812 164.9375 113.019531 164.433594 112.734375 163.613281 " fill-opacity="1" fill-rule="nonzero"/><path fill="#090a0a" d="M 119.152344 89.4375 C 116.929688 86.730469 113.683594 85.042969 110.199219 84.722656 C 106.378906 84.367188 102.546875 85.417969 99.023438 86.804688 C 95.6875 88.117188 92.492188 89.917969 89.992188 92.523438 C 87.609375 95.003906 85.902344 98.351562 85.769531 101.832031 C 85.703125 103.421875 85.863281 105.28125 87.003906 106.507812 C 88.238281 107.835938 90.140625 107.941406 91.78125 107.414062 C 92.699219 107.113281 93.542969 106.625 94.382812 106.148438 C 94.703125 105.964844 94.714844 105.464844 94.515625 105.199219 C 94.378906 105.011719 94.191406 104.9375 93.992188 104.941406 C 93.542969 103.511719 93.46875 101.828125 94.320312 100.542969 C 95.023438 99.476562 96.5 98.765625 97.757812 99.195312 C 99.050781 99.640625 99.566406 101.191406 100.257812 102.230469 C 101.1875 103.636719 102.632812 104.394531 104.335938 104.113281 C 106.222656 103.796875 107.605469 102.476562 109.15625 101.472656 C 109.90625 100.988281 110.769531 100.5625 111.683594 100.542969 C 112.554688 100.515625 113.367188 100.929688 114.101562 101.351562 C 115.648438 102.253906 117.316406 103.40625 119.195312 102.886719 C 120.78125 102.449219 121.585938 100.898438 121.878906 99.390625 C 122.546875 95.960938 121.339844 92.105469 119.152344 89.4375 " fill-opacity="1" fill-rule="nonzero"/><path fill="#090a0a" d="M 90.578125 97.667969 C 90.253906 96.859375 89.671875 96.210938 89.085938 95.585938 C 89.042969 95.542969 88.992188 95.5 88.941406 95.464844 C 88.914062 95.203125 88.75 94.972656 88.429688 94.917969 C 88.386719 94.8125 88.308594 94.710938 88.183594 94.632812 C 86.085938 93.246094 83.589844 92.867188 81.125 92.804688 C 78.453125 92.738281 75.691406 93.003906 73.09375 92.226562 C 72.742188 92.121094 72.363281 92.230469 72.210938 92.589844 C 72.074219 92.898438 72.222656 93.371094 72.574219 93.476562 C 75.164062 94.25 77.835938 94.109375 80.507812 94.136719 C 82.089844 94.15625 83.746094 94.257812 85.273438 94.734375 C 83.1875 94.742188 81.105469 95.039062 79.179688 95.875 C 76.785156 96.917969 74.601562 98.808594 73.703125 101.324219 C 72.882812 103.636719 73.179688 106.453125 74.792969 108.367188 C 76.539062 110.4375 79.425781 110.992188 81.976562 110.378906 C 83.191406 110.089844 84.292969 109.5625 85.300781 108.882812 C 84.347656 110.199219 82.820312 111.148438 81.457031 111.917969 C 79.382812 113.085938 77.160156 114.207031 75.808594 116.253906 C 75.332031 116.972656 76.402344 117.808594 76.886719 117.078125 C 78.269531 114.980469 80.652344 113.960938 82.746094 112.726562 C 84.347656 111.78125 85.878906 110.605469 86.789062 109.007812 C 86.082031 112.769531 83.925781 116.195312 80.757812 118.410156 C 80.046875 118.910156 80.863281 119.988281 81.578125 119.488281 C 85.640625 116.648438 88.246094 111.855469 88.378906 106.894531 C 88.386719 106.6875 88.328125 106.492188 88.207031 106.347656 C 88.398438 106.144531 88.582031 105.941406 88.765625 105.730469 C 89.078125 105.867188 89.476562 105.800781 89.640625 105.390625 C 90.296875 103.730469 90.730469 101.964844 90.859375 100.183594 C 90.917969 99.335938 90.898438 98.464844 90.578125 97.667969 " fill-opacity="1" fill-rule="nonzero"/><path fill="#090a0a" d="M 117.769531 107.136719 L 117.769531 107.089844 C 117.761719 107 117.734375 106.917969 117.683594 106.839844 C 117.644531 106.757812 117.585938 106.6875 117.507812 106.632812 C 117.4375 106.574219 117.359375 106.539062 117.273438 106.523438 C 117.191406 106.492188 117.105469 106.484375 117.015625 106.496094 C 116.84375 106.527344 116.664062 106.605469 116.558594 106.757812 C 116.527344 106.808594 116.5 106.859375 116.46875 106.910156 C 116.425781 107.019531 116.410156 107.132812 116.421875 107.25 L 116.421875 107.292969 C 116.429688 107.386719 116.457031 107.472656 116.507812 107.546875 C 116.546875 107.628906 116.605469 107.699219 116.683594 107.753906 C 116.753906 107.8125 116.832031 107.847656 116.917969 107.867188 C 117 107.894531 117.085938 107.90625 117.175781 107.890625 C 117.347656 107.863281 117.527344 107.78125 117.632812 107.628906 C 117.664062 107.582031 117.691406 107.53125 117.722656 107.480469 C 117.765625 107.367188 117.78125 107.253906 117.769531 107.136719 " fill-opacity="1" fill-rule="nonzero"/><path fill="#090a0a" d="M 110.863281 106.066406 C 110.859375 105.972656 110.828125 105.890625 110.777344 105.816406 C 110.738281 105.730469 110.683594 105.664062 110.605469 105.609375 C 110.464844 105.511719 110.289062 105.441406 110.113281 105.472656 C 110.054688 105.488281 110 105.5 109.945312 105.515625 C 109.824219 105.558594 109.730469 105.632812 109.65625 105.730469 C 109.636719 105.746094 109.625 105.761719 109.609375 105.777344 C 109.550781 105.847656 109.511719 105.925781 109.496094 106.011719 C 109.46875 106.097656 109.460938 106.179688 109.472656 106.269531 C 109.480469 106.363281 109.511719 106.445312 109.558594 106.519531 C 109.597656 106.605469 109.65625 106.671875 109.730469 106.730469 C 109.875 106.828125 110.050781 106.890625 110.222656 106.863281 C 110.28125 106.851562 110.339844 106.835938 110.394531 106.820312 C 110.507812 106.773438 110.605469 106.703125 110.683594 106.605469 L 110.730469 106.558594 C 110.785156 106.488281 110.824219 106.410156 110.839844 106.324219 C 110.871094 106.238281 110.878906 106.152344 110.863281 106.066406 " fill-opacity="1" fill-rule="nonzero"/><path fill="#090a0a" d="M 118.675781 103.789062 C 118.246094 103.488281 117.730469 103.34375 117.203125 103.421875 C 116.851562 103.472656 116.550781 103.804688 116.609375 104.171875 C 116.664062 104.527344 116.988281 104.824219 117.363281 104.769531 C 117.414062 104.761719 117.464844 104.753906 117.515625 104.753906 C 117.523438 104.753906 117.632812 104.769531 117.664062 104.773438 C 117.691406 104.78125 117.722656 104.792969 117.75 104.808594 C 117.769531 104.8125 117.785156 104.824219 117.804688 104.832031 C 117.8125 104.839844 117.828125 104.851562 117.851562 104.863281 C 118.136719 105.066406 118.582031 105.046875 118.800781 104.742188 C 119.003906 104.449219 118.988281 104.007812 118.675781 103.789062 " fill-opacity="1" fill-rule="nonzero"/><path fill="#090a0a" d="M 111.546875 102.328125 C 110.574219 102.296875 109.617188 102.375 108.667969 102.585938 C 107.824219 102.773438 107.976562 104.121094 108.828125 103.933594 C 109.65625 103.746094 110.503906 103.644531 111.359375 103.667969 C 111.722656 103.675781 112.0625 103.480469 112.121094 103.089844 C 112.171875 102.761719 111.910156 102.335938 111.546875 102.328125 " fill-opacity="1" fill-rule="nonzero"/><path fill="#090a0a" d="M 115.019531 111.667969 C 114.390625 110.128906 114.304688 108.484375 114.738281 106.878906 C 114.835938 106.527344 114.492188 106.164062 114.164062 106.113281 C 113.765625 106.054688 113.492188 106.339844 113.398438 106.691406 C 112.96875 108.269531 113.023438 109.945312 113.515625 111.492188 C 112.679688 111.71875 111.792969 111.738281 110.949219 111.503906 C 110.589844 111.40625 110.21875 111.503906 110.0625 111.867188 C 109.929688 112.171875 110.074219 112.65625 110.425781 112.753906 C 111.835938 113.140625 113.273438 113.097656 114.640625 112.546875 C 114.976562 112.410156 115.160156 112.007812 115.019531 111.667969 " fill-opacity="1" fill-rule="nonzero"/><path fill="#090a0a" d="M 109.042969 114.050781 C 108.261719 114.285156 107.464844 114.019531 106.886719 113.472656 C 106.625 113.21875 106.140625 113.324219 105.9375 113.59375 C 105.695312 113.910156 105.792969 114.292969 106.0625 114.546875 C 106.996094 115.433594 108.328125 115.671875 109.542969 115.308594 C 110.378906 115.058594 109.875 113.800781 109.042969 114.050781 " fill-opacity="1" fill-rule="nonzero"/><path fill="#4d5aa9" d="M 97.269531 98.828125 C 95.949219 98.699219 94.785156 99.519531 94.171875 100.644531 C 93.53125 101.832031 93.472656 103.359375 93.707031 104.664062 C 93.816406 105.28125 94.0625 105.886719 94.617188 106.230469 C 95.160156 106.5625 95.902344 106.59375 96.394531 106.140625 C 97.03125 105.558594 96.222656 104.46875 95.578125 105.058594 C 95.4375 105.191406 95.28125 105.089844 95.164062 104.875 C 94.984375 104.554688 94.992188 104.101562 94.972656 103.746094 C 94.917969 102.917969 94.964844 102.042969 95.359375 101.292969 C 95.679688 100.6875 96.265625 100.175781 96.976562 100.167969 C 97.507812 100.160156 98.144531 100.554688 98.136719 101.144531 C 98.132812 101.515625 98.320312 101.851562 98.714844 101.910156 C 99.042969 101.960938 99.472656 101.699219 99.476562 101.332031 C 99.5 100.050781 98.578125 98.949219 97.269531 98.828125 " fill-opacity="1" fill-rule="nonzero"/><path fill="#9fcbec" d="M 215.621094 43.492188 C 214.019531 45.238281 211.335938 45.558594 209.359375 44.257812 C 209.261719 44.191406 209.15625 44.152344 209.054688 44.144531 C 208.945312 44.078125 208.816406 44.042969 208.660156 44.050781 C 201.878906 44.488281 195.09375 44.863281 188.308594 45.167969 C 181.519531 45.476562 174.730469 45.71875 167.9375 45.898438 C 164.089844 45.996094 160.242188 46.078125 156.394531 46.136719 C 156.363281 46.136719 156.328125 46.144531 156.296875 46.148438 C 156.035156 46.003906 155.6875 46.007812 155.4375 46.296875 C 153.519531 48.527344 150.164062 48.558594 148.089844 46.542969 C 147.828125 46.289062 147.34375 46.398438 147.136719 46.667969 C 146.894531 46.984375 146.996094 47.359375 147.261719 47.617188 C 149.789062 50.074219 153.828125 49.882812 156.226562 47.425781 C 156.332031 47.464844 156.441406 47.484375 156.554688 47.484375 C 163.347656 47.378906 170.140625 47.207031 176.929688 46.976562 C 183.722656 46.742188 190.507812 46.441406 197.292969 46.078125 C 201.082031 45.875 204.871094 45.652344 208.660156 45.40625 C 211.265625 47.046875 214.605469 46.597656 216.695312 44.316406 C 217.28125 43.675781 216.207031 42.851562 215.621094 43.492188 " fill-opacity="1" fill-rule="nonzero"/><path fill="#4f8ed2" d="M 213.976562 73.777344 C 213.886719 73.214844 213.75 72.664062 213.589844 72.117188 C 213.34375 71.28125 212.082031 71.785156 212.328125 72.613281 C 213.570312 76.8125 212.113281 81.699219 208.855469 84.609375 C 204.945312 88.089844 199.324219 88.144531 194.386719 87.964844 C 189.128906 87.773438 183.867188 87.519531 178.617188 88 C 173.527344 88.460938 168.441406 89.625 163.957031 92.152344 C 159.390625 94.726562 155.773438 98.667969 153.125 103.15625 C 152.789062 103.71875 152.46875 104.289062 152.160156 104.863281 C 151.75 105.632812 153.003906 106.152344 153.410156 105.386719 C 155.871094 100.773438 159.289062 96.609375 163.765625 93.828125 C 168.160156 91.097656 173.300781 89.875 178.40625 89.378906 C 183.6875 88.863281 188.980469 89.117188 194.273438 89.308594 C 199.378906 89.496094 205.113281 89.417969 209.28125 86.015625 C 212.820312 83.128906 214.691406 78.292969 213.976562 73.777344 " fill-opacity="1" fill-rule="nonzero"/><path fill="#f4733c" d="M 153.046875 81.011719 C 152.925781 78.773438 152.707031 76.546875 152.398438 74.328125 C 152.28125 73.460938 150.933594 73.621094 151.050781 74.488281 C 152.132812 82.28125 152.058594 90.214844 150.816406 97.984375 C 150.464844 100.195312 150.015625 102.390625 149.476562 104.566406 C 149.269531 105.410156 150.613281 105.589844 150.820312 104.753906 C 152.730469 97.003906 153.480469 88.980469 153.046875 81.011719 " fill-opacity="1" fill-rule="nonzero"/><path fill="#f4733c" d="M 177.011719 155.085938 C 171.882812 151.085938 165.675781 148.734375 160.78125 144.398438 C 156.273438 140.398438 152.867188 135.179688 151.019531 129.449219 C 148.960938 123.074219 148.890625 116.027344 150.796875 109.601562 C 151.035156 108.800781 151.304688 108.011719 151.601562 107.230469 C 151.90625 106.417969 150.65625 105.886719 150.347656 106.707031 C 147.976562 112.996094 147.429688 119.953125 148.84375 126.527344 C 150.125 132.484375 152.988281 138.070312 157.066406 142.605469 C 159.128906 144.890625 161.476562 146.890625 164.046875 148.582031 C 166.769531 150.371094 169.664062 151.875 172.4375 153.585938 C 175.09375 155.230469 177.664062 157.070312 179.648438 159.511719 C 181.449219 161.730469 182.851562 164.402344 183.136719 167.28125 C 183.410156 170.082031 182.449219 172.738281 180.628906 174.855469 C 178.839844 176.941406 176.425781 178.441406 173.988281 179.660156 C 173.367188 179.972656 172.734375 180.265625 172.097656 180.550781 C 171.300781 180.90625 171.796875 182.167969 172.59375 181.8125 C 177.617188 179.566406 183.148438 176.242188 184.332031 170.417969 C 185.550781 164.414062 181.527344 158.609375 177.011719 155.085938 " fill-opacity="1" fill-rule="nonzero"/><path fill="#040606" d="M 220.484375 120.757812 C 217.605469 120.097656 216.660156 116.710938 215.757812 114.324219 C 215.257812 112.996094 214.664062 111.644531 213.726562 110.558594 C 212.859375 109.550781 211.722656 108.808594 210.441406 108.4375 C 209.375 108.132812 208.265625 108.070312 207.1875 108.265625 C 207.15625 108.074219 207.117188 107.878906 207.082031 107.6875 C 206.988281 107.203125 206.851562 106.722656 206.425781 106.421875 C 205.941406 106.078125 205.304688 106.199219 204.753906 106.238281 C 204.113281 106.285156 203.46875 106.332031 202.828125 106.378906 C 202.382812 106.414062 202.207031 106.777344 202.253906 107.121094 C 202.136719 107.265625 202.0625 107.449219 202.0625 107.628906 C 202.070312 109.445312 202.324219 111.226562 202.789062 112.980469 C 202.859375 113.25 203.230469 113.453125 203.5 113.40625 C 204.136719 113.285156 204.773438 113.167969 205.410156 113.050781 C 205.960938 112.945312 206.636719 112.914062 207.113281 112.589844 C 208.066406 111.945312 207.589844 110.523438 207.414062 109.597656 C 209.558594 109.191406 211.785156 110.109375 213.066406 111.910156 C 214.738281 114.273438 215.003906 117.335938 216.746094 119.667969 C 217.632812 120.859375 218.835938 121.761719 220.296875 122.101562 C 221.144531 122.296875 221.328125 120.953125 220.484375 120.757812 " fill-opacity="1" fill-rule="nonzero"/><path fill="#040606" d="M 189.34375 122.277344 C 188.945312 122.320312 188.75 122.667969 188.75 123.03125 C 188.75 123.359375 188.339844 123.683594 188.101562 123.886719 C 187.703125 124.234375 187.261719 124.570312 186.949219 125.003906 C 186.554688 125.554688 186.449219 126.175781 186.644531 126.828125 C 186.726562 127.117188 186.972656 127.480469 186.925781 127.789062 C 186.882812 128.054688 186.605469 128.226562 186.382812 128.328125 C 185.65625 128.644531 184.78125 128.445312 184.019531 128.609375 C 183.316406 128.761719 182.644531 129.105469 182.28125 129.746094 C 182.109375 130.058594 182.035156 130.40625 181.996094 130.757812 C 181.972656 130.957031 181.992188 131.371094 181.839844 131.507812 C 181.667969 131.65625 181.210938 131.527344 181.019531 131.511719 C 180.625 131.476562 180.234375 131.46875 179.851562 131.59375 C 179.160156 131.8125 178.710938 132.414062 178.378906 133.027344 C 178.070312 133.605469 177.910156 134.28125 177.46875 134.78125 C 177.039062 135.269531 176.625 135.0625 176.179688 134.722656 C 175.644531 134.308594 175.105469 133.875 174.402344 133.828125 C 173.554688 133.773438 172.945312 134.320312 172.167969 134.523438 C 171.980469 134.570312 171.640625 134.640625 171.515625 134.445312 C 171.375 134.207031 171.617188 133.757812 171.714844 133.546875 C 172.050781 132.808594 172.410156 131.988281 172.003906 131.199219 C 171.644531 130.503906 170.902344 130.28125 170.164062 130.285156 C 169.828125 130.285156 168.601562 130.597656 168.421875 130.164062 C 168.320312 129.910156 168.777344 129.546875 168.933594 129.433594 C 169.253906 129.203125 169.617188 129.023438 169.925781 128.777344 C 170.675781 128.175781 170.945312 127.339844 170.773438 126.402344 C 170.710938 126.050781 170.21875 124.757812 170.726562 124.507812 C 171.496094 124.117188 171.003906 122.855469 170.222656 123.246094 C 169.476562 123.621094 169.175781 124.332031 169.183594 125.140625 C 169.183594 125.84375 169.796875 126.90625 169.304688 127.515625 C 169.097656 127.765625 168.78125 127.929688 168.503906 128.101562 C 168.128906 128.335938 167.773438 128.589844 167.503906 128.945312 C 167.003906 129.605469 166.882812 130.503906 167.480469 131.144531 C 168.027344 131.730469 168.886719 131.753906 169.636719 131.675781 C 169.9375 131.648438 170.3125 131.566406 170.609375 131.675781 C 170.945312 131.804688 170.835938 132.152344 170.730469 132.429688 C 170.429688 133.21875 169.917969 134.007812 170.238281 134.882812 C 170.535156 135.6875 171.390625 136.023438 172.199219 135.894531 C 172.601562 135.824219 172.960938 135.675781 173.324219 135.5 C 173.695312 135.324219 174.113281 135.085938 174.53125 135.226562 C 175.164062 135.449219 175.59375 136.089844 176.242188 136.324219 C 177.023438 136.605469 177.804688 136.367188 178.375 135.785156 C 178.9375 135.214844 179.175781 134.484375 179.515625 133.777344 C 179.648438 133.5 179.804688 133.203125 180.046875 133.011719 C 180.34375 132.78125 180.679688 132.839844 181.027344 132.875 C 181.839844 132.953125 182.6875 132.859375 183.089844 132.039062 C 183.25 131.714844 183.296875 131.359375 183.332031 131.007812 C 183.367188 130.683594 183.390625 130.394531 183.664062 130.1875 C 184.320312 129.683594 185.335938 129.910156 186.097656 129.792969 C 186.988281 129.65625 187.90625 129.164062 188.199219 128.257812 C 188.355469 127.765625 188.25 127.289062 188.078125 126.8125 C 187.957031 126.492188 187.8125 126.21875 187.972656 125.902344 C 188.21875 125.433594 188.789062 125.101562 189.167969 124.742188 C 189.730469 124.21875 190.09375 123.65625 190.097656 122.871094 C 190.097656 122.5 189.675781 122.242188 189.34375 122.277344 " fill-opacity="1" fill-rule="nonzero"/><path fill="#46be75" d="M 204.957031 103.753906 C 204.84375 101.992188 204.707031 100.234375 204.542969 98.476562 C 204.539062 98.457031 204.535156 98.441406 204.535156 98.425781 C 204.683594 98.160156 204.6875 97.804688 204.394531 97.546875 C 200.109375 93.835938 194.378906 92.199219 188.785156 92.015625 C 185.496094 91.90625 182.210938 92.246094 178.980469 92.816406 C 175.753906 93.390625 172.515625 94.097656 169.359375 94.96875 C 167.800781 95.398438 166.214844 96.011719 165.023438 97.144531 C 164.019531 98.101562 163.34375 99.289062 163.207031 100.652344 C 163.070312 100.792969 163 101 163 101.214844 C 163.039062 107.554688 163.21875 113.898438 163.539062 120.230469 C 163.628906 122.023438 163.734375 123.8125 163.847656 125.605469 C 163.863281 125.851562 163.980469 126.015625 164.140625 126.105469 C 164.207031 126.414062 164.457031 126.679688 164.859375 126.648438 C 175.179688 125.738281 185.5 124.828125 195.820312 123.917969 C 198.761719 123.660156 201.699219 123.398438 204.640625 123.140625 C 205.136719 123.097656 205.296875 122.640625 205.183594 122.273438 C 205.417969 116.101562 205.347656 109.917969 204.957031 103.753906 " fill-opacity="1" fill-rule="nonzero"/><path fill="#ffffff" d="M 197.3125 99.371094 C 197.269531 99.15625 197.15625 99.003906 197.003906 98.910156 C 196.878906 98.660156 196.601562 98.53125 196.3125 98.535156 C 189.617188 98.621094 182.925781 98.996094 176.265625 99.667969 C 174.363281 99.859375 172.464844 100.078125 170.566406 100.316406 C 170.136719 100.371094 169.960938 100.722656 169.992188 101.054688 C 169.894531 101.148438 169.828125 101.28125 169.816406 101.460938 C 169.703125 103.023438 169.816406 104.582031 170.183594 106.109375 C 170.195312 106.164062 170.210938 106.21875 170.234375 106.269531 C 170.199219 106.429688 170.230469 106.609375 170.351562 106.785156 C 172.734375 110.089844 176.925781 111.042969 180.789062 110.941406 C 185.035156 110.824219 189.3125 109.835938 193.242188 108.25 C 195.015625 107.53125 197.246094 106.679688 197.746094 104.621094 C 197.796875 104.523438 197.828125 104.40625 197.824219 104.269531 C 197.785156 102.625 197.617188 100.988281 197.3125 99.371094 " fill-opacity="1" fill-rule="nonzero"/><path fill="#171717" d="M 182.515625 102.300781 C 180.273438 102.496094 178.03125 102.6875 175.785156 102.878906 C 174.917969 102.957031 175.074219 104.300781 175.945312 104.226562 C 178.1875 104.03125 180.429688 103.839844 182.671875 103.648438 C 183.546875 103.570312 183.382812 102.226562 182.515625 102.300781 " fill-opacity="1" fill-rule="nonzero"/><path fill="#171717" d="M 193.761719 101.5 C 191.820312 101.785156 189.871094 101.972656 187.917969 102.074219 C 187.042969 102.121094 187.207031 103.464844 188.074219 103.421875 C 190.03125 103.320312 191.980469 103.128906 193.917969 102.847656 C 194.78125 102.722656 194.625 101.375 193.761719 101.5 " fill-opacity="1" fill-rule="nonzero"/><path fill="#f4733c" d="M 179.195312 106.460938 C 178.980469 106.417969 178.769531 106.46875 178.582031 106.574219 C 178.386719 106.683594 178.261719 106.839844 178.160156 107.039062 C 178.152344 107.046875 178.148438 107.058594 178.148438 107.066406 C 178.074219 107.210938 178.039062 107.378906 178.058594 107.546875 C 178.105469 107.925781 178.421875 108.226562 178.800781 108.277344 C 179.082031 108.316406 179.355469 108.210938 179.542969 108.015625 C 179.683594 107.921875 179.804688 107.785156 179.867188 107.613281 C 180.070312 107.097656 179.714844 106.566406 179.195312 106.460938 " fill-opacity="1" fill-rule="nonzero"/><path fill="#f4733c" d="M 185.398438 106.792969 C 185.355469 106.449219 185.121094 106.171875 184.808594 106.035156 C 184.515625 105.902344 184.15625 105.964844 183.902344 106.15625 C 183.644531 106.351562 183.511719 106.675781 183.535156 106.996094 C 183.558594 107.335938 183.777344 107.609375 184.074219 107.757812 C 184.316406 107.875 184.589844 107.871094 184.839844 107.78125 C 184.957031 107.738281 185.085938 107.644531 185.164062 107.542969 C 185.199219 107.5 185.226562 107.453125 185.246094 107.410156 C 185.363281 107.226562 185.421875 107.003906 185.398438 106.792969 " fill-opacity="1" fill-rule="nonzero"/><path fill="#f4733c" d="M 191.0625 106.511719 C 191.039062 105.980469 190.507812 105.515625 189.972656 105.609375 C 189.878906 105.625 189.789062 105.660156 189.707031 105.707031 C 189.640625 105.734375 189.574219 105.769531 189.511719 105.816406 C 189.328125 105.949219 189.21875 106.140625 189.160156 106.351562 C 189.097656 106.570312 189.128906 106.777344 189.191406 106.992188 C 189.261719 107.226562 189.503906 107.375 189.730469 107.414062 C 189.980469 107.460938 190.226562 107.433594 190.472656 107.367188 C 190.667969 107.3125 190.835938 107.210938 190.941406 107.027344 C 191.035156 106.863281 191.070312 106.699219 191.0625 106.511719 " fill-opacity="1" fill-rule="nonzero"/><path fill="#9c222c" d="M 203.921875 111.753906 L 203.613281 110.21875 C 203.746094 109.964844 203.726562 109.648438 203.40625 109.441406 C 201.363281 108.117188 198.875 108.453125 196.738281 109.359375 C 194.480469 110.320312 192.402344 111.878906 189.890625 112.074219 C 189.347656 112.117188 189.03125 112.980469 189.554688 113.285156 C 193.949219 115.839844 198.734375 113.386719 203.304688 112.890625 C 203.761719 112.84375 203.933594 112.453125 203.871094 112.105469 C 203.925781 111.996094 203.945312 111.875 203.921875 111.753906 " fill-opacity="1" fill-rule="nonzero"/><path fill="#9c222c" d="M 177.882812 111.601562 C 175.273438 112.191406 172.683594 111.382812 170.1875 110.675781 C 168.054688 110.074219 164.851562 109.101562 163.40625 111.496094 C 163.273438 111.714844 163.234375 111.976562 163.332031 112.199219 C 163.371094 113.164062 163.40625 114.128906 163.445312 115.09375 C 163.457031 115.453125 163.859375 115.742188 164.195312 115.691406 C 166.96875 115.277344 169.738281 115.976562 172.519531 115.78125 C 174.8125 115.621094 177.238281 114.722656 178.5 112.6875 C 178.769531 112.253906 178.511719 111.460938 177.882812 111.601562 " fill-opacity="1" fill-rule="nonzero"/><path fill="#1e5135" d="M 191.898438 115.714844 C 191.886719 115.6875 191.875 115.660156 191.855469 115.632812 C 191.796875 115.316406 191.542969 115.035156 191.136719 115.066406 C 186.449219 115.40625 181.765625 115.746094 177.082031 116.085938 C 176.46875 116.128906 176.367188 116.800781 176.65625 117.179688 C 176.460938 118.363281 176.855469 119.535156 177.695312 120.425781 C 178.734375 121.523438 180.203125 121.988281 181.683594 122.085938 C 183.277344 122.195312 184.917969 122.035156 186.476562 121.707031 C 187.945312 121.398438 189.535156 120.964844 190.695312 119.957031 C 191.886719 118.921875 192.5625 117.230469 191.898438 115.714844 " fill-opacity="1" fill-rule="nonzero"/><path fill="#ffffff" d="M 176.023438 180.632812 C 174.945312 179.730469 173.875 178.824219 172.800781 177.917969 C 172.371094 177.554688 171.875 177.875 171.753906 178.300781 C 169.527344 179.578125 167.394531 181.007812 165.386719 182.613281 C 165.339844 182.648438 165.304688 182.6875 165.269531 182.726562 C 165.042969 182.933594 164.949219 183.273438 165.210938 183.582031 C 166.101562 184.617188 167.078125 185.570312 168.148438 186.417969 C 168.378906 186.597656 168.625 186.597656 168.824219 186.5 C 168.859375 186.488281 168.894531 186.476562 168.925781 186.460938 C 171.351562 185.160156 173.632812 183.625 175.726562 181.847656 C 176.195312 181.730469 176.511719 181.042969 176.023438 180.632812 " fill-opacity="1" fill-rule="nonzero"/><path fill="#c85160" d="M 118.238281 183.796875 C 116.792969 182.5625 115.785156 180.859375 115.410156 178.992188 C 115.285156 178.363281 114.519531 178.285156 114.195312 178.632812 C 105.457031 179.484375 97.039062 182.164062 88.734375 184.878906 C 84.535156 186.25 80.34375 187.632812 76.089844 188.808594 C 73.949219 189.40625 71.789062 189.9375 69.609375 190.394531 C 67.527344 190.828125 65.265625 191.398438 63.128906 191.042969 C 60.984375 190.6875 59.453125 189.09375 58.644531 187.148438 C 57.839844 185.210938 57.765625 183.082031 57.808594 181 C 57.839844 180.976562 57.875 180.953125 57.90625 180.925781 C 58.71875 180.175781 58.84375 178.96875 58.226562 178.042969 C 57.582031 177.089844 56.386719 176.757812 55.292969 176.785156 C 54.628906 176.800781 53.980469 176.960938 53.332031 177.097656 C 52.640625 177.246094 51.949219 177.367188 51.253906 177.464844 C 50 177.640625 48.734375 177.734375 47.464844 177.753906 C 47.253906 177.238281 46.300781 177.230469 46.148438 177.9375 C 44.855469 184.070312 43.511719 190.804688 46.265625 196.75 C 47.347656 199.09375 49.003906 201.261719 51.21875 202.640625 C 53.878906 204.300781 56.953125 204.523438 60.007812 204.171875 C 63.25 203.800781 66.476562 203.125 69.667969 202.457031 C 72.832031 201.796875 75.980469 201.054688 79.105469 200.230469 C 85.40625 198.574219 91.621094 196.585938 97.710938 194.277344 C 103.800781 191.96875 109.769531 189.339844 115.582031 186.402344 C 116.296875 186.035156 117.007812 185.671875 117.71875 185.300781 C 117.871094 185.222656 117.988281 185.109375 118.066406 184.972656 C 118.460938 184.777344 118.683594 184.175781 118.238281 183.796875 " fill-opacity="1" fill-rule="nonzero"/><path fill="#ebebe9" d="M 82.96875 123.472656 C 75.175781 124.796875 67.453125 126.480469 59.816406 128.511719 C 57.714844 129.074219 55.621094 129.664062 53.53125 130.277344 C 53.257812 130.308594 53 130.484375 52.933594 130.828125 C 51.671875 137.167969 50.351562 143.5 48.972656 149.816406 C 47.59375 156.136719 46.160156 162.441406 44.664062 168.730469 C 43.824219 172.269531 42.964844 175.800781 42.089844 179.332031 C 42.003906 179.691406 42.332031 180.042969 42.667969 180.09375 C 49.007812 181.066406 55.347656 182.035156 61.683594 183.011719 C 62.039062 183.0625 62.417969 182.792969 62.453125 182.433594 C 63.195312 174.792969 63.960938 167.128906 65.640625 159.625 C 67.238281 152.46875 69.691406 145.21875 73.890625 139.132812 C 76.046875 136.007812 78.75 133.179688 82.101562 131.328125 C 82.308594 131.214844 82.464844 131.035156 82.511719 130.824219 C 82.609375 130.730469 82.675781 130.59375 82.6875 130.410156 C 82.695312 130.34375 82.695312 130.277344 82.699219 130.207031 C 82.710938 130.050781 82.675781 129.914062 82.609375 129.804688 C 82.324219 128.179688 82.375 126.511719 82.816406 124.917969 C 82.824219 124.902344 82.824219 124.886719 82.832031 124.867188 C 82.929688 124.851562 83.027344 124.835938 83.125 124.816406 C 83.984375 124.671875 83.828125 123.328125 82.96875 123.472656 " fill-opacity="1" fill-rule="nonzero"/><path fill="#1e2349" d="M 122.398438 317.285156 C 121.890625 314.597656 121.378906 311.914062 120.867188 309.226562 C 120.863281 309.207031 120.859375 309.191406 120.855469 309.175781 C 120.941406 308.90625 120.882812 308.570312 120.632812 308.417969 L 115.597656 305.320312 C 115.289062 305.125 114.886719 305.128906 114.648438 305.441406 C 114.597656 305.507812 114.558594 305.585938 114.539062 305.667969 C 112.949219 307.222656 111.5 308.898438 110.222656 310.714844 C 110.125 310.851562 110.085938 310.996094 110.09375 311.132812 C 109.964844 311.382812 109.992188 311.691406 110.308594 311.894531 C 113.878906 314.171875 117.558594 316.269531 121.335938 318.179688 C 121.703125 318.363281 122.011719 318.183594 122.15625 317.902344 C 122.339844 317.785156 122.457031 317.574219 122.398438 317.285156 " fill-opacity="1" fill-rule="nonzero"/><path fill="#1e2349" d="M 84.753906 310.960938 C 84.695312 310.851562 84.613281 310.753906 84.523438 310.679688 C 84.460938 310.613281 84.378906 310.554688 84.277344 310.511719 C 82.757812 309.855469 81.304688 309.066406 79.925781 308.148438 C 79.59375 307.925781 79.246094 308.03125 79.027344 308.253906 C 78.84375 308.296875 78.675781 308.40625 78.566406 308.613281 C 77.328125 310.960938 76.34375 313.425781 75.628906 315.984375 C 75.566406 316.222656 75.585938 316.464844 75.71875 316.648438 C 75.671875 316.917969 75.785156 317.191406 76.128906 317.300781 C 79.734375 318.429688 83.382812 319.433594 87.0625 320.300781 C 87.390625 320.375 87.617188 320.222656 87.726562 319.996094 C 87.972656 319.839844 88.140625 319.542969 88.042969 319.1875 C 87.222656 316.34375 86.121094 313.589844 84.753906 310.960938 " fill-opacity="1" fill-rule="nonzero"/><path fill="#040606" d="M 154.113281 105.386719 C 154.046875 104.390625 154.015625 103.34375 153.804688 102.367188 C 153.71875 101.972656 153.554688 101.609375 153.21875 101.371094 C 152.839844 101.097656 152.367188 101.125 151.925781 101.140625 C 150.863281 101.179688 149.800781 101.222656 148.738281 101.261719 C 148.53125 101.273438 148.382812 101.351562 148.289062 101.46875 C 148.03125 101.511719 147.777344 101.589844 147.53125 101.707031 C 147.238281 101.84375 147.097656 102.09375 147.105469 102.414062 C 147.1875 104.804688 147.554688 107.160156 148.171875 109.472656 C 148.230469 109.679688 148.496094 109.886719 148.710938 109.894531 C 150.445312 109.933594 152.136719 109.699219 153.796875 109.175781 C 154.101562 109.078125 154.21875 108.757812 154.21875 108.46875 C 154.214844 107.441406 154.183594 106.414062 154.113281 105.386719 " fill-opacity="1" fill-rule="nonzero"/><path fill="#ace3e3" d="M 152.617188 50.558594 C 152.386719 49.757812 152.5 48.960938 152.4375 48.128906 C 152.402344 47.679688 152.238281 46.847656 151.648438 46.84375 C 150.902344 46.839844 150.660156 47.78125 150.617188 48.351562 C 150.566406 49.125 150.710938 49.898438 150.703125 50.671875 C 151.339844 50.628906 151.976562 50.589844 152.617188 50.558594 Z M 152.382812 80.613281 C 153.527344 80.511719 153.957031 79.203125 153.273438 78.351562 C 153.183594 78.242188 153.136719 78.132812 153.125 78.023438 C 152.457031 78.101562 151.789062 78.171875 151.117188 78.230469 C 151.148438 78.351562 151.136719 78.488281 151.070312 78.632812 C 150.632812 79.585938 151.296875 80.707031 152.382812 80.613281 Z M 159.273438 63.863281 C 158.941406 59.796875 158.421875 55.742188 157.71875 51.722656 C 153.195312 51.8125 148.675781 52.113281 144.179688 52.617188 C 144.289062 54.394531 144.394531 56.164062 144.496094 57.933594 C 144.640625 60.3125 144.78125 62.691406 144.921875 65.066406 C 149.722656 64.882812 154.511719 64.480469 159.273438 63.863281 Z M 159.707031 75.484375 C 159.71875 73.683594 159.695312 71.886719 159.636719 70.089844 C 159.578125 68.464844 159.492188 66.839844 159.378906 65.21875 C 154.632812 65.828125 149.863281 66.230469 145.078125 66.414062 C 145.050781 66.414062 145.027344 66.414062 145.003906 66.414062 C 145.21875 69.984375 145.429688 73.550781 145.644531 77.117188 C 150.375 77.132812 155.105469 76.570312 159.707031 75.484375 Z M 159.816406 56.324219 C 160.6875 62.652344 161.101562 69.046875 161.054688 75.433594 C 161.054688 75.710938 160.941406 75.976562 160.710938 76.105469 C 160.703125 76.453125 160.441406 76.691406 160.113281 76.769531 C 158.277344 77.210938 156.425781 77.566406 154.5625 77.835938 C 155.566406 79.480469 154.550781 81.761719 152.542969 81.957031 C 150.554688 82.15625 149.078125 80.164062 149.726562 78.335938 C 148.136719 78.4375 146.539062 78.476562 144.941406 78.457031 C 144.660156 78.453125 144.441406 78.195312 144.378906 77.929688 C 144.347656 77.859375 144.328125 77.78125 144.320312 77.691406 C 144.210938 75.832031 144.101562 73.976562 143.988281 72.117188 C 143.597656 65.585938 143.210938 59.054688 142.820312 52.519531 C 142.796875 52.179688 142.996094 51.949219 143.238281 51.84375 C 143.277344 51.574219 143.457031 51.335938 143.808594 51.296875 C 145.652344 51.085938 147.5 50.910156 149.347656 50.769531 C 149.425781 49.609375 149.089844 48.460938 149.433594 47.3125 C 149.714844 46.375 150.519531 45.550781 151.542969 45.5 C 152.554688 45.445312 153.335938 46.203125 153.617188 47.128906 C 153.933594 48.167969 153.574219 49.300781 153.957031 50.308594 C 153.984375 50.371094 153.996094 50.429688 154.003906 50.488281 C 155.324219 50.429688 156.644531 50.390625 157.96875 50.371094 C 157.976562 50.367188 157.980469 50.371094 157.988281 50.371094 C 158.351562 50.234375 158.859375 50.390625 158.949219 50.890625 C 159.273438 52.699219 159.5625 54.507812 159.816406 56.324219 " fill-opacity="1" fill-rule="nonzero"/><path fill="#f4733c" d="M 159.636719 70.089844 C 159.695312 71.886719 159.71875 73.683594 159.707031 75.484375 C 155.105469 76.570312 150.375 77.132812 145.644531 77.117188 C 145.429688 73.550781 145.21875 69.984375 145.003906 66.414062 C 145.027344 66.414062 145.050781 66.414062 145.078125 66.414062 C 149.863281 66.230469 154.632812 65.828125 159.378906 65.21875 C 159.492188 66.839844 159.578125 68.464844 159.636719 70.089844 " fill-opacity="1" fill-rule="nonzero"/><path fill="#ffffff" d="M 157.71875 51.722656 C 158.421875 55.742188 158.941406 59.796875 159.273438 63.863281 C 154.511719 64.480469 149.722656 64.882812 144.921875 65.066406 C 144.78125 62.691406 144.640625 60.3125 144.496094 57.933594 C 144.394531 56.164062 144.289062 54.394531 144.179688 52.617188 C 148.675781 52.113281 153.195312 51.8125 157.71875 51.722656 " fill-opacity="1" fill-rule="nonzero"/><path fill="#ace3e3" d="M 213.800781 48.355469 C 213.574219 47.554688 213.6875 46.757812 213.621094 45.925781 C 213.589844 45.480469 213.421875 44.644531 212.835938 44.644531 C 212.089844 44.636719 211.84375 45.578125 211.804688 46.148438 C 211.75 46.921875 211.894531 47.695312 211.890625 48.46875 C 212.523438 48.429688 213.164062 48.390625 213.800781 48.355469 Z M 213.570312 78.410156 C 214.710938 78.3125 215.144531 77 214.457031 76.152344 C 214.371094 76.039062 214.324219 75.925781 214.3125 75.816406 C 213.644531 75.898438 212.976562 75.96875 212.304688 76.023438 C 212.335938 76.148438 212.324219 76.285156 212.257812 76.429688 C 211.820312 77.382812 212.484375 78.507812 213.570312 78.410156 Z M 220.460938 61.664062 C 220.128906 57.59375 219.609375 53.542969 218.90625 49.519531 C 214.382812 49.609375 209.863281 49.910156 205.367188 50.417969 C 205.472656 52.1875 205.578125 53.960938 205.683594 55.734375 C 205.828125 58.109375 205.96875 60.488281 206.109375 62.867188 C 210.910156 62.679688 215.695312 62.277344 220.460938 61.664062 Z M 220.894531 73.277344 C 220.90625 71.480469 220.882812 69.683594 220.824219 67.886719 C 220.765625 66.261719 220.679688 64.640625 220.566406 63.015625 C 215.816406 63.625 211.046875 64.023438 206.265625 64.210938 C 206.238281 64.214844 206.214844 64.214844 206.191406 64.210938 C 206.40625 67.777344 206.617188 71.347656 206.828125 74.917969 C 211.5625 74.929688 216.292969 74.367188 220.894531 73.277344 Z M 221 54.121094 C 221.871094 60.453125 222.285156 66.839844 222.242188 73.230469 C 222.238281 73.507812 222.128906 73.777344 221.894531 73.90625 C 221.890625 74.25 221.628906 74.488281 221.300781 74.566406 C 219.464844 75.007812 217.613281 75.363281 215.75 75.628906 C 216.753906 77.277344 215.738281 79.558594 213.726562 79.757812 C 211.742188 79.953125 210.265625 77.964844 210.914062 76.132812 C 209.320312 76.234375 207.726562 76.277344 206.128906 76.253906 C 205.847656 76.25 205.625 75.996094 205.566406 75.730469 C 205.535156 75.660156 205.515625 75.582031 205.507812 75.488281 C 205.398438 73.628906 205.289062 71.773438 205.175781 69.914062 C 204.785156 63.382812 204.394531 56.847656 204.003906 50.316406 C 203.984375 49.976562 204.179688 49.746094 204.425781 49.640625 C 204.464844 49.375 204.644531 49.132812 204.996094 49.09375 C 206.839844 48.882812 208.6875 48.707031 210.535156 48.566406 C 210.609375 47.40625 210.277344 46.257812 210.621094 45.109375 C 210.902344 44.171875 211.707031 43.351562 212.726562 43.296875 C 213.738281 43.242188 214.523438 44.003906 214.804688 44.925781 C 215.121094 45.964844 214.757812 47.097656 215.144531 48.105469 C 215.171875 48.167969 215.179688 48.230469 215.191406 48.289062 C 216.511719 48.230469 217.832031 48.1875 219.15625 48.164062 C 219.164062 48.164062 219.167969 48.164062 219.175781 48.164062 C 219.539062 48.03125 220.042969 48.183594 220.132812 48.691406 C 220.457031 50.496094 220.75 52.304688 221 54.121094 " fill-opacity="1" fill-rule="nonzero"/><path fill="#4f8ed2" d="M 220.824219 67.886719 C 220.882812 69.683594 220.90625 71.480469 220.894531 73.277344 C 216.292969 74.367188 211.5625 74.929688 206.828125 74.917969 C 206.617188 71.347656 206.40625 67.777344 206.191406 64.210938 C 206.214844 64.214844 206.238281 64.214844 206.265625 64.210938 C 211.046875 64.023438 215.816406 63.625 220.566406 63.015625 C 220.679688 64.640625 220.765625 66.261719 220.824219 67.886719 " fill-opacity="1" fill-rule="nonzero"/><path fill="#ffffff" d="M 218.90625 49.519531 C 219.609375 53.542969 220.128906 57.59375 220.460938 61.664062 C 215.695312 62.277344 210.910156 62.679688 206.109375 62.867188 C 205.96875 60.488281 205.828125 58.109375 205.683594 55.734375 C 205.578125 53.960938 205.472656 52.1875 205.367188 50.417969 C 209.863281 49.910156 214.382812 49.609375 218.90625 49.519531 " fill-opacity="1" fill-rule="nonzero"/></svg>