<svg xmlns="http://www.w3.org/2000/svg" xmlns:xlink="http://www.w3.org/1999/xlink" width="500" zoomAndPan="magnify" viewBox="0 0 375 374.999991" height="500" preserveAspectRatio="xMidYMid meet" version="1.0"><defs><clipPath id="bd4c7bddc8"><path d="M 83.121094 69.765625 L 291.621094 69.765625 L 291.621094 278.265625 L 83.121094 278.265625 Z M 83.121094 69.765625 " clip-rule="nonzero"/></clipPath></defs><g clip-path="url(#bd4c7bddc8)"><path fill="#59c7b6" d="M 187.371094 69.765625 C 244.945312 69.765625 291.617188 116.441406 291.617188 174.015625 C 291.617188 231.589844 244.945312 278.265625 187.371094 278.265625 C 129.792969 278.265625 83.121094 231.589844 83.121094 174.015625 C 83.121094 116.441406 129.792969 69.765625 187.371094 69.765625 " fill-opacity="1" fill-rule="nonzero"/></g><path fill="#f03f5c" d="M 166.992188 100.332031 C 181.960938 100.332031 194.097656 109 194.097656 124.527344 C 194.097656 109 206.234375 100.332031 221.203125 100.332031 C 236.171875 100.332031 248.308594 112.925781 248.308594 128.453125 C 248.308594 148.554688 207.589844 185.679688 194.097656 201.078125 C 180.601562 185.679688 139.886719 148.554688 139.886719 128.453125 C 139.886719 112.925781 152.023438 100.332031 166.992188 100.332031 " fill-opacity="1" fill-rule="nonzero"/><path fill="#ffffff" d="M 190.777344 139.867188 C 190.941406 140.15625 190.949219 140.515625 190.769531 140.824219 M 130.40625 146.878906 C 129.878906 146.878906 129.453125 146.453125 129.453125 145.929688 C 129.453125 145.402344 129.878906 144.976562 130.40625 144.976562 L 163.921875 144.976562 L 169.996094 130.257812 C 170.195312 129.773438 170.75 129.542969 171.234375 129.742188 C 171.480469 129.84375 171.664062 130.039062 171.753906 130.269531 L 171.757812 130.269531 L 181.007812 153.621094 L 189.136719 139.855469 C 189.402344 139.40625 189.984375 139.257812 190.433594 139.523438 C 190.582031 139.609375 190.699219 139.730469 190.777344 139.871094 L 195.558594 147.195312 L 202.386719 139.933594 C 202.746094 139.550781 203.34375 139.535156 203.726562 139.894531 C 203.800781 139.960938 203.859375 140.035156 203.90625 140.121094 L 206.632812 144.984375 L 254.664062 144.984375 C 255.1875 144.984375 255.613281 145.410156 255.613281 145.933594 C 255.613281 146.460938 255.1875 146.886719 254.664062 146.886719 L 206.078125 146.886719 C 205.746094 146.886719 205.421875 146.710938 205.25 146.398438 L 202.882812 142.175781 L 196.113281 149.375 L 196.109375 149.371094 C 196.058594 149.425781 196.003906 149.476562 195.9375 149.519531 C 195.5 149.804688 194.910156 149.679688 194.625 149.238281 L 189.992188 142.136719 L 181.671875 156.226562 C 181.566406 156.414062 181.402344 156.570312 181.1875 156.65625 C 180.699219 156.847656 180.144531 156.609375 179.953125 156.121094 L 170.851562 133.148438 L 165.457031 146.21875 C 165.335938 146.601562 164.980469 146.878906 164.554688 146.878906 L 130.40625 146.878906 " fill-opacity="1" fill-rule="nonzero"/><path fill="#fccd86" d="M 186.386719 193.335938 C 198.8125 196.941406 221.730469 200.714844 221.730469 200.714844 C 221.730469 200.714844 220.4375 208.949219 213.5 210.539062 C 206.5625 212.125 188.003906 208.484375 188.003906 208.484375 C 188.003906 208.484375 184.621094 211.808594 190.589844 212.917969 C 196.558594 214.027344 225.773438 213.398438 225.773438 213.398438 C 225.773438 213.398438 255.769531 199.1875 260.929688 197.28125 C 266.097656 195.378906 269.160156 200.132812 269.160156 200.132812 C 269.160156 200.132812 234.644531 227.460938 231.417969 229.839844 C 228.1875 232.21875 174.476562 236.84375 174.476562 236.84375 L 158.5625 238.464844 L 152.273438 245.195312 L 149.445312 249.289062 L 120.742188 225.691406 L 143.640625 209.429688 C 152.667969 194.285156 173.960938 189.730469 186.390625 193.335938 L 186.386719 193.335938 " fill-opacity="1" fill-rule="nonzero"/><path fill="#eeb367" d="M 264.464844 203.847656 C 254.914062 211.402344 233.902344 228.007812 231.417969 229.839844 C 228.1875 232.214844 174.476562 236.84375 174.476562 236.84375 L 158.5625 238.460938 L 152.269531 245.191406 L 149.445312 249.285156 L 146.820312 247.128906 C 153.394531 240.730469 158.160156 236.574219 156.992188 237.230469 C 155.824219 237.882812 225.082031 231.332031 230.386719 228.585938 C 235.691406 225.835938 260.917969 205.507812 262.027344 204.121094 C 263.132812 202.738281 264.464844 203.847656 264.464844 203.847656 " fill-opacity="1" fill-rule="nonzero"/><path fill="#ffffff" d="M 212.460938 200.066406 L 211.824219 203.132812 L 218.96875 203.554688 C 219.492188 202.960938 219.871094 202.25 219.636719 201.058594 L 212.460938 200.066406 " fill-opacity="1" fill-rule="nonzero"/><path fill="#ffffff" d="M 263.671875 202.386719 L 264.550781 203.3125 L 268.382812 200.574219 C 268.636719 200.027344 267.441406 199.859375 267.441406 199.859375 L 263.671875 202.386719 " fill-opacity="1" fill-rule="nonzero"/><path fill="#ffffff" d="M 123.039062 215.996094 L 151.492188 252.097656 L 145.21875 258.621094 L 114.914062 221.082031 L 123.039062 215.996094 " fill-opacity="1" fill-rule="nonzero"/><path fill="#2e7887" d="M 101.027344 232.449219 L 114.910156 221.082031 L 148.773438 261.921875 L 142.320312 268.050781 C 125.601562 260.027344 111.351562 247.675781 101.027344 232.449219 " fill-opacity="1" fill-rule="nonzero"/></svg>