<svg xmlns="http://www.w3.org/2000/svg" xmlns:xlink="http://www.w3.org/1999/xlink" width="500" zoomAndPan="magnify" viewBox="0 0 375 374.999991" height="500" preserveAspectRatio="xMidYMid meet" version="1.0"><defs><clipPath id="9741081a32"><path d="M 31 53 L 351 53 L 351 371.25 L 31 371.25 Z M 31 53 " clip-rule="nonzero"/></clipPath><clipPath id="f6955487af"><path d="M 266 113 L 366.824219 113 L 366.824219 216 L 266 216 Z M 266 113 " clip-rule="nonzero"/></clipPath><clipPath id="ec05e69706"><path d="M 364 173 L 366.824219 173 L 366.824219 187 L 364 187 Z M 364 173 " clip-rule="nonzero"/></clipPath><clipPath id="57038646fd"><path d="M 326 196 L 366.824219 196 L 366.824219 230 L 326 230 Z M 326 196 " clip-rule="nonzero"/></clipPath><clipPath id="269339bb4b"><path d="M 8.324219 110 L 107 110 L 107 307 L 8.324219 307 Z M 8.324219 110 " clip-rule="nonzero"/></clipPath></defs><path fill="#fcd3da" d="M 338.386719 212.261719 C 338.386719 293.597656 272.359375 359.535156 190.910156 359.535156 C 109.464844 359.535156 43.441406 293.597656 43.441406 212.261719 C 43.441406 130.925781 109.464844 64.984375 190.910156 64.984375 C 272.359375 64.984375 338.386719 130.925781 338.386719 212.261719 " fill-opacity="1" fill-rule="nonzero"/><g clip-path="url(#9741081a32)"><path fill="#fcd3da" d="M 190.914062 60.296875 C 107.003906 60.296875 38.742188 128.464844 38.742188 212.261719 C 38.742188 296.054688 107.003906 364.222656 190.914062 364.222656 C 274.820312 364.222656 343.082031 296.054688 343.082031 212.261719 C 343.082031 128.464844 274.820312 60.296875 190.914062 60.296875 Z M 190.914062 371.261719 C 103.121094 371.261719 31.695312 299.933594 31.695312 212.261719 C 31.695312 124.582031 103.121094 53.253906 190.914062 53.253906 C 278.707031 53.253906 350.128906 124.582031 350.128906 212.261719 C 350.128906 299.933594 278.707031 371.261719 190.914062 371.261719 " fill-opacity="1" fill-rule="nonzero"/></g><path fill="#732826" d="M 256.761719 211.046875 C 268.007812 216.917969 276.1875 245.371094 271.339844 263.191406 C 263.613281 291.578125 243.785156 301.828125 218.558594 308.117188 C 193.332031 314.40625 133.722656 308.117188 126.863281 300.480469 C 120.003906 292.839844 120.003906 283.859375 120.003906 283.859375 C 120.003906 283.859375 106.03125 288.957031 96.597656 274.871094 C 87.164062 260.789062 78.238281 226.808594 88.550781 208.835938 C 98.859375 190.859375 122.40625 144.136719 160.117188 136.949219 C 197.828125 129.761719 234.269531 128.410156 247.765625 158.0625 C 261.261719 187.714844 256.761719 211.046875 256.761719 211.046875 " fill-opacity="1" fill-rule="nonzero"/><path fill="#f89b83" d="M 197.683594 263.054688 L 223.234375 280.722656 L 186.265625 305.566406 L 152.085938 279.207031 L 156.984375 275.9375 L 175.203125 263.652344 L 174.601562 246.269531 C 174.601562 246.269531 160.753906 243.453125 152.261719 237.890625 C 147.539062 234.796875 144.824219 228.882812 143.242188 223.746094 L 143.0625 223.113281 L 143.027344 222.972656 C 141.65625 218.183594 141.300781 214.210938 141.300781 214.210938 C 141.300781 214.210938 129.003906 215.125 127.488281 207.628906 C 126.007812 200.132812 127.207031 196.859375 130.519531 194.148438 C 133.796875 191.476562 138.90625 192.667969 138.90625 192.667969 L 139.1875 168.703125 C 139.1875 168.703125 140.84375 134.847656 160.121094 132.457031 C 166.429688 131.683594 172.839844 130.589844 179.042969 129.816406 L 213.824219 136.539062 C 223.832031 147.625 224.359375 171.769531 224.359375 171.769531 C 224.359375 171.769531 224.640625 176.589844 224.785156 183.589844 C 225.101562 199.390625 224.75 226.492188 218.828125 234.585938 C 211.957031 243.945312 197.683594 245.351562 197.683594 245.351562 L 197.683594 263.054688 " fill-opacity="1" fill-rule="nonzero"/><path fill="#cd4e3f" d="M 224.785156 183.589844 C 215.128906 175.320312 196.734375 170.148438 184.785156 168.386719 C 170.832031 166.382812 161 158.078125 161 158.078125 C 161 158.078125 159.414062 169.019531 154.796875 178.875 C 149.691406 189.75 138.90625 192.667969 138.90625 192.667969 L 139.1875 168.703125 C 139.1875 168.703125 140.84375 134.847656 160.121094 132.457031 C 166.429688 131.683594 172.839844 130.589844 179.042969 129.816406 L 213.824219 136.539062 C 223.832031 147.625 224.359375 171.769531 224.359375 171.769531 C 224.359375 171.769531 224.640625 176.589844 224.785156 183.589844 " fill-opacity="1" fill-rule="nonzero"/><path fill="#cd4e3f" d="M 185.90625 215.542969 C 185.203125 215.542969 184.617188 214.980469 184.589844 214.269531 C 184.5625 213.542969 185.128906 212.929688 185.859375 212.902344 L 188.898438 212.789062 C 190.277344 212.738281 192.640625 211.601562 194.214844 209.789062 C 194.941406 208.949219 195.773438 207.644531 195.617188 206.160156 C 195.460938 204.679688 194.234375 202.105469 193.042969 199.617188 C 190.914062 195.15625 188.71875 190.554688 189.636719 187.246094 C 190.527344 184.058594 191.785156 180.535156 191.839844 180.386719 C 192.085938 179.703125 192.839844 179.339844 193.527344 179.585938 C 194.214844 179.835938 194.574219 180.589844 194.328125 181.273438 C 194.316406 181.3125 193.046875 184.859375 192.1875 187.957031 C 191.527344 190.308594 193.691406 194.839844 195.429688 198.480469 C 196.832031 201.414062 198.042969 203.949219 198.242188 205.886719 C 198.449219 207.804688 197.742188 209.75 196.210938 211.519531 C 194.320312 213.695312 191.285156 215.34375 188.996094 215.429688 L 185.957031 215.542969 C 185.941406 215.542969 185.925781 215.542969 185.90625 215.542969 " fill-opacity="1" fill-rule="nonzero"/><path fill="#732826" d="M 191.984375 183.222656 C 191.984375 183.222656 190.632812 180.078125 191.984375 179.179688 C 193.332031 178.28125 211.214844 179.5625 211.214844 180.300781 C 211.214844 181.039062 191.984375 183.222656 191.984375 183.222656 " fill-opacity="1" fill-rule="nonzero"/><path fill="#732826" d="M 180.175781 183.222656 C 180.175781 183.222656 180.738281 179.503906 179.273438 178.949219 C 177.8125 178.394531 161.390625 180.632812 161.390625 181.085938 C 161.390625 181.539062 180.175781 183.222656 180.175781 183.222656 " fill-opacity="1" fill-rule="nonzero"/><path fill="#732826" d="M 172.300781 195.046875 C 172.300781 197.636719 171.015625 199.730469 169.433594 199.730469 C 167.851562 199.730469 166.566406 197.636719 166.566406 195.046875 C 166.566406 192.457031 167.851562 190.359375 169.433594 190.359375 C 171.015625 190.359375 172.300781 192.457031 172.300781 195.046875 " fill-opacity="1" fill-rule="nonzero"/><path fill="#732826" d="M 205.367188 195.046875 C 205.367188 197.636719 204.082031 199.730469 202.5 199.730469 C 200.914062 199.730469 199.628906 197.636719 199.628906 195.046875 C 199.628906 192.457031 200.914062 190.359375 202.5 190.359375 C 204.082031 190.359375 205.367188 192.457031 205.367188 195.046875 " fill-opacity="1" fill-rule="nonzero"/><path fill="#cd4e3f" d="M 184.625 228.117188 C 183.699219 228.117188 182.507812 228.027344 181.078125 227.734375 C 177.167969 226.929688 175.113281 222.339844 175.03125 222.144531 C 174.738281 221.476562 175.039062 220.699219 175.707031 220.410156 C 176.371094 220.117188 177.152344 220.417969 177.449219 221.082031 C 177.886719 222.066406 179.484375 224.707031 181.609375 225.148438 C 184.496094 225.742188 186.191406 225.339844 186.203125 225.339844 C 186.921875 225.15625 187.628906 225.589844 187.804688 226.292969 C 187.984375 226.996094 187.570312 227.710938 186.867188 227.894531 C 186.734375 227.929688 185.957031 228.117188 184.625 228.117188 " fill-opacity="1" fill-rule="nonzero"/><path fill="#cd4e3f" d="M 142.835938 206.105469 C 142.453125 206.105469 142.074219 205.9375 141.8125 205.621094 C 139.785156 203.15625 136.808594 203.691406 136.683594 203.722656 C 135.972656 203.84375 135.273438 203.394531 135.132812 202.683594 C 134.992188 201.976562 135.445312 201.285156 136.160156 201.136719 C 136.347656 201.09375 140.800781 200.230469 143.855469 203.945312 C 144.320312 204.511719 144.238281 205.339844 143.671875 205.804688 C 143.429688 206.003906 143.132812 206.105469 142.835938 206.105469 " fill-opacity="1" fill-rule="nonzero"/><path fill="#a33e36" d="M 272.507812 205.234375 C 266.414062 212.011719 253.644531 214.675781 245.292969 208.835938 C 236.976562 202.992188 237.21875 175.390625 237.21875 175.390625 C 237.21875 175.390625 234.015625 177.152344 224.714844 176.625 C 221.046875 176.445312 217.171875 175.707031 213.367188 174.019531 C 199.867188 167.929688 199.625 159.871094 199.625 159.871094 C 199.625 159.871094 187.253906 163.917969 175.097656 161.878906 C 162.972656 159.871094 158.496094 150.582031 158.496094 150.582031 C 158.496094 150.582031 157.054688 160.222656 151.34375 175.742188 C 145.636719 191.261719 138.90625 192.671875 138.90625 192.671875 C 138.90625 192.671875 133.796875 191.476562 130.519531 194.148438 C 127.207031 196.859375 126.007812 200.132812 127.488281 207.625 C 128.898438 214.59375 139.574219 214.3125 141.125 214.210938 C 140.949219 225.644531 140.476562 244.800781 136.425781 254.65625 C 132.230469 264.859375 113.710938 273.226562 100.25 266.644531 C 86.785156 260.027344 81.078125 256.015625 80.65625 214.210938 C 80.195312 172.433594 114.589844 160.292969 114.589844 160.292969 C 114.589844 160.292969 110.574219 149.3125 122.238281 135.835938 C 133.9375 122.355469 148.808594 127.285156 148.808594 127.285156 C 148.808594 127.285156 151.484375 104.300781 186.515625 101.664062 C 199.484375 100.714844 201.773438 110.003906 201.773438 110.003906 C 201.773438 110.003906 218.859375 101.570312 241.316406 112.101562 C 254.066406 118.078125 255.5625 130.398438 255.5625 130.398438 C 255.5625 130.398438 278.808594 129.816406 281.503906 158.964844 C 283.25 177.804688 277.457031 199.734375 272.507812 205.234375 " fill-opacity="1" fill-rule="nonzero"/><path fill="#fdfbfc" d="M 260.199219 342.308594 C 247.441406 349.101562 233.59375 354.0625 218.96875 356.878906 C 217.773438 357.125 216.609375 357.335938 215.410156 357.511719 C 212.589844 358.003906 209.769531 358.390625 206.917969 358.671875 C 201.667969 359.269531 196.3125 359.550781 190.917969 359.550781 C 184.71875 359.550781 178.621094 359.164062 172.628906 358.425781 C 171.75 358.320312 170.867188 358.214844 169.984375 358.074219 C 166.710938 357.617188 163.464844 357.050781 160.296875 356.347656 C 144.191406 352.972656 129.039062 346.917969 115.332031 338.753906 C 115.507812 325.449219 116.808594 311.867188 120.898438 305.566406 C 126.890625 296.347656 143.558594 284.523438 154.65625 277.273438 C 160.824219 273.226562 165.300781 270.621094 165.300781 270.621094 L 163.785156 290.574219 L 166.144531 291.5625 L 168.292969 292.476562 L 191.445312 302.117188 L 208.1875 284.628906 L 210.371094 282.339844 L 216.429688 276.003906 C 216.429688 276.003906 218.371094 276.851562 221.296875 278.363281 C 227.851562 281.707031 239.410156 288.253906 246.386719 295.785156 C 253.996094 304.089844 258.261719 322.039062 260.199219 342.308594 " fill-opacity="1" fill-rule="nonzero"/><path fill="#cd4e3f" d="M 197.683594 245.351562 L 181.367188 252.109375 L 181.367188 266.785156 L 157.054688 276.214844 L 156.984375 275.9375 L 175.203125 263.652344 L 174.601562 246.269531 C 174.601562 246.269531 160.753906 243.453125 152.261719 237.890625 C 147.539062 234.796875 144.824219 228.882812 143.242188 223.746094 L 143.0625 223.113281 C 143.523438 224.378906 147.539062 234.726562 158.710938 239.054688 C 171.605469 244.050781 177.28125 245.8125 184.46875 246.269531 C 191.695312 246.726562 197.683594 245.351562 197.683594 245.351562 " fill-opacity="1" fill-rule="nonzero"/><path fill="#f35b60" d="M 215.410156 357.511719 C 212.589844 358.003906 209.769531 358.390625 206.917969 358.671875 C 201.667969 359.269531 196.3125 359.550781 190.917969 359.550781 C 184.71875 359.550781 178.621094 359.164062 172.628906 358.425781 C 171.75 358.320312 170.867188 358.214844 169.984375 358.074219 L 166.144531 291.5625 L 165.300781 276.8125 L 167.273438 277.976562 L 188.699219 290.574219 L 208.328125 277.90625 L 209.980469 276.8125 L 210.371094 282.339844 L 215.410156 357.511719 " fill-opacity="1" fill-rule="nonzero"/><path fill="#df322c" d="M 219.003906 312.183594 L 226.15625 332.910156 L 218.96875 356.878906 C 217.773438 357.125 216.609375 357.335938 215.410156 357.511719 C 212.589844 358.003906 209.769531 358.390625 206.917969 358.671875 C 207.234375 336.605469 207.691406 304.054688 208.1875 284.628906 C 208.222656 282.164062 208.292969 279.910156 208.328125 277.90625 C 208.503906 272.03125 208.644531 268.367188 208.785156 268.226562 C 209.703125 267.207031 220.238281 273.71875 220.484375 275.511719 C 220.519531 275.832031 220.835938 276.851562 221.296875 278.363281 C 223.371094 285.261719 228.835938 301.871094 228.835938 301.871094 L 219.003906 312.183594 " fill-opacity="1" fill-rule="nonzero"/><path fill="#df322c" d="M 172.628906 358.425781 C 171.75 358.320312 170.867188 358.214844 169.984375 358.074219 C 166.710938 357.617188 163.464844 357.050781 160.296875 356.347656 L 152.121094 333.265625 L 158.253906 312.253906 L 147.925781 302.433594 C 147.925781 302.433594 153.246094 283.148438 154.65625 277.273438 C 154.832031 276.464844 154.941406 275.898438 154.972656 275.6875 C 155.152344 273.859375 165.335938 266.855469 166.320312 267.839844 C 166.460938 267.980469 166.816406 271.820312 167.273438 277.976562 C 167.589844 281.953125 167.941406 286.914062 168.292969 292.476562 C 169.667969 312.078125 171.394531 339.28125 172.628906 358.425781 " fill-opacity="1" fill-rule="nonzero"/><path fill="#fdfbfc" d="M 347.878906 346.441406 L 203.78125 346.441406 C 203.519531 346.441406 203.308594 346.230469 203.308594 345.972656 L 203.308594 315.488281 C 203.308594 315.226562 203.519531 315.015625 203.78125 315.015625 L 347.878906 315.015625 C 348.140625 315.015625 348.351562 315.226562 348.351562 315.488281 L 348.351562 345.972656 C 348.351562 346.230469 348.140625 346.441406 347.878906 346.441406 " fill-opacity="1" fill-rule="nonzero"/><path fill="#8f979d" d="M 223.246094 331.253906 C 223.246094 333.132812 221.71875 334.660156 219.839844 334.660156 C 217.953125 334.660156 216.429688 333.132812 216.429688 331.253906 C 216.429688 329.375 217.953125 327.847656 219.839844 327.847656 C 221.71875 327.847656 223.246094 329.375 223.246094 331.253906 " fill-opacity="1" fill-rule="nonzero"/><path fill="#8f979d" d="M 245.738281 331.253906 C 245.738281 333.132812 244.210938 334.660156 242.332031 334.660156 C 240.449219 334.660156 238.921875 333.132812 238.921875 331.253906 C 238.921875 329.375 240.449219 327.847656 242.332031 327.847656 C 244.210938 327.847656 245.738281 329.375 245.738281 331.253906 " fill-opacity="1" fill-rule="nonzero"/><path fill="#8f979d" d="M 268.234375 331.253906 C 268.234375 333.132812 266.707031 334.660156 264.824219 334.660156 C 262.941406 334.660156 261.414062 333.132812 261.414062 331.253906 C 261.414062 329.375 262.941406 327.847656 264.824219 327.847656 C 266.707031 327.847656 268.234375 329.375 268.234375 331.253906 " fill-opacity="1" fill-rule="nonzero"/><path fill="#8f979d" d="M 290.726562 331.253906 C 290.726562 333.132812 289.199219 334.660156 287.316406 334.660156 C 285.4375 334.660156 283.90625 333.132812 283.90625 331.253906 C 283.90625 329.375 285.4375 327.847656 287.316406 327.847656 C 289.199219 327.847656 290.726562 329.375 290.726562 331.253906 " fill-opacity="1" fill-rule="nonzero"/><path fill="#8f979d" d="M 313.21875 331.253906 C 313.21875 333.132812 311.695312 334.660156 309.8125 334.660156 C 307.929688 334.660156 306.402344 333.132812 306.402344 331.253906 C 306.402344 329.375 307.929688 327.847656 309.8125 327.847656 C 311.695312 327.847656 313.21875 329.375 313.21875 331.253906 " fill-opacity="1" fill-rule="nonzero"/><path fill="#8f979d" d="M 335.710938 331.253906 C 335.710938 333.132812 334.1875 334.660156 332.300781 334.660156 C 330.421875 334.660156 328.894531 333.132812 328.894531 331.253906 C 328.894531 329.375 330.421875 327.847656 332.300781 327.847656 C 334.1875 327.847656 335.710938 329.375 335.710938 331.253906 " fill-opacity="1" fill-rule="nonzero"/><path fill="#8f979d" d="M 312.777344 347.761719 L 305.582031 347.761719 C 304.847656 347.761719 304.257812 347.171875 304.257812 346.441406 C 304.257812 345.714844 304.847656 345.125 305.582031 345.125 L 312.777344 345.125 C 313.507812 345.125 314.097656 345.714844 314.097656 346.441406 C 314.097656 347.171875 313.507812 347.761719 312.777344 347.761719 " fill-opacity="1" fill-rule="nonzero"/><path fill="#8f979d" d="M 294.957031 347.761719 L 211.019531 347.761719 C 206.039062 347.761719 201.988281 343.714844 201.988281 338.742188 L 201.988281 322.714844 C 201.988281 317.742188 206.039062 313.695312 211.019531 313.695312 L 340.640625 313.695312 C 345.621094 313.695312 349.671875 317.742188 349.671875 322.714844 L 349.671875 336.242188 C 349.671875 336.972656 349.082031 337.5625 348.351562 337.5625 C 347.621094 337.5625 347.03125 336.972656 347.03125 336.242188 L 347.03125 322.714844 C 347.03125 319.199219 344.164062 316.335938 340.640625 316.335938 L 211.019531 316.335938 C 207.496094 316.335938 204.628906 319.199219 204.628906 322.714844 L 204.628906 338.742188 C 204.628906 342.261719 207.496094 345.125 211.019531 345.125 L 294.957031 345.125 C 295.683594 345.125 296.277344 345.714844 296.277344 346.441406 C 296.277344 347.171875 295.683594 347.761719 294.957031 347.761719 " fill-opacity="1" fill-rule="nonzero"/><path fill="#fdfbfc" d="M 357.722656 115.035156 L 283.753906 115.035156 C 283.742188 115.035156 283.726562 115.042969 283.710938 115.042969 L 267.648438 115.113281 C 267.648438 115.113281 271.386719 116.703125 273.574219 119.734375 C 275.777344 122.789062 276.042969 128.335938 276.042969 128.335938 L 276.042969 220.824219 C 276.042969 225.074219 279.496094 228.523438 283.753906 228.523438 L 357.722656 228.523438 C 361.980469 228.523438 365.433594 225.074219 365.433594 220.824219 L 365.433594 122.738281 C 365.433594 118.484375 361.980469 115.035156 357.722656 115.035156 " fill-opacity="1" fill-rule="nonzero"/><path fill="#df322c" d="M 339.597656 147.582031 L 319.703125 147.582031 C 318.976562 147.582031 318.382812 146.992188 318.382812 146.261719 C 318.382812 145.53125 318.976562 144.945312 319.703125 144.945312 L 339.597656 144.945312 C 340.328125 144.945312 340.917969 145.53125 340.917969 146.261719 C 340.917969 146.992188 340.328125 147.582031 339.597656 147.582031 " fill-opacity="1" fill-rule="nonzero"/><path fill="#9adddc" d="M 320.734375 147.582031 L 302.433594 147.582031 C 301.703125 147.582031 301.109375 146.992188 301.109375 146.261719 C 301.109375 145.53125 301.703125 144.941406 302.433594 144.941406 L 320.734375 144.941406 C 321.464844 144.941406 322.054688 145.53125 322.054688 146.261719 C 322.054688 146.992188 321.464844 147.582031 320.734375 147.582031 " fill-opacity="1" fill-rule="nonzero"/><path fill="#df322c" d="M 335.847656 159.382812 L 319.707031 159.382812 C 318.976562 159.382812 318.386719 158.789062 318.386719 158.0625 C 318.386719 157.332031 318.976562 156.742188 319.707031 156.742188 L 335.847656 156.742188 C 336.574219 156.742188 337.167969 157.332031 337.167969 158.0625 C 337.167969 158.789062 336.574219 159.382812 335.847656 159.382812 " fill-opacity="1" fill-rule="nonzero"/><path fill="#9adddc" d="M 320.734375 159.382812 L 306.1875 159.382812 C 305.457031 159.382812 304.863281 158.792969 304.863281 158.0625 C 304.863281 157.335938 305.457031 156.746094 306.1875 156.746094 L 320.734375 156.746094 C 321.464844 156.746094 322.054688 157.335938 322.054688 158.0625 C 322.054688 158.792969 321.464844 159.382812 320.734375 159.382812 " fill-opacity="1" fill-rule="nonzero"/><path fill="#df322c" d="M 320.734375 189.257812 L 305.578125 189.257812 C 304.847656 189.257812 304.253906 188.667969 304.253906 187.941406 C 304.253906 187.210938 304.847656 186.621094 305.578125 186.621094 L 320.734375 186.621094 C 321.464844 186.621094 322.054688 187.210938 322.054688 187.941406 C 322.054688 188.667969 321.464844 189.257812 320.734375 189.257812 " fill-opacity="1" fill-rule="nonzero"/><path fill="#9adddc" d="M 336.453125 189.257812 L 320.738281 189.257812 C 320.007812 189.257812 319.417969 188.664062 319.417969 187.9375 C 319.417969 187.207031 320.007812 186.617188 320.738281 186.617188 L 336.453125 186.617188 C 337.179688 186.617188 337.773438 187.207031 337.773438 187.9375 C 337.773438 188.664062 337.179688 189.257812 336.453125 189.257812 " fill-opacity="1" fill-rule="nonzero"/><path fill="#df322c" d="M 321.503906 200.546875 L 302.027344 200.546875 C 301.300781 200.546875 300.707031 199.953125 300.707031 199.226562 C 300.707031 198.5 301.300781 197.90625 302.027344 197.90625 L 321.503906 197.90625 C 322.234375 197.90625 322.824219 198.5 322.824219 199.226562 C 322.824219 199.953125 322.234375 200.546875 321.503906 200.546875 " fill-opacity="1" fill-rule="nonzero"/><path fill="#9adddc" d="M 340.003906 200.546875 L 320.738281 200.546875 C 320.007812 200.546875 319.414062 199.953125 319.414062 199.226562 C 319.414062 198.496094 320.007812 197.90625 320.738281 197.90625 L 340.003906 197.90625 C 340.734375 197.90625 341.328125 198.496094 341.328125 199.226562 C 341.328125 199.953125 340.734375 200.546875 340.003906 200.546875 " fill-opacity="1" fill-rule="nonzero"/><path fill="#668e9b" d="M 340.359375 206.554688 C 339.628906 206.554688 339.039062 205.964844 339.039062 205.234375 C 339.039062 187.222656 330.316406 180.402344 315.957031 171.308594 C 300.5 161.519531 300.347656 139.957031 300.347656 139.046875 C 300.347656 138.3125 300.941406 137.726562 301.671875 137.726562 C 302.402344 137.726562 302.992188 138.3125 302.992188 139.046875 C 302.992188 139.253906 303.160156 160.078125 317.375 169.082031 C 332.058594 178.378906 341.679688 185.914062 341.679688 205.234375 C 341.679688 205.964844 341.089844 206.554688 340.359375 206.554688 " fill-opacity="1" fill-rule="nonzero"/><path fill="#668e9b" d="M 301.671875 206.554688 C 300.941406 206.554688 300.351562 205.964844 300.351562 205.234375 C 300.351562 185.914062 309.976562 178.378906 324.65625 169.082031 C 338.871094 160.078125 339.039062 139.253906 339.039062 139.046875 C 339.039062 138.3125 339.628906 137.726562 340.359375 137.726562 C 341.089844 137.726562 341.679688 138.3125 341.679688 139.046875 C 341.683594 139.957031 341.53125 161.519531 326.074219 171.308594 C 311.710938 180.398438 302.992188 187.21875 302.992188 205.234375 C 302.992188 205.964844 302.402344 206.554688 301.671875 206.554688 " fill-opacity="1" fill-rule="nonzero"/><g clip-path="url(#f6955487af)"><path fill="#8f979d" d="M 276.042969 215.542969 C 275.3125 215.542969 274.722656 214.953125 274.722656 214.222656 L 274.722656 128.339844 C 274.71875 128.339844 274.441406 123.199219 272.5 120.507812 C 270.566406 117.824219 267.164062 116.34375 267.128906 116.324219 C 266.554688 116.078125 266.230469 115.464844 266.355469 114.851562 C 266.480469 114.234375 267.019531 113.796875 267.640625 113.792969 L 283.707031 113.726562 L 357.722656 113.71875 C 362.703125 113.71875 366.75 117.769531 366.75 122.742188 L 366.75 129.816406 C 366.75 130.542969 366.15625 131.136719 365.429688 131.136719 C 364.699219 131.136719 364.109375 130.542969 364.109375 129.816406 L 364.109375 122.742188 C 364.109375 119.222656 361.242188 116.359375 357.722656 116.359375 L 272.207031 116.414062 C 273.066406 117.117188 273.925781 117.964844 274.644531 118.96875 C 277.050781 122.300781 277.351562 128.035156 277.359375 128.273438 L 277.363281 214.222656 C 277.363281 214.953125 276.769531 215.542969 276.042969 215.542969 " fill-opacity="1" fill-rule="nonzero"/></g><g clip-path="url(#ec05e69706)"><path fill="#8f979d" d="M 365.429688 186.609375 C 364.699219 186.609375 364.109375 186.015625 364.109375 185.289062 L 364.109375 174.433594 C 364.109375 173.707031 364.699219 173.117188 365.429688 173.117188 C 366.15625 173.117188 366.75 173.707031 366.75 174.433594 L 366.75 185.289062 C 366.75 186.015625 366.15625 186.609375 365.429688 186.609375 " fill-opacity="1" fill-rule="nonzero"/></g><g clip-path="url(#57038646fd)"><path fill="#8f979d" d="M 357.722656 229.84375 L 327.773438 229.84375 C 327.042969 229.84375 326.453125 229.25 326.453125 228.523438 C 326.453125 227.792969 327.042969 227.203125 327.773438 227.203125 L 357.722656 227.203125 C 361.242188 227.203125 364.109375 224.339844 364.109375 220.824219 L 364.109375 197.523438 C 364.109375 196.796875 364.699219 196.207031 365.429688 196.207031 C 366.15625 196.207031 366.75 196.796875 366.75 197.523438 L 366.75 220.824219 C 366.75 225.796875 362.703125 229.84375 357.722656 229.84375 " fill-opacity="1" fill-rule="nonzero"/></g><path fill="#fdfbfc" d="M 97.621094 112.105469 C 97.605469 112.105469 97.59375 112.101562 97.578125 112.101562 L 17.40625 112.101562 C 13.148438 112.101562 9.695312 115.550781 9.695312 119.804688 L 9.695312 297.863281 C 9.695312 302.117188 13.148438 305.5625 17.40625 305.5625 L 97.578125 305.5625 C 101.835938 305.5625 105.289062 302.117188 105.289062 297.863281 L 105.289062 125.402344 C 105.289062 125.402344 105.554688 119.855469 107.757812 116.800781 C 109.941406 113.765625 113.683594 112.175781 113.683594 112.175781 L 97.621094 112.105469 " fill-opacity="1" fill-rule="nonzero"/><path fill="#8f979d" d="M 88.550781 192.691406 L 27.1875 192.691406 C 26.457031 192.691406 25.867188 192.101562 25.867188 191.371094 C 25.867188 190.644531 26.457031 190.050781 27.1875 190.050781 L 88.550781 190.050781 C 89.277344 190.050781 89.871094 190.644531 89.871094 191.371094 C 89.871094 192.101562 89.277344 192.691406 88.550781 192.691406 " fill-opacity="1" fill-rule="nonzero"/><path fill="#8f979d" d="M 95.261719 212.367188 L 20.238281 212.367188 C 19.507812 212.367188 18.914062 211.773438 18.914062 211.046875 C 18.914062 210.316406 19.507812 209.726562 20.238281 209.726562 L 95.261719 209.726562 C 95.988281 209.726562 96.582031 210.316406 96.582031 211.046875 C 96.582031 211.773438 95.988281 212.367188 95.261719 212.367188 " fill-opacity="1" fill-rule="nonzero"/><path fill="#8f979d" d="M 83 202.527344 L 32.960938 202.527344 C 32.230469 202.527344 31.636719 201.9375 31.636719 201.207031 C 31.636719 200.480469 32.230469 199.886719 32.960938 199.886719 L 83 199.886719 C 83.730469 199.886719 84.324219 200.480469 84.324219 201.207031 C 84.324219 201.9375 83.730469 202.527344 83 202.527344 " fill-opacity="1" fill-rule="nonzero"/><path fill="#8f979d" d="M 95.261719 242.15625 L 20.238281 242.15625 C 19.507812 242.15625 18.914062 241.5625 18.914062 240.835938 C 18.914062 240.105469 19.507812 239.515625 20.238281 239.515625 L 95.261719 239.515625 C 95.988281 239.515625 96.582031 240.105469 96.582031 240.835938 C 96.582031 241.5625 95.988281 242.15625 95.261719 242.15625 " fill-opacity="1" fill-rule="nonzero"/><path fill="#8f979d" d="M 95.261719 232.316406 L 20.238281 232.316406 C 19.507812 232.316406 18.914062 231.726562 18.914062 231 C 18.914062 230.269531 19.507812 229.675781 20.238281 229.675781 L 95.261719 229.675781 C 95.988281 229.675781 96.582031 230.269531 96.582031 231 C 96.582031 231.726562 95.988281 232.316406 95.261719 232.316406 " fill-opacity="1" fill-rule="nonzero"/><path fill="#8f979d" d="M 95.261719 252.269531 L 20.238281 252.269531 C 19.507812 252.269531 18.914062 251.679688 18.914062 250.949219 C 18.914062 250.222656 19.507812 249.632812 20.238281 249.632812 L 95.261719 249.632812 C 95.988281 249.632812 96.582031 250.222656 96.582031 250.949219 C 96.582031 251.679688 95.988281 252.269531 95.261719 252.269531 " fill-opacity="1" fill-rule="nonzero"/><path fill="#8f979d" d="M 95.261719 271.941406 L 20.238281 271.941406 C 19.507812 271.941406 18.914062 271.351562 18.914062 270.621094 C 18.914062 269.894531 19.507812 269.304688 20.238281 269.304688 L 95.261719 269.304688 C 95.988281 269.304688 96.582031 269.894531 96.582031 270.621094 C 96.582031 271.351562 95.988281 271.941406 95.261719 271.941406 " fill-opacity="1" fill-rule="nonzero"/><path fill="#8f979d" d="M 88.550781 262.105469 L 28.117188 262.105469 C 27.386719 262.105469 26.796875 261.515625 26.796875 260.789062 C 26.796875 260.058594 27.386719 259.464844 28.117188 259.464844 L 88.550781 259.464844 C 89.277344 259.464844 89.871094 260.058594 89.871094 260.789062 C 89.871094 261.515625 89.277344 262.105469 88.550781 262.105469 " fill-opacity="1" fill-rule="nonzero"/><path fill="#8f979d" d="M 95.261719 282.054688 L 68.21875 282.054688 C 67.488281 282.054688 66.894531 281.464844 66.894531 280.734375 C 66.894531 280.007812 67.488281 279.417969 68.21875 279.417969 L 95.261719 279.417969 C 95.988281 279.417969 96.582031 280.007812 96.582031 280.734375 C 96.582031 281.464844 95.988281 282.054688 95.261719 282.054688 " fill-opacity="1" fill-rule="nonzero"/><path fill="#8f979d" d="M 95.261719 291.898438 L 68.21875 291.898438 C 67.488281 291.898438 66.894531 291.304688 66.894531 290.578125 C 66.894531 289.847656 67.488281 289.257812 68.21875 289.257812 L 95.261719 289.257812 C 95.988281 289.257812 96.582031 289.847656 96.582031 290.578125 C 96.582031 291.304688 95.988281 291.898438 95.261719 291.898438 " fill-opacity="1" fill-rule="nonzero"/><path fill="#8f979d" d="M 95.261719 222.144531 L 20.238281 222.144531 C 19.507812 222.144531 18.914062 221.554688 18.914062 220.824219 C 18.914062 220.097656 19.507812 219.503906 20.238281 219.503906 L 95.261719 219.503906 C 95.988281 219.503906 96.582031 220.097656 96.582031 220.824219 C 96.582031 221.554688 95.988281 222.144531 95.261719 222.144531 " fill-opacity="1" fill-rule="nonzero"/><path fill="#8f979d" d="M 95.261719 183.679688 L 20.238281 183.679688 L 20.238281 176.726562 L 95.261719 176.726562 L 95.261719 183.679688 " fill-opacity="1" fill-rule="nonzero"/><path fill="#9adddc" d="M 79.046875 137.03125 L 79.046875 153.3125 L 65.996094 153.3125 L 65.996094 166.460938 L 49.703125 166.460938 L 49.703125 153.3125 L 36.636719 153.3125 L 36.636719 137.03125 L 49.703125 137.03125 L 49.703125 124.105469 L 65.996094 124.105469 L 65.996094 137.03125 L 79.046875 137.03125 " fill-opacity="1" fill-rule="nonzero"/><path fill="#3c9389" d="M 51.464844 164.699219 L 64.234375 164.699219 L 64.234375 153.3125 C 64.234375 152.339844 65.019531 151.554688 65.996094 151.554688 L 77.285156 151.554688 L 77.285156 138.789062 L 65.996094 138.789062 C 65.019531 138.789062 64.234375 138.003906 64.234375 137.03125 L 64.234375 125.867188 L 51.464844 125.867188 L 51.464844 137.03125 C 51.464844 138.003906 50.675781 138.789062 49.703125 138.789062 L 38.398438 138.789062 L 38.398438 151.554688 L 49.703125 151.554688 C 50.675781 151.554688 51.464844 152.339844 51.464844 153.3125 Z M 65.996094 168.21875 L 49.703125 168.21875 C 48.730469 168.21875 47.941406 167.429688 47.941406 166.457031 L 47.941406 155.074219 L 36.636719 155.074219 C 35.664062 155.074219 34.875 154.285156 34.875 153.3125 L 34.875 137.03125 C 34.875 136.058594 35.664062 135.273438 36.636719 135.273438 L 47.941406 135.273438 L 47.941406 124.109375 C 47.941406 123.136719 48.730469 122.347656 49.703125 122.347656 L 65.996094 122.347656 C 66.96875 122.347656 67.757812 123.136719 67.757812 124.109375 L 67.757812 135.273438 L 79.046875 135.273438 C 80.019531 135.273438 80.808594 136.058594 80.808594 137.03125 L 80.808594 153.3125 C 80.808594 154.285156 80.019531 155.074219 79.046875 155.074219 L 67.757812 155.074219 L 67.757812 166.457031 C 67.757812 167.429688 66.96875 168.21875 65.996094 168.21875 " fill-opacity="1" fill-rule="nonzero"/><path fill="#8f979d" d="M 47.566406 113.425781 L 41.402344 113.425781 C 40.671875 113.425781 40.082031 112.832031 40.082031 112.101562 C 40.082031 111.375 40.671875 110.78125 41.402344 110.78125 L 47.566406 110.78125 C 48.296875 110.78125 48.890625 111.375 48.890625 112.101562 C 48.890625 112.832031 48.296875 113.425781 47.566406 113.425781 " fill-opacity="1" fill-rule="nonzero"/><g clip-path="url(#269339bb4b)"><path fill="#8f979d" d="M 97.578125 306.882812 L 17.40625 306.882812 C 12.425781 306.882812 8.375 302.835938 8.375 297.863281 L 8.375 119.804688 C 8.375 114.832031 12.425781 110.78125 17.40625 110.78125 L 32.960938 110.78125 C 33.6875 110.78125 34.28125 111.375 34.28125 112.101562 C 34.28125 112.832031 33.6875 113.425781 32.960938 113.425781 L 17.40625 113.425781 C 13.882812 113.425781 11.015625 116.285156 11.015625 119.804688 L 11.015625 297.863281 C 11.015625 301.382812 13.882812 304.246094 17.40625 304.246094 L 97.578125 304.246094 C 101.101562 304.246094 103.964844 301.382812 103.964844 297.863281 L 103.964844 260.484375 C 103.964844 259.757812 104.558594 259.164062 105.289062 259.164062 C 106.015625 259.164062 106.609375 259.757812 106.609375 260.484375 L 106.609375 297.863281 C 106.609375 302.835938 102.558594 306.882812 97.578125 306.882812 " fill-opacity="1" fill-rule="nonzero"/></g><path fill="#668e9b" d="M 266.691406 52.9375 L 31.523438 52.9375 L 31.523438 43.054688 L 266.691406 43.054688 L 266.691406 52.9375 " fill-opacity="1" fill-rule="nonzero"/><path fill="#264e57" d="M 33.285156 51.175781 L 264.933594 51.175781 L 264.933594 44.8125 L 33.285156 44.8125 Z M 266.695312 54.695312 L 31.523438 54.695312 C 30.550781 54.695312 29.761719 53.910156 29.761719 52.9375 L 29.761719 43.050781 C 29.761719 42.078125 30.550781 41.292969 31.523438 41.292969 L 266.695312 41.292969 C 267.667969 41.292969 268.457031 42.078125 268.457031 43.050781 L 268.457031 52.9375 C 268.457031 53.910156 267.667969 54.695312 266.695312 54.695312 " fill-opacity="1" fill-rule="nonzero"/><path fill="#fdfbfc" d="M 117.449219 94.371094 L 201.316406 94.371094 C 201.578125 94.371094 201.785156 94.164062 201.785156 93.902344 L 201.785156 1.796875 C 201.785156 1.539062 201.578125 1.328125 201.316406 1.328125 L 117.449219 1.328125 C 117.191406 1.328125 116.980469 1.539062 116.980469 1.796875 L 116.980469 93.902344 C 116.980469 94.164062 117.191406 94.371094 117.449219 94.371094 " fill-opacity="1" fill-rule="nonzero"/><path fill="#c1eaee" d="M 176.433594 30.542969 C 176.433594 39.929688 168.8125 47.539062 159.414062 47.539062 C 150.015625 47.539062 142.394531 39.929688 142.394531 30.542969 C 142.394531 21.15625 150.015625 13.546875 159.414062 13.546875 C 168.8125 13.546875 176.433594 21.15625 176.433594 30.542969 " fill-opacity="1" fill-rule="nonzero"/><path fill="#fdfbfc" d="M 169.757812 44.007812 C 166.867188 46.222656 163.273438 47.523438 159.398438 47.523438 C 155.523438 47.523438 151.964844 46.222656 149.105469 44.078125 C 150.9375 40.554688 153.972656 38.058594 157.53125 37.390625 L 157.53125 34.75 C 154.605469 33.871094 152.492188 31.019531 152.492188 27.640625 C 152.492188 23.558594 155.59375 20.25 159.398438 20.25 C 163.238281 20.25 166.304688 23.558594 166.304688 27.640625 C 166.304688 30.984375 164.226562 33.835938 161.371094 34.75 L 161.371094 37.390625 C 164.894531 38.058594 167.925781 40.519531 169.757812 44.007812 " fill-opacity="1" fill-rule="nonzero"/><path fill="#668e9b" d="M 159.394531 14.851562 C 150.742188 14.851562 143.695312 21.882812 143.695312 30.527344 C 143.695312 35.445312 145.960938 40.003906 149.914062 43.027344 C 155.46875 47.203125 163.453125 47.183594 168.953125 42.957031 C 172.859375 39.976562 175.09375 35.445312 175.09375 30.527344 C 175.09375 21.882812 168.054688 14.851562 159.394531 14.851562 Z M 159.394531 48.84375 C 155.378906 48.84375 151.542969 47.558594 148.3125 45.132812 C 143.695312 41.59375 141.054688 36.273438 141.054688 30.527344 C 141.054688 20.425781 149.28125 12.210938 159.394531 12.210938 C 169.511719 12.210938 177.738281 20.425781 177.738281 30.527344 C 177.738281 36.273438 175.121094 41.570312 170.5625 45.054688 C 167.328125 47.53125 163.46875 48.84375 159.394531 48.84375 " fill-opacity="1" fill-rule="nonzero"/><path fill="#8f979d" d="M 191.507812 72.480469 L 128.730469 72.480469 C 128 72.480469 127.40625 71.890625 127.40625 71.164062 C 127.40625 70.433594 128 69.84375 128.730469 69.84375 L 191.507812 69.84375 C 192.238281 69.84375 192.828125 70.433594 192.828125 71.164062 C 192.828125 71.890625 192.238281 72.480469 191.507812 72.480469 " fill-opacity="1" fill-rule="nonzero"/><path fill="#8f979d" d="M 191.507812 82.320312 L 128.730469 82.320312 C 128 82.320312 127.410156 81.730469 127.410156 81 C 127.410156 80.273438 128 79.679688 128.730469 79.679688 L 191.507812 79.679688 C 192.238281 79.679688 192.832031 80.273438 192.832031 81 C 192.832031 81.730469 192.238281 82.320312 191.507812 82.320312 " fill-opacity="1" fill-rule="nonzero"/><path fill="#8f979d" d="M 191.507812 63.46875 L 128.730469 63.46875 L 128.730469 56.519531 L 191.507812 56.519531 L 191.507812 63.46875 " fill-opacity="1" fill-rule="nonzero"/><path fill="#8f979d" d="M 136.03125 95.695312 L 124.691406 95.695312 C 119.710938 95.695312 115.65625 91.648438 115.65625 86.675781 L 115.65625 9.03125 C 115.65625 4.054688 119.710938 0.0078125 124.691406 0.0078125 L 128.730469 0.0078125 C 129.460938 0.0078125 130.050781 0.597656 130.050781 1.324219 C 130.050781 2.058594 129.460938 2.648438 128.730469 2.648438 L 124.691406 2.648438 C 121.167969 2.648438 118.300781 5.511719 118.300781 9.03125 L 118.300781 86.675781 C 118.300781 90.191406 121.167969 93.054688 124.691406 93.054688 L 136.03125 93.054688 C 136.761719 93.054688 137.355469 93.644531 137.355469 94.371094 C 137.355469 95.101562 136.761719 95.695312 136.03125 95.695312 " fill-opacity="1" fill-rule="nonzero"/><path fill="#8f979d" d="M 201.785156 80.503906 C 201.058594 80.503906 200.464844 79.914062 200.464844 79.1875 L 200.464844 9.03125 C 200.464844 5.511719 197.597656 2.648438 194.078125 2.648438 L 145.511719 2.648438 C 144.78125 2.648438 144.191406 2.058594 144.191406 1.324219 C 144.191406 0.597656 144.78125 0.0078125 145.511719 0.0078125 L 194.078125 0.0078125 C 199.054688 0.0078125 203.109375 4.054688 203.109375 9.03125 L 203.109375 79.1875 C 203.109375 79.914062 202.515625 80.503906 201.785156 80.503906 " fill-opacity="1" fill-rule="nonzero"/><path fill="#fdfbfc" d="M 15.910156 94.371094 L 99.773438 94.371094 C 100.035156 94.371094 100.246094 94.164062 100.246094 93.902344 L 100.246094 1.796875 C 100.246094 1.539062 100.035156 1.328125 99.773438 1.328125 L 15.910156 1.328125 C 15.648438 1.328125 15.4375 1.539062 15.4375 1.796875 L 15.4375 93.902344 C 15.4375 94.164062 15.648438 94.371094 15.910156 94.371094 " fill-opacity="1" fill-rule="nonzero"/><path fill="#f35b60" d="M 74.894531 30.542969 C 74.894531 39.929688 67.273438 47.539062 57.875 47.539062 C 48.472656 47.539062 40.851562 39.929688 40.851562 30.542969 C 40.851562 21.15625 48.472656 13.546875 57.875 13.546875 C 67.273438 13.546875 74.894531 21.15625 74.894531 30.542969 " fill-opacity="1" fill-rule="nonzero"/><path fill="#fdfbfc" d="M 68.21875 44.007812 C 65.328125 46.222656 61.734375 47.523438 57.859375 47.523438 C 53.980469 47.523438 50.421875 46.222656 47.566406 44.078125 C 49.402344 40.554688 52.429688 38.058594 55.992188 37.390625 L 55.992188 34.75 C 53.066406 33.871094 50.949219 31.019531 50.949219 27.640625 C 50.949219 23.558594 54.050781 20.25 57.859375 20.25 C 61.699219 20.25 64.765625 23.558594 64.765625 27.640625 C 64.765625 30.984375 62.683594 33.835938 59.832031 34.75 L 59.832031 37.390625 C 63.355469 38.058594 66.386719 40.519531 68.21875 44.007812 " fill-opacity="1" fill-rule="nonzero"/><path fill="#df322c" d="M 57.859375 14.851562 C 49.199219 14.851562 42.15625 21.882812 42.15625 30.527344 C 42.15625 35.445312 44.421875 40.003906 48.371094 43.027344 C 53.925781 47.203125 61.914062 47.183594 67.410156 42.957031 C 71.316406 39.976562 73.554688 35.445312 73.554688 30.527344 C 73.554688 21.882812 66.511719 14.851562 57.859375 14.851562 Z M 57.859375 48.84375 C 53.839844 48.84375 50.007812 47.558594 46.773438 45.132812 C 42.15625 41.59375 39.515625 36.273438 39.515625 30.527344 C 39.515625 20.425781 47.742188 12.210938 57.859375 12.210938 C 67.972656 12.210938 76.199219 20.425781 76.199219 30.527344 C 76.199219 36.273438 73.582031 41.570312 69.019531 45.054688 C 65.789062 47.53125 61.929688 48.84375 57.859375 48.84375 " fill-opacity="1" fill-rule="nonzero"/><path fill="#8f979d" d="M 89.964844 72.480469 L 27.1875 72.480469 C 26.457031 72.480469 25.867188 71.890625 25.867188 71.164062 C 25.867188 70.433594 26.457031 69.84375 27.1875 69.84375 L 89.964844 69.84375 C 90.695312 69.84375 91.289062 70.433594 91.289062 71.164062 C 91.289062 71.890625 90.695312 72.480469 89.964844 72.480469 " fill-opacity="1" fill-rule="nonzero"/><path fill="#8f979d" d="M 89.964844 82.320312 L 27.1875 82.320312 C 26.460938 82.320312 25.867188 81.730469 25.867188 81 C 25.867188 80.273438 26.460938 79.679688 27.1875 79.679688 L 89.964844 79.679688 C 90.695312 79.679688 91.289062 80.273438 91.289062 81 C 91.289062 81.730469 90.695312 82.320312 89.964844 82.320312 " fill-opacity="1" fill-rule="nonzero"/><path fill="#8f979d" d="M 89.96875 63.46875 L 27.1875 63.46875 L 27.1875 56.519531 L 89.96875 56.519531 L 89.96875 63.46875 " fill-opacity="1" fill-rule="nonzero"/><path fill="#8f979d" d="M 15.4375 60.597656 C 14.707031 60.597656 14.117188 60.007812 14.117188 59.277344 L 14.117188 44.761719 C 14.117188 44.03125 14.707031 43.441406 15.4375 43.441406 C 16.167969 43.441406 16.757812 44.03125 16.757812 44.761719 L 16.757812 59.277344 C 16.757812 60.007812 16.167969 60.597656 15.4375 60.597656 " fill-opacity="1" fill-rule="nonzero"/><path fill="#8f979d" d="M 15.4375 33.914062 C 14.707031 33.914062 14.117188 33.324219 14.117188 32.59375 L 14.117188 26.164062 C 14.117188 25.433594 14.707031 24.84375 15.4375 24.84375 C 16.167969 24.84375 16.757812 25.433594 16.757812 26.164062 L 16.757812 32.59375 C 16.757812 33.324219 16.167969 33.914062 15.4375 33.914062 " fill-opacity="1" fill-rule="nonzero"/><path fill="#8f979d" d="M 92.535156 95.695312 L 23.152344 95.695312 C 18.167969 95.695312 14.117188 91.648438 14.117188 86.675781 L 14.117188 68.398438 C 14.117188 67.667969 14.707031 67.078125 15.4375 67.078125 C 16.167969 67.078125 16.757812 67.667969 16.757812 68.398438 L 16.757812 86.675781 C 16.757812 90.191406 19.625 93.054688 23.152344 93.054688 L 92.535156 93.054688 C 96.058594 93.054688 98.925781 90.191406 98.925781 86.675781 L 98.925781 9.03125 C 98.925781 5.511719 96.058594 2.648438 92.535156 2.648438 L 23.152344 2.648438 C 19.625 2.648438 16.757812 5.511719 16.757812 9.03125 L 16.757812 19.054688 C 16.757812 19.78125 16.167969 20.375 15.4375 20.375 C 14.707031 20.375 14.117188 19.78125 14.117188 19.054688 L 14.117188 9.03125 C 14.117188 4.054688 18.167969 0.0078125 23.152344 0.0078125 L 92.535156 0.0078125 C 97.515625 0.0078125 101.566406 4.054688 101.566406 9.03125 L 101.566406 86.675781 C 101.566406 91.648438 97.515625 95.695312 92.535156 95.695312 " fill-opacity="1" fill-rule="nonzero"/><path fill="#fdfbfc" d="M 219.03125 94.371094 L 302.898438 94.371094 C 303.15625 94.371094 303.367188 94.164062 303.367188 93.902344 L 303.367188 1.796875 C 303.367188 1.539062 303.15625 1.328125 302.898438 1.328125 L 219.03125 1.328125 C 218.769531 1.328125 218.558594 1.539062 218.558594 1.796875 L 218.558594 93.902344 C 218.558594 94.164062 218.769531 94.371094 219.03125 94.371094 " fill-opacity="1" fill-rule="nonzero"/><path fill="#9adddc" d="M 278.015625 30.542969 C 278.015625 39.929688 270.394531 47.539062 260.992188 47.539062 C 251.59375 47.539062 243.972656 39.929688 243.972656 30.542969 C 243.972656 21.15625 251.59375 13.546875 260.992188 13.546875 C 270.394531 13.546875 278.015625 21.15625 278.015625 30.542969 " fill-opacity="1" fill-rule="nonzero"/><path fill="#fdfbfc" d="M 271.339844 44.007812 C 268.449219 46.222656 264.855469 47.523438 260.976562 47.523438 C 257.101562 47.523438 253.542969 46.222656 250.6875 44.078125 C 252.523438 40.554688 255.550781 38.058594 259.109375 37.390625 L 259.109375 34.75 C 256.1875 33.871094 254.070312 31.019531 254.070312 27.640625 C 254.070312 23.558594 257.171875 20.25 260.976562 20.25 C 264.820312 20.25 267.886719 23.558594 267.886719 27.640625 C 267.886719 30.984375 265.808594 33.835938 262.949219 34.75 L 262.949219 37.390625 C 266.472656 38.058594 269.507812 40.519531 271.339844 44.007812 " fill-opacity="1" fill-rule="nonzero"/><path fill="#3c9389" d="M 260.976562 14.851562 C 252.320312 14.851562 245.28125 21.882812 245.28125 30.527344 C 245.28125 35.445312 247.542969 40.003906 251.492188 43.027344 C 257.046875 47.203125 265.03125 47.183594 270.53125 42.957031 C 274.4375 39.976562 276.675781 35.445312 276.675781 30.527344 C 276.675781 21.882812 269.636719 14.851562 260.976562 14.851562 Z M 260.976562 48.84375 C 256.960938 48.84375 253.125 47.558594 249.890625 45.132812 C 245.277344 41.59375 242.636719 36.273438 242.636719 30.527344 C 242.636719 20.425781 250.863281 12.210938 260.976562 12.210938 C 271.09375 12.210938 279.316406 20.425781 279.316406 30.527344 C 279.316406 36.273438 276.703125 41.570312 272.140625 45.054688 C 268.910156 47.53125 265.046875 48.84375 260.976562 48.84375 " fill-opacity="1" fill-rule="nonzero"/><path fill="#8f979d" d="M 293.085938 72.480469 L 230.308594 72.480469 C 229.582031 72.480469 228.988281 71.890625 228.988281 71.164062 C 228.988281 70.433594 229.582031 69.84375 230.308594 69.84375 L 293.085938 69.84375 C 293.816406 69.84375 294.40625 70.433594 294.40625 71.164062 C 294.40625 71.890625 293.816406 72.480469 293.085938 72.480469 " fill-opacity="1" fill-rule="nonzero"/><path fill="#8f979d" d="M 293.089844 82.316406 L 230.3125 82.316406 C 229.582031 82.316406 228.988281 81.726562 228.988281 81 C 228.988281 80.269531 229.582031 79.679688 230.3125 79.679688 L 293.089844 79.679688 C 293.820312 79.679688 294.410156 80.269531 294.410156 81 C 294.410156 81.726562 293.820312 82.316406 293.089844 82.316406 " fill-opacity="1" fill-rule="nonzero"/><path fill="#8f979d" d="M 293.085938 63.46875 L 230.308594 63.46875 L 230.308594 56.519531 L 293.085938 56.519531 L 293.085938 63.46875 " fill-opacity="1" fill-rule="nonzero"/><path fill="#8f979d" d="M 295.65625 95.695312 L 226.269531 95.695312 C 221.289062 95.695312 217.238281 91.648438 217.238281 86.675781 L 217.238281 16.070312 C 217.238281 15.34375 217.828125 14.75 218.5625 14.75 C 219.289062 14.75 219.882812 15.34375 219.882812 16.070312 L 219.882812 86.675781 C 219.882812 90.191406 222.75 93.054688 226.269531 93.054688 L 295.65625 93.054688 C 299.179688 93.054688 302.046875 90.191406 302.046875 86.675781 L 302.046875 9.03125 C 302.046875 5.511719 299.179688 2.648438 295.65625 2.648438 L 257.035156 2.648438 C 256.304688 2.648438 255.710938 2.058594 255.710938 1.324219 C 255.710938 0.597656 256.304688 0.0078125 257.035156 0.0078125 L 295.65625 0.0078125 C 300.636719 0.0078125 304.6875 4.054688 304.6875 9.03125 L 304.6875 86.675781 C 304.6875 91.648438 300.636719 95.695312 295.65625 95.695312 " fill-opacity="1" fill-rule="nonzero"/><path fill="#8f979d" d="M 249.566406 2.648438 L 240.832031 2.648438 C 240.101562 2.648438 239.511719 2.058594 239.511719 1.324219 C 239.511719 0.597656 240.101562 0.0078125 240.832031 0.0078125 L 249.566406 0.0078125 C 250.292969 0.0078125 250.886719 0.597656 250.886719 1.324219 C 250.886719 2.058594 250.292969 2.648438 249.566406 2.648438 " fill-opacity="1" fill-rule="nonzero"/></svg>