<svg width="71" height="76" viewBox="0 0 71 76" fill="none" xmlns="http://www.w3.org/2000/svg">
<path d="M43.6583 41.2514C43.6583 41.2514 47.8888 43.6098 48.7526 43.9074C49.6164 44.2043 57.703 46.489 58.2119 46.3774C58.7207 46.2666 59.2155 45.3047 59.7177 44.8535C60.2198 44.4022 62.5259 43.0271 62.8764 43.0968C63.227 43.1672 63.6227 44.0285 61.2205 45.2548C61.2205 45.2548 63.4784 45.0593 64.0827 45.0395C64.6877 45.0197 66.5965 44.9295 66.9922 45.1955C67.0033 45.2184 67.9381 45.3285 67.862 45.9428C67.7858 46.5563 67.288 46.5769 66.9116 46.9585C66.5344 47.3401 66.2911 47.9908 65.3511 48.4825C64.4118 48.9741 63.0332 49.5995 61.9401 49.719C60.7242 49.8267 59.5076 49.8362 58.291 49.746C57.5033 49.6676 50.7746 48.0106 49.788 48.0724C48.8021 48.1341 45.7344 47.5744 44.361 46.8785C42.7139 46.0402 36.9747 45.984 36.9747 45.984C36.9747 45.984 43.6828 41.1667 43.6583 41.2514Z" fill="#CF856A"/>
<path d="M19.2263 15.6014C18.4186 14.3189 17.4882 13.148 16.4351 12.0887C14.6438 10.2806 14.9189 6.84237 17.3876 5.86783C16.9949 1.10675 21.1292 0.519332 22.9826 1.17642C24.8353 1.83429 25.4639 3.16904 28.8068 2.61804C31.246 2.20954 33.0897 7.73379 27.6094 8.84133L21.7172 17.4206L19.2263 15.6014Z" fill="#AF6A5A"/>
<path d="M22.3236 14.094C23.1682 13.1876 22.5174 11.4032 22.672 10.8902C22.8273 10.3772 23.4478 10.1895 25.0741 9.38125C26.7012 8.57216 26.5193 7.05691 26.7323 6.02221C26.9445 4.98829 28.914 4.69458 28.914 4.69458C28.914 4.69458 30.0634 8.29666 30.7083 10.1349C31.3532 11.9724 31.9034 15.1264 30.8214 16.853C29.7387 18.5796 27.3506 18.6026 27.3506 18.6026C26.9615 19.8843 28.2536 21.2689 28.2536 21.2689L29.9687 21.4827C29.9687 21.4827 28.9525 23.963 26.6746 24.8029C24.3967 25.6429 21.6706 23.754 21.6706 23.754C21.7623 22.914 20.6869 21.4296 20.6869 21.4296C21.2179 20.2176 21.0752 15.052 21.0752 15.052C21.0752 15.052 18.4852 15.5832 18.6804 13.319C18.8757 11.054 21.3851 12.2194 21.3851 12.2194L22.3236 14.094Z" fill="#CF856A"/>
<path d="M28.0997 14.1241C27.6612 14.121 27.2433 14.022 26.8454 13.8249C26.8225 13.813 26.8077 13.7948 26.8003 13.7687C26.7929 13.7433 26.7944 13.7188 26.8062 13.6958C26.818 13.6721 26.8358 13.657 26.8595 13.6491C26.8831 13.6412 26.9053 13.6436 26.9275 13.6555C26.9882 13.6887 28.4503 14.4756 29.6507 13.277C29.6684 13.2588 29.6891 13.2493 29.7143 13.2493C29.7387 13.2493 29.7601 13.2588 29.7779 13.277C29.7949 13.296 29.8037 13.3182 29.8037 13.3451C29.8037 13.372 29.7949 13.3942 29.7779 13.4132C29.5523 13.6444 29.2942 13.8217 29.0035 13.9444C28.7136 14.0671 28.4118 14.1273 28.0997 14.1241Z" fill="#18253B"/>
<path d="M28.0236 15.1731C27.9807 15.1755 27.9371 15.1755 27.8934 15.1731C27.869 15.1715 27.8483 15.1604 27.832 15.1398C27.8158 15.12 27.8091 15.0963 27.8113 15.0702C27.8135 15.044 27.8246 15.0227 27.8431 15.0053C27.8616 14.9886 27.8831 14.9807 27.9075 14.9823C27.9171 14.9823 28.7942 15.0504 29.3171 14.5192C29.3349 14.5002 29.3556 14.4907 29.3807 14.4907C29.4051 14.4907 29.4266 14.5002 29.4443 14.5192C29.4621 14.5374 29.471 14.5603 29.471 14.5873C29.471 14.6134 29.4621 14.6363 29.4443 14.6553C28.9821 15.12 28.3076 15.1731 28.0236 15.1731Z" fill="#18253B"/>
<path d="M26.0555 14.159C26.0311 14.159 26.0104 14.1495 25.9926 14.1312C25.9756 14.1122 25.966 14.0901 25.966 14.064C25.9394 13 26.9193 12.7688 26.9304 12.7672C26.9541 12.7625 26.9763 12.7672 26.997 12.7807C27.0177 12.7949 27.0302 12.8147 27.0362 12.8408C27.0406 12.867 27.0362 12.8907 27.0229 12.9129C27.0095 12.935 26.9903 12.9493 26.9659 12.9548C26.9319 12.9548 26.1228 13.1575 26.1442 14.0592C26.145 14.0853 26.1368 14.1083 26.1198 14.1281C26.1028 14.1479 26.0821 14.1574 26.0577 14.159H26.0555Z" fill="#18253B"/>
<path d="M29.1855 11.263C29.4458 11.7103 28.6656 12.4822 28.5761 12.5685C28.5576 12.5875 28.5354 12.597 28.5095 12.5962C28.4792 12.597 28.454 12.5851 28.4333 12.5614C28.4141 12.54 28.4045 12.5147 28.4045 12.4854C28.4045 12.4553 28.4141 12.43 28.4333 12.4086C28.6781 12.1719 29.1419 11.609 29.0072 11.3778C28.7928 11.0113 27.7352 9.93542 27.7248 9.92513C27.7048 9.90454 27.6952 9.87921 27.6952 9.84912C27.6952 9.81904 27.7048 9.79371 27.7248 9.77233C27.744 9.75175 27.7684 9.74146 27.7958 9.74146C27.8232 9.74146 27.8476 9.75175 27.8668 9.77233C27.9201 9.81271 28.9621 10.8735 29.1855 11.263ZM27.9755 8.41304H28.0066C28.0554 8.41383 28.0872 8.38929 28.1027 8.34021C28.1123 8.30854 28.3527 7.581 29.4051 7.84225C29.4325 7.84858 29.4577 7.84383 29.4813 7.828C29.505 7.81217 29.5198 7.78921 29.5264 7.76071C29.5324 7.73142 29.5287 7.7045 29.5139 7.67917C29.4991 7.65383 29.4776 7.638 29.4503 7.63088C28.21 7.32608 27.9134 8.26025 27.9119 8.27054C27.9016 8.29983 27.9023 8.32833 27.9149 8.35683C27.9275 8.38454 27.9474 8.40354 27.9755 8.41304ZM26.188 9.39787C26.2146 9.40421 26.2405 9.39946 26.2641 9.38363C26.2878 9.36779 26.3026 9.34483 26.3085 9.31633C26.3144 9.28704 26.3107 9.26013 26.2959 9.23479C26.2811 9.20946 26.2597 9.19363 26.2323 9.1865C24.992 8.8825 24.6962 9.81746 24.6947 9.82775C24.6859 9.85546 24.6873 9.88238 24.6999 9.9085C24.7125 9.93542 24.7317 9.95283 24.7576 9.96154H24.7887C24.8375 9.96233 24.8693 9.93779 24.8848 9.88871C24.8959 9.86258 25.1348 9.13662 26.188 9.39787ZM26.0837 10.4167C26.0445 10.412 26.0068 10.4152 25.969 10.427C25.9313 10.4381 25.8966 10.4571 25.8662 10.4832C25.8352 10.5094 25.81 10.541 25.7915 10.5775C25.7723 10.6147 25.7605 10.6535 25.756 10.6954C25.7516 10.7374 25.7546 10.7785 25.7657 10.8189C25.776 10.8593 25.7938 10.8957 25.8182 10.929C25.8426 10.9614 25.8714 10.9883 25.9062 11.0089C25.9402 11.0295 25.9772 11.0422 26.0156 11.0469C26.0548 11.0517 26.0933 11.0485 26.131 11.0366C26.1687 11.0255 26.2035 11.0065 26.2338 10.9804C26.2649 10.9543 26.29 10.9234 26.3085 10.8862C26.3277 10.8498 26.3396 10.8102 26.344 10.769C26.3492 10.7271 26.3455 10.6859 26.3351 10.6455C26.324 10.6044 26.307 10.568 26.2826 10.5347C26.2582 10.5022 26.2286 10.4753 26.1939 10.4548C26.1599 10.4342 26.1229 10.4215 26.0837 10.4167ZM29.5671 9.46913C29.5279 9.46438 29.4895 9.46754 29.4517 9.47942C29.414 9.4905 29.38 9.5095 29.3489 9.53562C29.3179 9.56175 29.2935 9.59342 29.2742 9.62983C29.255 9.66625 29.2432 9.70583 29.2387 9.74779C29.2343 9.78896 29.2373 9.83012 29.2484 9.8705C29.2587 9.91088 29.2765 9.94808 29.3009 9.98054C29.3253 10.0138 29.3549 10.0407 29.3889 10.0613C29.4236 10.0811 29.4599 10.0938 29.4991 10.0985C29.5383 10.104 29.576 10.1001 29.6137 10.089C29.6522 10.0771 29.6862 10.0589 29.7165 10.0328C29.7476 10.0067 29.7727 9.975 29.7919 9.93858C29.8112 9.90138 29.823 9.86258 29.8274 9.82063C29.8326 9.77867 29.8297 9.7375 29.8193 9.69712C29.809 9.65596 29.7919 9.61954 29.7683 9.5855C29.7446 9.55225 29.715 9.52533 29.681 9.50396C29.647 9.48258 29.6107 9.46913 29.5715 9.46358L29.5671 9.46913Z" fill="#18253B"/>
<path d="M30.4258 12.3627C30.3895 12.3627 30.3629 12.3452 30.3451 12.3112C30.2911 12.2012 30.2224 12.1038 30.1388 12.0175C30.0552 11.9312 29.9613 11.8607 29.857 11.8061C29.7527 11.7523 29.6433 11.7167 29.5286 11.6992C29.414 11.6826 29.2994 11.685 29.1855 11.7064C29.1625 11.708 29.1426 11.7016 29.1241 11.6874C29.1063 11.6723 29.0952 11.6525 29.0908 11.6288C29.0864 11.605 29.0901 11.5829 29.1019 11.5615C29.113 11.5409 29.1293 11.5267 29.1515 11.5187C29.1603 11.5187 30.0708 11.3382 30.5019 12.221C30.5138 12.2447 30.516 12.2692 30.5086 12.2946C30.5012 12.3199 30.4864 12.3389 30.465 12.3508C30.4524 12.3587 30.4398 12.3627 30.4258 12.3627Z" fill="#18253B"/>
<path d="M27.3505 18.6057C27.8238 20.2809 28.5804 21.219 28.5804 21.219L29.976 21.4858C29.976 21.4858 28.9606 23.9661 26.6827 24.8061C24.404 25.646 21.6779 23.7571 21.6779 23.7571C21.7696 22.9172 20.5759 21.3964 20.5759 21.3964C20.8422 20.7876 21.0966 17.7745 21.0907 16.914C24.035 18.8702 27.3505 18.6057 27.3505 18.6057Z" fill="#AF6A5A"/>
<path d="M18.0762 21.0496C18.0762 21.0496 19.2795 22.5087 19.7817 22.9187C22.3591 25.004 22.1949 28.1667 20.951 30.2235L10.6367 44.9112L10.6227 44.9334C9.21821 47.4976 7.28716 47.6575 6.52465 47.6029C5.24961 47.5198 5.8361 46.9284 5.28363 45.733C4.63871 43.9502 3.2372 44.3341 3.97161 42.4911L3.3363 42.936C3.77931 40.3433 6.9647 31.4133 11.9258 24.0706C13.3976 21.8714 18.0762 21.0496 18.0762 21.0496Z" fill="#E9EAF6"/>
<path d="M57.2533 50.8361C57.2533 50.8361 47.3629 50.3183 40.6438 47.7937C40.6438 47.7937 39.0418 47.2443 38.3178 45.6356C38.1351 45.3886 37.9702 45.129 37.823 44.8566L37.8089 44.8353L27.4792 30.1419C26.2389 28.0852 26.071 24.9225 28.6485 22.8372C29.1558 22.4271 30.3547 20.9697 30.3547 20.9697C30.3547 20.9697 35.0333 21.7867 36.5043 23.9899C40.4589 29.8427 43.2826 36.6993 44.4911 40.5555C51.0164 42.3819 58.1933 44.8234 58.1933 44.8234C58.2769 46.816 57.919 48.8229 57.2533 50.8361Z" fill="#E9EAF6"/>
<path d="M27.3882 20.8755L29.4953 21.1605C29.4161 45.4298 26.9459 54.2212 19.5582 20.98L21.0189 20.8739C23.5453 21.8714 25.7397 22.0471 27.3882 20.8755Z" fill="#B491CA"/>
<path d="M11.738 75.3492C11.738 75.3492 11.4791 61.3914 13.4545 48.142C13.5662 38.5336 12.2342 32.3712 12.6262 27.003C12.9072 23.146 14.3694 22.7675 14.379 22.6496C16.5719 20.6942 20.701 20.824 20.701 20.824C23.1963 25.4719 25.1488 35.9535 26.5844 41.2094C27.5355 35.944 28.0406 25.3824 27.6701 20.8026C27.6701 20.8026 35.557 20.2944 36.5096 26.2327C36.4009 31.5891 38.4184 60.5 37.1449 75.3572L11.738 75.3492Z" fill="#E9EAF6"/>
<path d="M21.0219 20.7939L21.8584 23.4183L19.1848 20.8755C19.5228 20.087 20.1152 19.4093 21.0219 18.8686V20.7939ZM27.3801 20.7939C27.5909 21.6244 27.7093 22.7066 27.7847 23.902L29.2239 20.8755C28.8859 20.087 28.2935 19.4093 27.3861 18.8686L27.3801 20.7939Z" fill="#E9EAF6"/>
<path d="M30.2489 22.6433L28.8407 23.651L30.1742 24.647C30.209 24.6723 30.223 24.7071 30.2164 24.7515L27.6093 43.0572C27.6064 43.0817 27.5968 43.1031 27.5798 43.1197C27.5627 43.1371 27.5428 43.1466 27.5199 43.1482H27.5102C27.4636 43.1482 27.4318 43.1245 27.4156 43.077C26.267 39.6807 19.0169 25.9437 18.9444 25.8123C18.9318 25.7885 18.9281 25.764 18.934 25.7379C18.9392 25.7118 18.9518 25.6904 18.9717 25.6745L20.6099 24.3461L17.8683 23.0185C17.8402 23.0043 17.8217 22.9813 17.8121 22.9504C17.8039 22.9188 17.8084 22.8895 17.8247 22.8625L19.0405 20.7805C19.0553 20.7567 19.0768 20.7425 19.1027 20.7369C19.1293 20.7306 19.1537 20.7353 19.1766 20.7512C19.1995 20.7662 19.2143 20.7876 19.221 20.8161C19.2276 20.8438 19.2239 20.8699 19.2106 20.8953L18.0554 22.8673L20.8466 24.2203C20.8828 24.2369 20.9021 24.2654 20.9058 24.3065C20.9102 24.3477 20.8976 24.3802 20.8673 24.4047L19.1611 25.7822C19.7476 26.8961 26.0281 38.8439 27.4636 42.6241L30.0071 24.7863L28.6115 23.7373C28.5974 23.7278 28.5863 23.7144 28.5782 23.6985C28.5708 23.6835 28.5664 23.6661 28.5664 23.6487C28.5664 23.6305 28.5708 23.6138 28.5782 23.598C28.5863 23.5822 28.5974 23.5695 28.6115 23.56L30.0648 22.5205L29.2009 20.8865C29.1869 20.8612 29.1832 20.8343 29.1906 20.8058C29.198 20.7773 29.2135 20.7551 29.2379 20.7409C29.2623 20.7258 29.2875 20.7219 29.3148 20.7298C29.3414 20.7377 29.3622 20.7543 29.3762 20.7805L30.2859 22.5008C30.2992 22.5261 30.3022 22.5522 30.2948 22.5799C30.2874 22.6076 30.2726 22.629 30.2489 22.6433Z" fill="#18253B"/>
<path d="M28.1071 52.7203C28.1071 52.763 28.0997 52.8042 28.0849 52.843C28.0694 52.8825 28.048 52.9174 28.0198 52.9475C27.9917 52.9775 27.9592 53.0005 27.923 53.0163C27.886 53.033 27.8475 53.0409 27.8083 53.0409C27.7684 53.0409 27.7307 53.033 27.6937 53.0163C27.6567 53.0005 27.6249 52.9775 27.5968 52.9475C27.5687 52.9174 27.5465 52.8825 27.5317 52.843C27.5162 52.8042 27.5088 52.763 27.5088 52.7203C27.5088 52.6783 27.5162 52.6371 27.5317 52.5983C27.5465 52.5588 27.5687 52.5239 27.5968 52.4938C27.6249 52.4638 27.6567 52.4408 27.6937 52.425C27.7307 52.4083 27.7684 52.4004 27.8083 52.4004C27.8475 52.4004 27.886 52.4083 27.9222 52.425C27.9592 52.4416 27.991 52.4645 28.0191 52.4946C28.0472 52.5247 28.0687 52.5588 28.0842 52.5983C28.0997 52.6371 28.1071 52.6783 28.1071 52.7203ZM27.8113 57.8954C27.7713 57.8954 27.7336 57.9033 27.6966 57.9191C27.6604 57.9358 27.6279 57.9587 27.5998 57.9888C27.5717 58.0189 27.5502 58.0537 27.5347 58.0925C27.5199 58.1321 27.5118 58.1733 27.5118 58.2152C27.5118 58.258 27.5199 58.2991 27.5347 58.3379C27.5502 58.3775 27.5717 58.4123 27.5998 58.4416C27.6279 58.4717 27.6604 58.4955 27.6966 58.5113C27.7336 58.5279 27.7713 58.5358 27.8113 58.5358C27.8512 58.5358 27.8889 58.5279 27.9259 58.5113C27.9622 58.4955 27.9947 58.4717 28.0228 58.4416C28.0509 58.4123 28.0724 58.3775 28.0879 58.3379C28.1027 58.2991 28.1108 58.258 28.1108 58.2152C28.1108 58.1733 28.1027 58.1321 28.0879 58.0925C28.0724 58.0537 28.0509 58.0189 28.0228 57.9888C27.9947 57.9587 27.9622 57.9358 27.9259 57.9191C27.8889 57.9033 27.8512 57.8954 27.8113 57.8954ZM27.7447 64.2335C27.7048 64.2335 27.6671 64.2414 27.6301 64.258C27.5931 64.2738 27.5613 64.2968 27.5332 64.3269C27.5051 64.357 27.4836 64.3918 27.4681 64.4314C27.4526 64.4702 27.4452 64.5113 27.4452 64.5533C27.4452 64.596 27.4526 64.6372 27.4681 64.676C27.4836 64.7156 27.5051 64.7504 27.5332 64.7805C27.5613 64.8106 27.5931 64.8335 27.6301 64.8494C27.6671 64.866 27.7048 64.8739 27.7447 64.8739C27.7847 64.8739 27.8224 64.866 27.8594 64.8494C27.8956 64.8335 27.9281 64.8106 27.9562 64.7805C27.9843 64.7504 28.0058 64.7156 28.0213 64.676C28.0361 64.6372 28.0443 64.596 28.0443 64.5533C28.0435 64.5113 28.0354 64.471 28.0198 64.4322C28.0043 64.3942 27.9829 64.3601 27.9548 64.33C27.9267 64.3008 27.8941 64.2778 27.8579 64.262C27.8216 64.2461 27.7839 64.2382 27.7447 64.2382V64.2335Z" fill="#18253B"/>
<path d="M14.8205 40.2103C14.7969 40.2103 14.7762 40.2024 14.7577 40.1866C14.7392 40.1708 14.7281 40.1502 14.7229 40.1256L13.4826 33.9831C13.4767 33.9538 13.4812 33.9269 13.496 33.9015C13.5107 33.877 13.5322 33.8612 13.5596 33.8548C13.5862 33.8485 13.6121 33.8533 13.635 33.8691C13.6587 33.8849 13.6735 33.9079 13.6794 33.9372L14.9278 40.0789C14.933 40.1082 14.9285 40.1351 14.913 40.1605C14.8982 40.1858 14.8775 40.2016 14.8501 40.2088L14.8205 40.2103Z" fill="#18253B"/>
<path d="M40.1956 51.5486H26.7662C26.676 51.5486 26.5865 51.5383 26.4985 51.5193C26.4098 51.5003 26.324 51.4726 26.2404 51.4354C26.1576 51.3982 26.0784 51.3523 26.0037 51.2992C25.9283 51.2454 25.8588 51.1844 25.7952 51.1155C25.7316 51.0475 25.6746 50.973 25.6243 50.8931C25.5748 50.8123 25.5319 50.7276 25.4979 50.639C25.4631 50.5495 25.4365 50.4577 25.4187 50.3627C25.401 50.2685 25.3921 50.1727 25.3921 50.0761L28.1574 29.3249C28.1759 29.1967 28.2047 29.0708 28.2447 28.9473C28.2846 28.8246 28.3349 28.7066 28.3948 28.5934C28.4547 28.4802 28.5235 28.3733 28.6019 28.2736C28.6795 28.173 28.7653 28.082 28.8585 27.9981C28.9517 27.915 29.0515 27.8413 29.1573 27.7772C29.2631 27.7131 29.374 27.66 29.4886 27.6173C29.604 27.5745 29.7209 27.5437 29.8414 27.5239C29.9612 27.5033 30.0825 27.4954 30.2038 27.4993H43.0023C43.0925 27.4993 43.182 27.5088 43.27 27.5278C43.3588 27.5468 43.4446 27.5745 43.5274 27.6118C43.611 27.649 43.6901 27.6941 43.7656 27.7479C43.8403 27.8018 43.9098 27.8627 43.9734 27.9308C44.037 27.9989 44.0939 28.0733 44.1442 28.1533C44.1945 28.2332 44.2374 28.3179 44.2714 28.4074C44.3062 28.4968 44.3328 28.5887 44.3506 28.6829C44.3683 28.7779 44.3772 28.8737 44.3779 28.9695L41.569 50.0761C41.569 50.1727 41.5601 50.2685 41.5424 50.3627C41.5246 50.4577 41.4987 50.5495 41.464 50.639C41.4292 50.7276 41.3871 50.8123 41.3368 50.8931C41.2865 50.973 41.2295 51.0475 41.1659 51.1155C41.1023 51.1844 41.0328 51.2454 40.9581 51.2992C40.8834 51.3523 40.8043 51.3982 40.7207 51.4354C40.6379 51.4726 40.5521 51.5003 40.4633 51.5193C40.3746 51.5383 40.2858 51.5486 40.1956 51.5486Z" fill="#18253B"/>
<path d="M39.439 29.0795H33.9587C33.9165 29.0795 33.8751 29.0748 33.8344 29.0645C33.793 29.055 33.7538 29.0407 33.7161 29.0225C33.6776 29.0035 33.6421 28.9805 33.6081 28.9536C33.5748 28.9267 33.5445 28.8966 33.5172 28.8626C33.4898 28.8285 33.4661 28.7921 33.4462 28.7525C33.4254 28.713 33.4099 28.6718 33.3981 28.629C33.3863 28.5863 33.3789 28.542 33.3759 28.4976C33.3729 28.4525 33.3744 28.4082 33.3796 28.3638L33.5601 27.0362C33.5697 26.9618 33.5911 26.8913 33.6251 26.8256C33.6584 26.7591 33.7021 26.7021 33.7546 26.6522C33.8078 26.6032 33.867 26.5652 33.9328 26.539C33.9986 26.5129 34.0667 26.4995 34.1369 26.4995H39.6187C39.6601 26.4995 39.7016 26.505 39.743 26.5145C39.7836 26.524 39.8228 26.5382 39.8613 26.5565C39.899 26.5755 39.9345 26.5984 39.9685 26.6253C40.0018 26.6522 40.0321 26.6823 40.0595 26.7164C40.0869 26.7504 40.1105 26.7868 40.1305 26.8264C40.1505 26.866 40.166 26.9072 40.1778 26.9499C40.1897 26.9927 40.1971 27.037 40.2 27.0813C40.203 27.1265 40.2015 27.1708 40.1956 27.2151L40.0174 28.5435C40.007 28.618 39.9856 28.6876 39.9515 28.7541C39.9183 28.8198 39.8746 28.8776 39.8214 28.9267C39.7681 28.9766 39.709 29.0138 39.6431 29.0399C39.5773 29.0668 39.5093 29.0795 39.439 29.0795Z" fill="#B491CA"/>
<path d="M27.2655 50.9311C27.1738 50.9358 27.0828 50.9279 26.9934 50.9057C26.9039 50.8836 26.8188 50.8487 26.7382 50.8005C26.6576 50.753 26.5851 50.6944 26.52 50.6247C26.4549 50.555 26.4002 50.4775 26.3551 50.3912C26.2212 50.1315 26.1761 49.8544 26.2205 49.5615L26.2294 49.4918C26.9556 43.8726 28.6582 30.6747 28.7979 29.4848C28.9747 27.972 30.7209 28.1414 30.7379 28.143C30.7652 28.1453 30.7882 28.1588 30.8059 28.1817C30.8237 28.2047 30.8303 28.2316 30.8274 28.2609C30.8251 28.291 30.8133 28.3147 30.7911 28.3337C30.7697 28.3527 30.7453 28.3607 30.7172 28.3575C30.6536 28.3575 29.15 28.2079 28.9976 29.5197C28.8578 30.7111 27.1538 43.9106 26.4283 49.5298L26.4187 49.5995C26.3825 49.8433 26.4194 50.0729 26.5304 50.2882C26.5703 50.3635 26.6191 50.4307 26.6776 50.4893C26.736 50.5487 26.8011 50.597 26.8728 50.6358C26.9453 50.6738 27.0207 50.6999 27.0999 50.7134C27.179 50.7276 27.2589 50.7284 27.338 50.7165C27.3661 50.715 27.3905 50.7237 27.4112 50.7435C27.4319 50.764 27.4423 50.7886 27.4438 50.8179C27.4452 50.848 27.4371 50.8741 27.4186 50.8962C27.4001 50.9192 27.3772 50.9311 27.3491 50.9327L27.2655 50.9311Z" fill="#B491CA"/>
<path d="M23.4988 44.7988C23.4988 44.7988 24.1193 45.604 25.4979 45.4298C27.7913 45.0973 29.4502 44.4632 31.2104 43.7499C32.248 43.3564 31.9855 42.4484 31.6586 42.5046C31.5033 42.5457 32.2295 42.3003 32.3767 42.2457C33.6606 41.7058 33.0483 40.751 32.4995 40.8096C33.5519 40.5753 33.3848 39.3324 32.6962 39.4266C33.4314 39.1709 33.2339 38.0388 32.0972 38.2066C31.4619 38.2415 26.318 39.4464 26.318 39.4464L26.8298 39.2809L27.0717 37.4664C25.5903 38.0617 24.2731 38.9405 23.1216 40.1027C22.9167 40.314 22.7614 40.5618 22.6564 40.846L23.4988 44.7988Z" fill="#CF856A"/>
<path d="M23.8775 45.5343C23.8775 45.5343 14.3154 48.2933 7.19764 48.1009C7.19764 48.1009 3.55815 48.1104 3.30078 43.9866C3.04266 39.8636 7.04825 40.0607 7.04825 40.0607C14.1475 39.5366 23.0565 39.5034 23.0565 39.5034C23.7037 41.3709 23.9374 43.3976 23.8775 45.5343Z" fill="#E9EAF6"/>
<path d="M27.6345 40.4209C27.6116 40.4201 27.5916 40.4114 27.5753 40.3948C27.5583 40.3774 27.5494 40.3568 27.5472 40.3323C27.5457 40.3077 27.5517 40.2855 27.5657 40.2665C27.5798 40.2468 27.5982 40.2349 27.6204 40.2301L32.6807 39.3324C32.7058 39.3253 32.7302 39.3292 32.7517 39.3443C32.7739 39.3601 32.7872 39.3815 32.7916 39.4092C32.796 39.4377 32.7901 39.4622 32.7739 39.4844C32.7576 39.5065 32.7361 39.5192 32.7102 39.5216L27.65 40.4193L27.6345 40.4209Z" fill="#18253B"/>
<path d="M28.4251 41.5348C28.4029 41.5348 28.3837 41.5269 28.3667 41.511C28.3497 41.4952 28.34 41.4754 28.3371 41.4517C28.3334 41.4255 28.3386 41.4018 28.3541 41.3812C28.3689 41.3598 28.3881 41.3472 28.4133 41.344L32.4854 40.7146C32.5098 40.7115 32.532 40.717 32.552 40.7328C32.5719 40.7487 32.5838 40.77 32.5875 40.7962C32.5904 40.8223 32.5852 40.846 32.5705 40.8674C32.5557 40.8888 32.5357 40.9015 32.5113 40.9054L28.4377 41.5332L28.4251 41.5348Z" fill="#18253B"/>
<path d="M29.0087 43.0492C28.9858 43.0485 28.9658 43.0397 28.9488 43.0223C28.9325 43.0057 28.9229 42.9851 28.9214 42.9606C28.9192 42.936 28.9259 42.9139 28.9399 42.8941C28.954 42.8743 28.9717 42.8624 28.9947 42.8585L31.6446 42.4096C31.669 42.4056 31.6912 42.4112 31.7111 42.427C31.7311 42.442 31.7422 42.4634 31.7452 42.4895C31.7496 42.5157 31.7444 42.5386 31.7296 42.56C31.7156 42.5814 31.6964 42.5948 31.6727 42.5988L29.0302 43.0477L29.0087 43.0492Z" fill="#18253B"/>
<mask id="mask0_1127_6712" style="mask-type:luminance" maskUnits="userSpaceOnUse" x="9" y="39" width="59" height="37">
<path d="M9.46667 39.3173H67.4027V75.4585H9.46667V39.3173Z" fill="white"/>
</mask>
<g mask="url(#mask0_1127_6712)">
<path d="M61.3196 45.239C61.3196 45.292 61.3736 46.5437 60.0786 47.2641C60.0542 47.2775 60.0283 47.2791 60.0017 47.2704C59.975 47.2617 59.9558 47.2435 59.9425 47.2174C59.9292 47.1912 59.927 47.1635 59.9358 47.135C59.944 47.1057 59.961 47.0852 59.9861 47.0717C61.1598 46.4186 61.1192 45.2968 61.1162 45.2453C61.1147 45.2152 61.1236 45.1891 61.1428 45.167C61.1613 45.1448 61.1843 45.1321 61.2124 45.1305C61.2412 45.129 61.2663 45.1385 61.2878 45.1598C61.3092 45.1812 61.3196 45.2073 61.3196 45.239ZM67.0898 45.1741L63.7151 45.7401L63.9466 45.1654C63.9577 45.1385 63.9584 45.1107 63.9481 45.083C63.9377 45.0553 63.9192 45.0355 63.8941 45.0245C63.8682 45.0126 63.8423 45.0126 63.8172 45.0237C63.7913 45.0347 63.7728 45.0537 63.7617 45.0807L62.6486 47.8317C62.6338 47.8491 62.6257 47.8697 62.6235 47.8935L62.3136 48.678C62.3069 48.6946 62.304 48.712 62.3055 48.7302C62.3069 48.7485 62.3121 48.7643 62.321 48.7793C62.3306 48.7952 62.3424 48.8062 62.3572 48.815C62.372 48.8237 62.3883 48.8276 62.4053 48.8276C62.4497 48.8284 62.48 48.8062 62.4978 48.7627L62.8084 48.0011C63.0813 47.9615 64.1729 47.7937 65.0907 47.5594C65.6617 47.4137 65.8836 47.4976 65.9657 47.5594C66.0004 47.5839 66.0226 47.6172 66.0322 47.6607C66.0337 47.69 66.0448 47.7137 66.064 47.7335C66.084 47.7541 66.1077 47.7636 66.1343 47.7636C66.1624 47.7636 66.1861 47.7525 66.206 47.7312C66.2253 47.7098 66.2349 47.6837 66.2341 47.6544C66.2253 47.5451 66.1801 47.4588 66.0973 47.3947C65.9035 47.2292 65.55 47.2174 65.0427 47.3472C64.235 47.5546 63.2921 47.7074 62.9016 47.7668L63.1619 47.1232C63.4111 47.0796 65.4768 46.7194 66.1668 46.5603C66.4028 46.5049 66.581 46.5215 66.6801 46.6078C66.7385 46.6592 66.7696 46.725 66.7733 46.8057C66.7733 46.8358 66.7836 46.8611 66.8029 46.8817C66.8228 46.9031 66.8465 46.9134 66.8739 46.9134C66.902 46.9134 66.9256 46.9031 66.9456 46.8817C66.9648 46.8611 66.9752 46.8358 66.9752 46.8057C66.9708 46.6577 66.916 46.5357 66.811 46.4407C66.6557 46.3077 66.4279 46.2745 66.1254 46.3473C65.5049 46.4906 63.7802 46.7938 63.258 46.8857L63.6271 45.9705L67.1283 45.3847C67.1564 45.3799 67.1786 45.3657 67.1948 45.3419C67.2111 45.3174 67.2178 45.2905 67.2133 45.2612C67.2089 45.2311 67.1956 45.2081 67.1727 45.1899C67.1505 45.1725 67.1253 45.1662 67.0972 45.1709L67.0898 45.1741ZM37.4044 73.3986C35.4505 73.6772 31.0351 73.7485 26.4061 73.7303C26.9415 65.7353 26.9519 51.2976 26.9519 51.1417C26.9519 51.1124 26.9423 51.0862 26.9223 51.0657C26.9031 51.0443 26.8794 51.034 26.8513 51.034C26.8232 51.034 26.7995 51.0443 26.7803 51.0657C26.7603 51.0862 26.7507 51.1124 26.7507 51.1417C26.7507 51.2976 26.7396 65.7503 26.2034 73.7287C19.2247 73.7042 11.8341 73.4849 11.7098 73.4817C11.6825 73.4817 11.6588 73.492 11.6388 73.5134C11.6189 73.534 11.6092 73.5593 11.6092 73.5894C11.6092 73.6195 11.6189 73.6448 11.6388 73.6654C11.6588 73.6868 11.6825 73.697 11.7098 73.697C11.8341 73.697 19.2144 73.9195 26.1953 73.9448C26.1613 74.4428 26.1258 74.8972 26.0866 75.331C26.0844 75.3603 26.0925 75.3872 26.1103 75.4094C26.128 75.4324 26.1509 75.4458 26.1783 75.449H26.1879C26.2138 75.4482 26.236 75.4387 26.2552 75.4205C26.2744 75.4015 26.2855 75.3785 26.2885 75.3508C26.327 74.9123 26.3632 74.4412 26.3972 73.9464H27.4792C31.7111 73.9464 35.6161 73.8633 37.4259 73.606C37.4532 73.602 37.4754 73.5878 37.4917 73.564C37.5087 73.5403 37.5146 73.5142 37.5109 73.4849C37.5065 73.458 37.4939 73.4358 37.4732 73.4192C37.4525 73.4025 37.4296 73.3962 37.4044 73.3986ZM22.1343 45.8027C22.1335 45.8074 22.1335 45.8122 22.1343 45.8161L12.9287 47.88C12.9006 47.8832 12.8769 47.8958 12.8591 47.9196C12.8407 47.9433 12.8333 47.9702 12.8362 48.0011C12.8392 48.0312 12.851 48.0565 12.8732 48.0755C12.8954 48.0953 12.9205 48.1032 12.9494 48.1009H12.9693L23.8989 45.6507C23.927 45.6451 23.9499 45.6301 23.9662 45.6047C23.9825 45.5794 23.9877 45.5517 23.9817 45.5216C23.9751 45.4915 23.9603 45.4678 23.9359 45.452C23.9107 45.4353 23.8848 45.4314 23.8567 45.4393L22.365 45.7718C22.9389 44.1117 22.0226 40.569 21.7637 39.6292L23.058 39.6095C23.0861 39.6087 23.1098 39.5976 23.129 39.5762C23.1482 39.5548 23.1578 39.5295 23.1578 39.4994C23.1578 39.4693 23.1482 39.444 23.1275 39.4226C23.1075 39.402 23.0831 39.3917 23.055 39.3933L21.7016 39.4131V39.4036C21.6846 39.3522 21.6506 39.3276 21.5995 39.3316C21.5485 39.3347 21.5182 39.3632 21.5078 39.4171L9.7063 39.596C9.67893 39.5968 9.65527 39.6071 9.63604 39.6285C9.61607 39.649 9.60645 39.6744 9.60571 39.7037C9.60645 39.7337 9.61607 39.7591 9.63604 39.7797C9.65527 39.801 9.67893 39.8113 9.7063 39.8121L21.5544 39.6324C21.7837 40.4645 22.7821 44.2645 22.1343 45.8027ZM15.0394 60.4897L15.4921 55.4349C15.4861 55.4198 15.4824 55.4032 15.4832 55.3866C15.4847 55.3692 15.4906 55.3533 15.5002 55.3383L15.6548 53.6615C15.657 53.6322 15.6681 53.6085 15.6888 53.5895C15.7095 53.5697 15.7332 53.5618 15.7605 53.5642L22.6941 53.9188C22.7215 53.9212 22.7444 53.9323 22.7629 53.9545C22.7814 53.9758 22.7903 54.0012 22.7903 54.0305L22.6224 60.6227C22.6224 60.652 22.612 60.6765 22.5928 60.6963C22.5736 60.7169 22.5506 60.7272 22.5233 60.7272L15.1452 60.6076C15.1156 60.6068 15.0905 60.5957 15.0705 60.5728C15.0483 60.5498 15.038 60.5221 15.0394 60.4897ZM15.7065 55.2924L22.5292 55.7025C22.5351 55.7009 22.541 55.7009 22.5462 55.7025L22.5869 54.1247L15.8493 53.785L15.7065 55.2924ZM15.2502 60.3939L22.4197 60.5095L22.5358 55.913C22.5299 55.9138 22.524 55.9138 22.5188 55.913L15.6954 55.5045L15.2502 60.3939ZM29.5345 60.4897L29.9872 55.4349C29.9805 55.4198 29.9775 55.4032 29.9775 55.3866C29.9798 55.3692 29.9849 55.3533 29.9945 55.3383L30.1499 53.6615C30.1521 53.633 30.1632 53.6085 30.1839 53.5895C30.2046 53.5705 30.2283 53.5618 30.2556 53.5642L37.1885 53.9188C37.2158 53.9212 37.2388 53.9323 37.2573 53.9545C37.2757 53.9758 37.2854 54.0012 37.2846 54.0305L37.1175 60.6227C37.1167 60.652 37.1071 60.6765 37.0872 60.6971C37.0672 60.7177 37.0435 60.728 37.0162 60.7272L29.6381 60.6076C29.6092 60.6076 29.5848 60.5957 29.5648 60.5728C29.5434 60.5498 29.533 60.5221 29.5345 60.4897ZM30.2009 55.2924L37.0243 55.7025C37.0302 55.7009 37.0354 55.7009 37.0413 55.7025L37.0812 54.1247L30.3421 53.7795L30.2009 55.2924ZM29.7453 60.3939L36.9141 60.5095L37.0302 55.913C37.025 55.9138 37.0191 55.9138 37.0132 55.913L30.1898 55.5045L29.7453 60.3939ZM56.8562 44.2407C56.8296 44.2407 56.8059 44.251 56.786 44.2716C56.7667 44.2914 56.7564 44.3167 56.7556 44.3452C56.7556 44.3935 56.6366 49.092 55.8777 50.7134C55.8659 50.7403 55.8637 50.7672 55.8726 50.7957C55.8814 50.8242 55.8985 50.8448 55.9229 50.8582C55.9369 50.8662 55.9517 50.8693 55.968 50.8693C56.0094 50.8701 56.0397 50.8503 56.0582 50.81C56.8333 49.1498 56.9524 44.5463 56.9575 44.3507C56.9575 44.3207 56.9479 44.2945 56.9287 44.2732C56.9087 44.2518 56.8843 44.2407 56.8562 44.2407ZM44.4504 40.3877L43.063 40.9822C43.0371 40.9933 43.0186 41.0131 43.0075 41.04C42.9972 41.0677 42.9964 41.0954 43.0068 41.1231C43.0179 41.1508 43.0356 41.1706 43.0615 41.1825C43.0874 41.1936 43.1125 41.1944 43.1384 41.1833L44.2411 40.7099L43.2331 42.4563C43.219 42.4816 43.2146 42.5085 43.2213 42.537C43.2279 42.5663 43.2427 42.5885 43.2656 42.6043C43.2819 42.6154 43.2997 42.621 43.3189 42.621C43.3566 42.621 43.3854 42.6035 43.4054 42.5695L44.5703 40.5507C44.5984 40.5088 44.5984 40.4668 44.5703 40.4241C44.5562 40.4035 44.5377 40.39 44.5148 40.3829C44.4919 40.3766 44.4697 40.3782 44.4475 40.3877H44.4504Z" fill="#18253B"/>
</g>
<path d="M29.6735 18.1608C27.721 19.0728 26.3321 18.7704 25.5888 18.4403C25.5777 18.4411 25.5666 18.4411 25.5548 18.4403C25.5393 18.4435 25.523 18.4435 25.5067 18.4403C25.3329 18.3801 21.2408 16.9274 20.9228 15.0884C20.9154 15.0425 20.9235 15.0005 20.9487 14.9625C20.9731 14.9237 21.0071 14.9008 21.05 14.892C21.0929 14.8841 21.1321 14.8936 21.1676 14.9198C21.2038 14.9467 21.2253 14.9823 21.2334 15.0282C21.4361 16.207 23.5683 17.2781 24.7797 17.7959C24.0571 16.6519 23.8493 14.9934 23.8042 14.379C23.376 13.8019 22.4981 12.7957 21.3399 12.3872C21.3 12.373 21.2697 12.3453 21.2512 12.3041C21.2319 12.2637 21.229 12.2218 21.2423 12.1782C21.2556 12.1347 21.2815 12.1022 21.3192 12.0816C21.3577 12.061 21.3969 12.0579 21.4375 12.0721C22.5728 12.4783 23.4337 13.3847 23.9188 14.0046C26.608 11.0374 31.0662 11.111 31.0662 11.111C31.9034 13.2889 32.7021 16.7469 29.6735 18.1608Z" fill="#E9EAF6"/>
<path d="M26.4437 14.1819C26.4267 14.1946 26.4082 14.2001 26.3875 14.2001C26.352 14.2001 26.3239 14.1851 26.304 14.1534C26.2884 14.1289 26.284 14.102 26.2892 14.0727C26.2936 14.0434 26.3077 14.0196 26.3306 14.0022C26.4312 13.931 28.8023 12.2447 30.6165 12.7854C30.6431 12.7941 30.6631 12.8115 30.6764 12.8369C30.6897 12.863 30.6934 12.8899 30.686 12.9184C30.6793 12.9477 30.6631 12.9691 30.6394 12.9841C30.615 12.9992 30.5891 13.0031 30.5625 12.9952C28.8393 12.4782 26.4667 14.1653 26.4437 14.1819ZM30.7688 14.3315C30.7614 14.3022 30.7459 14.2809 30.7215 14.2658C30.6971 14.2508 30.6712 14.2484 30.6446 14.2563L26.9829 15.3702C26.9563 15.3789 26.9363 15.3955 26.9223 15.4217C26.9089 15.447 26.906 15.4747 26.9134 15.5032C26.9282 15.5555 26.9607 15.5808 27.011 15.5816H27.0391L30.7 14.4677C30.7274 14.459 30.7481 14.4416 30.7614 14.4147C30.7747 14.3877 30.777 14.36 30.7688 14.3315ZM30.561 15.8848C29.5633 16.9092 27.2469 16.7928 27.2233 16.7912C27.1937 16.7865 27.1671 16.7936 27.1441 16.8142C27.1205 16.8348 27.1079 16.8609 27.1064 16.8934C27.1049 16.925 27.1153 16.9527 27.1367 16.9749C27.1582 16.9979 27.1841 17.0082 27.2144 17.0058C27.2329 17.0058 27.3335 17.0058 27.4932 17.0058C28.1618 17.0058 29.8443 16.914 30.7 16.0344C30.72 16.0138 30.7311 15.9885 30.7311 15.9592C30.7318 15.9291 30.723 15.903 30.703 15.8816C30.6838 15.8602 30.6608 15.8492 30.6327 15.8484C30.6046 15.8476 30.581 15.8579 30.561 15.8785V15.8848Z" fill="#B491CA"/>
<path d="M28.1803 22.3693C27.3431 23.2655 26.0621 23.731 24.4491 23.731C24.2028 23.731 23.9484 23.7207 23.6881 23.6978C22.7658 23.6178 21.8635 23.431 20.9805 23.1365C20.9538 23.127 20.9339 23.1095 20.922 23.0826C20.9095 23.0557 20.9072 23.0288 20.9169 23.0003C20.9257 22.9718 20.942 22.9512 20.9671 22.9378C20.9923 22.9251 21.0174 22.9227 21.0441 22.9322C21.4516 23.0676 21.865 23.1784 22.2843 23.2639L21.9589 21.2309C21.9552 21.2016 21.9619 21.1763 21.9774 21.1525C21.9937 21.1296 22.0151 21.1153 22.0418 21.1106C22.0684 21.1058 22.0928 21.1114 22.115 21.1272C22.1372 21.1438 22.1512 21.166 22.1571 21.1937L22.4951 23.3075C22.8331 23.374 23.2133 23.4318 23.6149 23.4729L23.4011 21.664C23.3974 21.6339 23.4041 21.6078 23.4211 21.584C23.4381 21.5603 23.4603 21.5468 23.4876 21.5428C23.5157 21.5389 23.5402 21.546 23.5623 21.5642C23.5845 21.5824 23.5971 21.6062 23.6008 21.6355L23.8212 23.4895C24.2834 23.526 24.7457 23.522 25.2079 23.4785L25.0171 21.7867C25.0134 21.7574 25.0201 21.7305 25.0371 21.7067C25.0541 21.683 25.0763 21.6695 25.1036 21.6655C25.131 21.6624 25.1561 21.6703 25.1783 21.6885C25.1998 21.7067 25.2131 21.7305 25.2168 21.7598L25.4076 23.4571C25.8883 23.3993 26.3535 23.2758 26.8032 23.0866L26.5769 21.4494C26.5724 21.4201 26.5784 21.3932 26.5946 21.3695C26.6109 21.3449 26.6331 21.3315 26.6605 21.3267C26.6886 21.3228 26.713 21.3291 26.7359 21.3473C26.7581 21.3647 26.7714 21.3885 26.7751 21.4178L26.994 22.9971C27.3875 22.8048 27.7388 22.5467 28.0472 22.2213C28.0664 22.2007 28.0901 22.1896 28.1182 22.1896C28.1463 22.1896 28.1699 22.1999 28.1899 22.2213C28.2099 22.2427 28.2195 22.268 28.2195 22.2981C28.2195 22.3282 28.2091 22.3535 28.1899 22.3741L28.1803 22.3693Z" fill="#E9EAF6"/>
</svg>
