<svg xmlns="http://www.w3.org/2000/svg" xmlns:xlink="http://www.w3.org/1999/xlink" width="500" zoomAndPan="magnify" viewBox="0 0 375 374.999991" height="500" preserveAspectRatio="xMidYMid meet" version="1.0"><defs><clipPath id="ae7ffb25bf"><path d="M 50 194 L 356 194 L 356 372.328125 L 50 372.328125 Z M 50 194 " clip-rule="nonzero"/></clipPath></defs><path fill="#cf856a" d="M 230.589844 203.542969 C 230.589844 203.542969 252.933594 215.179688 257.496094 216.648438 C 262.058594 218.113281 304.769531 229.386719 307.457031 228.835938 C 310.144531 228.289062 312.757812 223.542969 315.410156 221.316406 C 318.0625 219.089844 330.242188 212.304688 332.09375 212.648438 C 333.945312 212.996094 336.035156 217.246094 323.347656 223.296875 C 323.347656 223.296875 335.273438 222.332031 338.464844 222.234375 C 341.660156 222.136719 351.742188 221.691406 353.832031 223.003906 C 353.890625 223.117188 358.828125 223.660156 358.425781 226.691406 C 358.023438 229.71875 355.394531 229.820312 353.40625 231.703125 C 351.414062 233.585938 350.128906 236.796875 345.164062 239.222656 C 340.203125 241.648438 332.921875 244.734375 327.148438 245.324219 C 320.726562 245.855469 314.300781 245.902344 307.875 245.457031 C 303.714844 245.070312 268.175781 236.894531 262.964844 237.199219 C 257.757812 237.503906 241.554688 234.742188 234.300781 231.308594 C 225.601562 227.171875 195.289062 226.894531 195.289062 226.894531 C 195.289062 226.894531 230.71875 203.125 230.589844 203.542969 Z M 230.589844 203.542969 " fill-opacity="1" fill-rule="nonzero"/><path fill="#af6a5a" d="M 101.546875 76.980469 C 97.28125 70.652344 92.367188 64.875 86.804688 59.648438 C 77.34375 50.726562 78.796875 33.761719 91.835938 28.953125 C 89.761719 5.460938 111.597656 2.5625 121.386719 5.804688 C 131.171875 9.050781 134.492188 15.636719 152.148438 12.917969 C 165.03125 10.902344 174.769531 38.160156 145.824219 43.625 L 114.703125 85.957031 Z M 101.546875 76.980469 " fill-opacity="1" fill-rule="nonzero"/><path fill="#cf856a" d="M 117.90625 69.542969 C 122.367188 65.070312 118.929688 56.265625 119.746094 53.734375 C 120.566406 51.203125 123.84375 50.277344 132.433594 46.289062 C 141.027344 42.296875 140.066406 34.820312 141.191406 29.714844 C 142.3125 24.613281 152.714844 23.164062 152.714844 23.164062 C 152.714844 23.164062 158.785156 40.9375 162.191406 50.007812 C 165.597656 59.074219 168.503906 74.636719 162.789062 83.15625 C 157.070312 91.675781 144.457031 91.789062 144.457031 91.789062 C 142.402344 98.113281 149.226562 104.945312 149.226562 104.945312 L 158.285156 106 C 158.285156 106 152.917969 118.238281 140.886719 122.382812 C 128.855469 126.527344 114.457031 117.207031 114.457031 117.207031 C 114.941406 113.0625 109.261719 105.738281 109.261719 105.738281 C 112.066406 99.757812 111.3125 74.269531 111.3125 74.269531 C 111.3125 74.269531 97.632812 76.890625 98.664062 65.71875 C 99.695312 54.542969 112.949219 60.292969 112.949219 60.292969 Z M 117.90625 69.542969 " fill-opacity="1" fill-rule="nonzero"/><path fill="#18253b" d="M 148.414062 69.691406 C 146.097656 69.675781 143.890625 69.1875 141.789062 68.214844 C 141.667969 68.15625 141.589844 68.066406 141.550781 67.9375 C 141.511719 67.8125 141.519531 67.691406 141.582031 67.578125 C 141.644531 67.460938 141.738281 67.386719 141.863281 67.347656 C 141.988281 67.308594 142.105469 67.320312 142.222656 67.378906 C 142.542969 67.542969 150.265625 71.425781 156.605469 65.511719 C 156.699219 65.421875 156.808594 65.375 156.941406 65.375 C 157.070312 65.375 157.183594 65.421875 157.277344 65.511719 C 157.367188 65.605469 157.414062 65.714844 157.414062 65.847656 C 157.414062 65.980469 157.367188 66.089844 157.277344 66.183594 C 156.085938 67.324219 154.722656 68.199219 153.1875 68.804688 C 151.65625 69.410156 150.0625 69.707031 148.414062 69.691406 Z M 148.414062 69.691406 " fill-opacity="1" fill-rule="nonzero"/><path fill="#18253b" d="M 148.011719 74.867188 C 147.785156 74.878906 147.554688 74.878906 147.324219 74.867188 C 147.195312 74.859375 147.085938 74.804688 147 74.703125 C 146.914062 74.605469 146.878906 74.488281 146.890625 74.359375 C 146.902344 74.230469 146.960938 74.125 147.058594 74.039062 C 147.15625 73.957031 147.269531 73.917969 147.398438 73.925781 C 147.449219 73.925781 152.082031 74.261719 154.84375 71.640625 C 154.9375 71.546875 155.046875 71.5 155.179688 71.5 C 155.308594 71.5 155.421875 71.546875 155.515625 71.640625 C 155.609375 71.730469 155.65625 71.84375 155.65625 71.976562 C 155.65625 72.105469 155.609375 72.21875 155.515625 72.3125 C 153.074219 74.605469 149.511719 74.867188 148.011719 74.867188 Z M 148.011719 74.867188 " fill-opacity="1" fill-rule="nonzero"/><path fill="#18253b" d="M 137.617188 69.863281 C 137.488281 69.863281 137.378906 69.816406 137.285156 69.726562 C 137.195312 69.632812 137.144531 69.523438 137.144531 69.394531 C 137.003906 64.144531 142.179688 63.003906 142.238281 62.996094 C 142.363281 62.972656 142.480469 62.996094 142.589844 63.0625 C 142.699219 63.132812 142.765625 63.230469 142.796875 63.359375 C 142.820312 63.488281 142.796875 63.605469 142.726562 63.714844 C 142.65625 63.824219 142.554688 63.894531 142.425781 63.921875 C 142.246094 63.921875 137.972656 64.921875 138.085938 69.371094 C 138.089844 69.5 138.046875 69.613281 137.957031 69.710938 C 137.867188 69.808594 137.757812 69.855469 137.628906 69.863281 Z M 137.617188 69.863281 " fill-opacity="1" fill-rule="nonzero"/><path fill="#18253b" d="M 154.148438 55.574219 C 155.523438 57.78125 151.402344 61.589844 150.929688 62.015625 C 150.832031 62.109375 150.714844 62.15625 150.578125 62.152344 C 150.417969 62.15625 150.285156 62.097656 150.175781 61.980469 C 150.074219 61.875 150.023438 61.75 150.023438 61.605469 C 150.023438 61.457031 150.074219 61.332031 150.175781 61.226562 C 151.46875 60.058594 153.917969 57.28125 153.207031 56.140625 C 152.074219 54.332031 146.488281 49.023438 146.433594 48.972656 C 146.328125 48.871094 146.277344 48.746094 146.277344 48.597656 C 146.277344 48.449219 146.328125 48.324219 146.433594 48.21875 C 146.535156 48.117188 146.664062 48.066406 146.808594 48.066406 C 146.953125 48.066406 147.082031 48.117188 147.183594 48.21875 C 147.464844 48.417969 152.96875 53.652344 154.148438 55.574219 Z M 147.757812 41.511719 L 147.921875 41.511719 C 148.179688 41.515625 148.347656 41.394531 148.429688 41.152344 C 148.480469 40.996094 149.75 37.40625 155.308594 38.695312 C 155.453125 38.726562 155.585938 38.703125 155.710938 38.625 C 155.835938 38.546875 155.914062 38.433594 155.949219 38.292969 C 155.980469 38.148438 155.960938 38.015625 155.882812 37.890625 C 155.804688 37.765625 155.691406 37.6875 155.546875 37.652344 C 148.996094 36.148438 147.429688 40.757812 147.421875 40.808594 C 147.367188 40.953125 147.371094 41.09375 147.4375 41.234375 C 147.503906 41.371094 147.609375 41.464844 147.757812 41.511719 Z M 138.316406 46.371094 C 138.457031 46.402344 138.59375 46.378906 138.71875 46.300781 C 138.84375 46.222656 138.921875 46.109375 138.953125 45.96875 C 138.984375 45.824219 138.964844 45.691406 138.886719 45.566406 C 138.808594 45.441406 138.695312 45.363281 138.550781 45.328125 C 132 43.828125 130.4375 48.441406 130.429688 48.492188 C 130.382812 48.628906 130.390625 48.761719 130.457031 48.890625 C 130.523438 49.023438 130.625 49.109375 130.761719 49.152344 L 130.925781 49.152344 C 131.183594 49.15625 131.351562 49.035156 131.433594 48.792969 C 131.492188 48.664062 132.753906 45.082031 138.316406 46.371094 Z M 137.765625 51.398438 C 137.558594 51.375 137.359375 51.390625 137.160156 51.449219 C 136.960938 51.503906 136.777344 51.597656 136.617188 51.726562 C 136.453125 51.855469 136.320312 52.011719 136.222656 52.191406 C 136.121094 52.375 136.058594 52.566406 136.035156 52.773438 C 136.011719 52.980469 136.027344 53.183594 136.085938 53.382812 C 136.140625 53.582031 136.234375 53.761719 136.363281 53.925781 C 136.492188 54.085938 136.644531 54.21875 136.828125 54.320312 C 137.007812 54.421875 137.203125 54.484375 137.40625 54.507812 C 137.613281 54.53125 137.816406 54.515625 138.015625 54.457031 C 138.214844 54.402344 138.398438 54.308594 138.558594 54.179688 C 138.722656 54.050781 138.855469 53.898438 138.953125 53.714844 C 139.054688 53.535156 139.117188 53.339844 139.140625 53.136719 C 139.167969 52.929688 139.148438 52.726562 139.09375 52.527344 C 139.035156 52.324219 138.945312 52.144531 138.816406 51.980469 C 138.6875 51.820312 138.53125 51.6875 138.347656 51.585938 C 138.167969 51.484375 137.972656 51.421875 137.765625 51.398438 Z M 156.164062 46.722656 C 155.957031 46.699219 155.753906 46.714844 155.554688 46.773438 C 155.355469 46.828125 155.175781 46.921875 155.011719 47.050781 C 154.847656 47.179688 154.71875 47.335938 154.617188 47.515625 C 154.515625 47.695312 154.453125 47.890625 154.429688 48.097656 C 154.40625 48.300781 154.421875 48.503906 154.480469 48.703125 C 154.535156 48.902344 154.628906 49.085938 154.757812 49.246094 C 154.886719 49.410156 155.042969 49.542969 155.222656 49.644531 C 155.40625 49.742188 155.597656 49.804688 155.804688 49.828125 C 156.011719 49.855469 156.210938 49.835938 156.410156 49.78125 C 156.613281 49.722656 156.792969 49.632812 156.953125 49.503906 C 157.117188 49.375 157.25 49.21875 157.351562 49.039062 C 157.453125 48.855469 157.515625 48.664062 157.539062 48.457031 C 157.566406 48.25 157.550781 48.046875 157.496094 47.847656 C 157.441406 47.644531 157.351562 47.464844 157.226562 47.296875 C 157.101562 47.132812 156.945312 47 156.765625 46.894531 C 156.585938 46.789062 156.394531 46.722656 156.1875 46.695312 Z M 156.164062 46.722656 " fill-opacity="1" fill-rule="nonzero"/><path fill="#18253b" d="M 160.699219 61 C 160.507812 61 160.367188 60.914062 160.273438 60.746094 C 159.988281 60.203125 159.625 59.722656 159.183594 59.296875 C 158.742188 58.871094 158.246094 58.523438 157.695312 58.253906 C 157.144531 57.988281 156.566406 57.8125 155.960938 57.726562 C 155.355469 57.644531 154.75 57.65625 154.148438 57.761719 C 154.027344 57.769531 153.921875 57.738281 153.824219 57.667969 C 153.730469 57.59375 153.671875 57.496094 153.648438 57.378906 C 153.625 57.261719 153.644531 57.152344 153.707031 57.046875 C 153.765625 56.945312 153.851562 56.875 153.96875 56.835938 C 154.015625 56.835938 158.824219 55.945312 161.101562 60.300781 C 161.164062 60.417969 161.175781 60.539062 161.136719 60.664062 C 161.097656 60.789062 161.019531 60.882812 160.90625 60.941406 C 160.839844 60.980469 160.773438 61 160.699219 61 Z M 160.699219 61 " fill-opacity="1" fill-rule="nonzero"/><path fill="#af6a5a" d="M 144.457031 91.804688 C 146.957031 100.070312 150.953125 104.699219 150.953125 104.699219 L 158.324219 106.015625 C 158.324219 106.015625 152.960938 118.253906 140.929688 122.398438 C 128.894531 126.542969 114.496094 117.222656 114.496094 117.222656 C 114.980469 113.078125 108.675781 105.574219 108.675781 105.574219 C 110.082031 102.570312 111.425781 87.703125 111.394531 83.457031 C 126.945312 93.109375 144.457031 91.804688 144.457031 91.804688 Z M 144.457031 91.804688 " fill-opacity="1" fill-rule="nonzero"/><path fill="#e9eaf6" d="M 95.472656 103.863281 C 95.472656 103.863281 101.828125 111.0625 104.480469 113.085938 C 118.09375 123.375 117.226562 138.980469 110.65625 149.128906 L 56.179688 221.601562 L 56.105469 221.710938 C 48.6875 234.363281 38.488281 235.152344 34.460938 234.882812 C 27.726562 234.472656 30.824219 231.554688 27.90625 225.65625 C 24.5 216.859375 17.097656 218.753906 20.976562 209.660156 L 17.621094 211.855469 C 19.960938 199.0625 36.785156 155 62.988281 118.769531 C 70.761719 107.917969 95.472656 103.863281 95.472656 103.863281 Z M 95.472656 103.863281 " fill-opacity="1" fill-rule="nonzero"/><path fill="#e9eaf6" d="M 302.394531 250.835938 C 302.394531 250.835938 250.15625 248.28125 214.667969 235.824219 C 214.667969 235.824219 206.207031 233.113281 202.382812 225.175781 C 201.417969 223.957031 200.546875 222.675781 199.769531 221.332031 L 199.695312 221.226562 L 145.136719 148.726562 C 138.585938 138.578125 137.699219 122.972656 151.3125 112.683594 C 153.992188 110.660156 160.324219 103.46875 160.324219 103.46875 C 160.324219 103.46875 185.035156 107.5 192.804688 118.371094 C 213.691406 147.25 228.605469 181.082031 234.988281 200.109375 C 269.453125 209.121094 307.359375 221.167969 307.359375 221.167969 C 307.800781 231 305.910156 240.902344 302.394531 250.835938 Z M 302.394531 250.835938 " fill-opacity="1" fill-rule="nonzero"/><path fill="#b491ca" d="M 144.65625 103.003906 L 155.785156 104.410156 C 155.367188 224.160156 142.320312 267.539062 103.300781 103.519531 L 111.015625 102.996094 C 124.359375 107.917969 135.949219 108.785156 144.65625 103.003906 Z M 144.65625 103.003906 " fill-opacity="1" fill-rule="nonzero"/><path fill="#e9eaf6" d="M 61.996094 371.789062 C 61.996094 371.789062 60.628906 302.917969 71.0625 237.542969 C 71.652344 190.132812 64.617188 159.726562 66.6875 133.238281 C 68.171875 114.207031 75.894531 112.339844 75.945312 111.757812 C 87.527344 102.109375 109.335938 102.75 109.335938 102.75 C 122.515625 125.683594 132.828125 177.402344 140.410156 203.335938 C 145.433594 177.355469 148.101562 125.242188 146.144531 102.644531 C 146.144531 102.644531 187.800781 100.136719 192.832031 129.4375 C 192.257812 155.867188 202.914062 298.519531 196.1875 371.828125 Z M 61.996094 371.789062 " fill-opacity="1" fill-rule="nonzero"/><path fill="#e9eaf6" d="M 111.03125 102.601562 L 115.449219 115.550781 L 101.328125 103.003906 C 103.113281 99.113281 106.242188 95.769531 111.03125 93.101562 Z M 144.613281 102.601562 C 145.726562 106.699219 146.351562 112.039062 146.75 117.9375 L 154.351562 103.003906 C 152.566406 99.113281 149.4375 95.769531 144.644531 93.101562 Z M 144.613281 102.601562 " fill-opacity="1" fill-rule="nonzero"/><path fill="#18253b" d="M 159.765625 111.726562 L 152.328125 116.699219 L 159.371094 121.613281 C 159.554688 121.738281 159.628906 121.910156 159.59375 122.128906 L 145.824219 212.453125 C 145.808594 212.574219 145.757812 212.679688 145.667969 212.761719 C 145.578125 212.847656 145.472656 212.894531 145.351562 212.902344 L 145.300781 212.902344 C 145.054688 212.902344 144.886719 212.785156 144.800781 212.550781 C 138.734375 195.792969 100.441406 128.011719 100.058594 127.363281 C 99.992188 127.246094 99.972656 127.125 100.003906 126.996094 C 100.03125 126.867188 100.097656 126.761719 100.203125 126.683594 L 108.855469 120.128906 L 94.375 113.578125 C 94.226562 113.507812 94.128906 113.394531 94.078125 113.242188 C 94.035156 113.085938 94.058594 112.941406 94.144531 112.808594 L 100.566406 102.535156 C 100.644531 102.417969 100.757812 102.347656 100.894531 102.320312 C 101.035156 102.289062 101.164062 102.3125 101.285156 102.390625 C 101.40625 102.464844 101.484375 102.570312 101.519531 102.710938 C 101.554688 102.847656 101.535156 102.976562 101.464844 103.101562 L 95.363281 112.832031 L 110.105469 119.507812 C 110.296875 119.589844 110.398438 119.730469 110.417969 119.933594 C 110.441406 120.136719 110.375 120.296875 110.214844 120.417969 L 101.203125 127.214844 C 104.300781 132.710938 137.472656 191.664062 145.054688 210.316406 L 158.488281 122.300781 L 151.117188 117.125 C 151.042969 117.078125 150.984375 117.011719 150.941406 116.933594 C 150.902344 116.859375 150.878906 116.773438 150.878906 116.6875 C 150.878906 116.597656 150.902344 116.515625 150.941406 116.4375 C 150.984375 116.359375 151.042969 116.296875 151.117188 116.25 L 158.792969 111.121094 L 154.230469 103.058594 C 154.15625 102.933594 154.136719 102.800781 154.175781 102.660156 C 154.214844 102.519531 154.296875 102.410156 154.425781 102.339844 C 154.554688 102.265625 154.6875 102.246094 154.832031 102.285156 C 154.972656 102.324219 155.082031 102.40625 155.15625 102.535156 L 159.960938 111.023438 C 160.03125 111.148438 160.046875 111.277344 160.007812 111.414062 C 159.96875 111.550781 159.890625 111.65625 159.765625 111.726562 Z M 159.765625 111.726562 " fill-opacity="1" fill-rule="nonzero"/><path fill="#18253b" d="M 148.453125 260.132812 C 148.453125 260.34375 148.414062 260.546875 148.335938 260.738281 C 148.253906 260.933594 148.140625 261.105469 147.992188 261.253906 C 147.84375 261.402344 147.671875 261.515625 147.480469 261.59375 C 147.285156 261.675781 147.082031 261.714844 146.875 261.714844 C 146.664062 261.714844 146.464844 261.675781 146.269531 261.59375 C 146.074219 261.515625 145.90625 261.402344 145.757812 261.253906 C 145.609375 261.105469 145.492188 260.933594 145.414062 260.738281 C 145.332031 260.546875 145.292969 260.34375 145.292969 260.132812 C 145.292969 259.925781 145.332031 259.722656 145.414062 259.53125 C 145.492188 259.335938 145.609375 259.164062 145.757812 259.015625 C 145.90625 258.867188 146.074219 258.753906 146.269531 258.675781 C 146.464844 258.59375 146.664062 258.554688 146.875 258.554688 C 147.082031 258.554688 147.285156 258.59375 147.476562 258.675781 C 147.671875 258.757812 147.839844 258.871094 147.988281 259.019531 C 148.136719 259.167969 148.25 259.335938 148.332031 259.53125 C 148.414062 259.722656 148.453125 259.925781 148.453125 260.132812 Z M 146.890625 285.667969 C 146.679688 285.667969 146.480469 285.707031 146.285156 285.785156 C 146.09375 285.867188 145.921875 285.980469 145.773438 286.128906 C 145.625 286.277344 145.511719 286.449219 145.429688 286.640625 C 145.351562 286.835938 145.308594 287.039062 145.308594 287.246094 C 145.308594 287.457031 145.351562 287.660156 145.429688 287.851562 C 145.511719 288.046875 145.625 288.21875 145.773438 288.363281 C 145.921875 288.511719 146.09375 288.628906 146.285156 288.707031 C 146.480469 288.789062 146.679688 288.828125 146.890625 288.828125 C 147.101562 288.828125 147.300781 288.789062 147.496094 288.707031 C 147.6875 288.628906 147.859375 288.511719 148.007812 288.363281 C 148.15625 288.21875 148.269531 288.046875 148.351562 287.851562 C 148.429688 287.660156 148.472656 287.457031 148.472656 287.246094 C 148.472656 287.039062 148.429688 286.835938 148.351562 286.640625 C 148.269531 286.449219 148.15625 286.277344 148.007812 286.128906 C 147.859375 285.980469 147.6875 285.867188 147.496094 285.785156 C 147.300781 285.707031 147.101562 285.667969 146.890625 285.667969 Z M 146.539062 316.941406 C 146.328125 316.941406 146.128906 316.980469 145.933594 317.0625 C 145.738281 317.140625 145.570312 317.253906 145.421875 317.402344 C 145.273438 317.550781 145.160156 317.722656 145.078125 317.917969 C 144.996094 318.109375 144.957031 318.3125 144.957031 318.519531 C 144.957031 318.730469 144.996094 318.933594 145.078125 319.125 C 145.160156 319.320312 145.273438 319.492188 145.421875 319.640625 C 145.570312 319.789062 145.738281 319.902344 145.933594 319.980469 C 146.128906 320.0625 146.328125 320.101562 146.539062 320.101562 C 146.75 320.101562 146.949219 320.0625 147.144531 319.980469 C 147.335938 319.902344 147.507812 319.789062 147.65625 319.640625 C 147.804688 319.492188 147.917969 319.320312 148 319.125 C 148.078125 318.933594 148.121094 318.730469 148.121094 318.519531 C 148.117188 318.3125 148.074219 318.113281 147.992188 317.921875 C 147.910156 317.734375 147.796875 317.566406 147.648438 317.417969 C 147.5 317.273438 147.328125 317.160156 147.136719 317.082031 C 146.945312 317.003906 146.746094 316.964844 146.539062 316.964844 Z M 146.539062 316.941406 " fill-opacity="1" fill-rule="nonzero"/><path fill="#18253b" d="M 78.277344 198.40625 C 78.152344 198.40625 78.042969 198.367188 77.945312 198.289062 C 77.847656 198.210938 77.789062 198.109375 77.761719 197.988281 L 71.210938 167.679688 C 71.179688 167.535156 71.203125 167.402344 71.28125 167.277344 C 71.359375 167.15625 71.472656 167.078125 71.617188 167.046875 C 71.757812 167.015625 71.894531 167.039062 72.015625 167.117188 C 72.140625 167.195312 72.21875 167.308594 72.25 167.453125 L 78.84375 197.757812 C 78.871094 197.902344 78.847656 198.035156 78.765625 198.160156 C 78.6875 198.285156 78.578125 198.363281 78.433594 198.398438 Z M 78.277344 198.40625 " fill-opacity="1" fill-rule="nonzero"/><path fill="#18253b" d="M 212.300781 254.351562 L 141.371094 254.351562 C 140.894531 254.351562 140.421875 254.300781 139.957031 254.207031 C 139.488281 254.113281 139.035156 253.976562 138.59375 253.792969 C 138.15625 253.609375 137.738281 253.382812 137.34375 253.121094 C 136.945312 252.855469 136.578125 252.554688 136.242188 252.214844 C 135.90625 251.878906 135.605469 251.511719 135.339844 251.117188 C 135.078125 250.71875 134.851562 250.300781 134.671875 249.863281 C 134.488281 249.421875 134.347656 248.96875 134.253906 248.5 C 134.160156 248.035156 134.113281 247.5625 134.113281 247.085938 L 148.71875 144.695312 C 148.816406 144.0625 148.96875 143.441406 149.179688 142.832031 C 149.390625 142.226562 149.65625 141.644531 149.972656 141.085938 C 150.289062 140.527344 150.652344 140 151.066406 139.507812 C 151.476562 139.011719 151.929688 138.5625 152.421875 138.148438 C 152.914062 137.738281 153.441406 137.375 154 137.058594 C 154.558594 136.742188 155.144531 136.480469 155.75 136.269531 C 156.359375 136.058594 156.976562 135.90625 157.613281 135.808594 C 158.246094 135.707031 158.886719 135.667969 159.527344 135.6875 L 227.125 135.6875 C 227.601562 135.6875 228.074219 135.734375 228.539062 135.828125 C 229.007812 135.921875 229.460938 136.058594 229.898438 136.242188 C 230.339844 136.425781 230.757812 136.648438 231.15625 136.914062 C 231.550781 137.179688 231.917969 137.480469 232.253906 137.816406 C 232.589844 138.152344 232.890625 138.519531 233.15625 138.914062 C 233.421875 139.308594 233.648438 139.726562 233.828125 140.167969 C 234.011719 140.609375 234.152344 141.0625 234.246094 141.527344 C 234.339844 141.996094 234.386719 142.46875 234.390625 142.941406 L 219.554688 247.085938 C 219.554688 247.5625 219.507812 248.035156 219.414062 248.5 C 219.320312 248.96875 219.183594 249.421875 219 249.863281 C 218.816406 250.300781 218.59375 250.71875 218.328125 251.117188 C 218.0625 251.511719 217.761719 251.878906 217.425781 252.214844 C 217.089844 252.554688 216.722656 252.855469 216.328125 253.121094 C 215.933594 253.382812 215.515625 253.609375 215.074219 253.792969 C 214.636719 253.976562 214.183594 254.113281 213.714844 254.207031 C 213.246094 254.300781 212.777344 254.351562 212.300781 254.351562 Z M 212.300781 254.351562 " fill-opacity="1" fill-rule="nonzero"/><path fill="#b491ca" d="M 208.304688 143.484375 L 179.359375 143.484375 C 179.136719 143.484375 178.917969 143.460938 178.703125 143.410156 C 178.484375 143.363281 178.277344 143.292969 178.078125 143.203125 C 177.875 143.109375 177.6875 142.996094 177.507812 142.863281 C 177.332031 142.730469 177.171875 142.582031 177.027344 142.414062 C 176.882812 142.246094 176.757812 142.066406 176.652344 141.871094 C 176.542969 141.675781 176.460938 141.472656 176.398438 141.261719 C 176.335938 141.050781 176.296875 140.832031 176.28125 140.613281 C 176.265625 140.390625 176.273438 140.171875 176.300781 139.953125 L 177.253906 133.402344 C 177.304688 133.035156 177.417969 132.6875 177.597656 132.363281 C 177.773438 132.035156 178.003906 131.753906 178.28125 131.507812 C 178.5625 131.265625 178.875 131.078125 179.222656 130.949219 C 179.570312 130.820312 179.929688 130.753906 180.300781 130.753906 L 209.253906 130.753906 C 209.472656 130.753906 209.691406 130.78125 209.910156 130.828125 C 210.125 130.875 210.332031 130.945312 210.535156 131.035156 C 210.734375 131.128906 210.921875 131.242188 211.101562 131.375 C 211.277344 131.507812 211.4375 131.65625 211.582031 131.824219 C 211.726562 131.992188 211.851562 132.171875 211.957031 132.367188 C 212.0625 132.5625 212.144531 132.765625 212.207031 132.976562 C 212.269531 133.1875 212.308594 133.40625 212.324219 133.625 C 212.339844 133.847656 212.332031 134.066406 212.300781 134.285156 L 211.359375 140.839844 C 211.304688 141.207031 211.191406 141.550781 211.011719 141.878906 C 210.835938 142.203125 210.605469 142.488281 210.324219 142.730469 C 210.042969 142.976562 209.730469 143.160156 209.382812 143.289062 C 209.035156 143.421875 208.675781 143.484375 208.304688 143.484375 Z M 208.304688 143.484375 " fill-opacity="1" fill-rule="nonzero"/><path fill="#b491ca" d="M 144.007812 251.304688 C 143.523438 251.328125 143.042969 251.289062 142.570312 251.179688 C 142.097656 251.070312 141.648438 250.898438 141.222656 250.660156 C 140.796875 250.425781 140.414062 250.136719 140.070312 249.792969 C 139.726562 249.449219 139.4375 249.066406 139.199219 248.640625 C 138.492188 247.359375 138.253906 245.992188 138.488281 244.546875 L 138.535156 244.203125 C 142.371094 216.476562 151.363281 151.355469 152.101562 145.484375 C 153.035156 138.019531 162.257812 138.855469 162.347656 138.863281 C 162.492188 138.875 162.613281 138.941406 162.707031 139.054688 C 162.800781 139.167969 162.835938 139.300781 162.820312 139.445312 C 162.808594 139.59375 162.746094 139.710938 162.628906 139.804688 C 162.515625 139.898438 162.386719 139.9375 162.238281 139.921875 C 161.902344 139.921875 153.960938 139.183594 153.15625 145.65625 C 152.417969 151.535156 143.417969 216.664062 139.585938 244.390625 L 139.535156 244.734375 C 139.34375 245.9375 139.539062 247.070312 140.125 248.132812 C 140.335938 248.503906 140.59375 248.835938 140.902344 249.125 C 141.210938 249.417969 141.554688 249.65625 141.933594 249.847656 C 142.316406 250.035156 142.714844 250.164062 143.132812 250.230469 C 143.550781 250.300781 143.972656 250.304688 144.390625 250.246094 C 144.539062 250.238281 144.667969 250.28125 144.777344 250.378906 C 144.886719 250.480469 144.941406 250.601562 144.949219 250.746094 C 144.957031 250.894531 144.914062 251.023438 144.816406 251.132812 C 144.71875 251.246094 144.597656 251.304688 144.449219 251.3125 Z M 144.007812 251.304688 " fill-opacity="1" fill-rule="nonzero"/><path fill="#cf856a" d="M 124.113281 221.046875 C 124.113281 221.046875 127.390625 225.019531 134.671875 224.160156 C 146.785156 222.519531 155.546875 219.390625 164.84375 215.871094 C 170.324219 213.929688 168.9375 209.449219 167.210938 209.726562 C 166.390625 209.929688 170.226562 208.71875 171.003906 208.449219 C 177.785156 205.785156 174.550781 201.074219 171.652344 201.363281 C 177.210938 200.207031 176.328125 194.074219 172.691406 194.539062 C 176.574219 193.277344 175.53125 187.691406 169.527344 188.519531 C 166.171875 188.691406 139.003906 194.636719 139.003906 194.636719 L 141.707031 193.820312 L 142.984375 184.867188 C 135.160156 187.804688 128.203125 192.140625 122.121094 197.875 C 121.039062 198.917969 120.21875 200.140625 119.664062 201.542969 Z M 124.113281 221.046875 " fill-opacity="1" fill-rule="nonzero"/><path fill="#e9eaf6" d="M 126.113281 224.675781 C 126.113281 224.675781 75.609375 238.289062 38.015625 237.339844 C 38.015625 237.339844 18.792969 237.386719 17.433594 217.039062 C 16.070312 196.695312 37.226562 197.667969 37.226562 197.667969 C 74.722656 195.082031 121.777344 194.917969 121.777344 194.917969 C 125.195312 204.132812 126.429688 214.132812 126.113281 224.675781 Z M 126.113281 224.675781 " fill-opacity="1" fill-rule="nonzero"/><path fill="#18253b" d="M 145.957031 199.445312 C 145.835938 199.441406 145.730469 199.398438 145.644531 199.316406 C 145.554688 199.230469 145.507812 199.128906 145.496094 199.007812 C 145.488281 198.886719 145.519531 198.777344 145.59375 198.683594 C 145.667969 198.585938 145.765625 198.527344 145.882812 198.503906 L 172.609375 194.074219 C 172.742188 194.039062 172.871094 194.058594 172.984375 194.132812 C 173.101562 194.210938 173.171875 194.316406 173.195312 194.453125 C 173.21875 194.59375 173.1875 194.714844 173.101562 194.824219 C 173.015625 194.933594 172.902344 194.996094 172.765625 195.007812 L 146.039062 199.4375 Z M 145.957031 199.445312 " fill-opacity="1" fill-rule="nonzero"/><path fill="#18253b" d="M 150.132812 204.941406 C 150.015625 204.941406 149.914062 204.902344 149.824219 204.824219 C 149.734375 204.746094 149.683594 204.648438 149.667969 204.53125 C 149.648438 204.402344 149.675781 204.285156 149.757812 204.183594 C 149.835938 204.078125 149.9375 204.015625 150.070312 204 L 171.578125 200.894531 C 171.707031 200.878906 171.824219 200.90625 171.929688 200.984375 C 172.035156 201.0625 172.097656 201.167969 172.117188 201.296875 C 172.132812 201.425781 172.105469 201.542969 172.027344 201.648438 C 171.949219 201.753906 171.84375 201.816406 171.714844 201.835938 L 150.199219 204.933594 Z M 150.132812 204.941406 " fill-opacity="1" fill-rule="nonzero"/><path fill="#18253b" d="M 153.214844 212.414062 C 153.09375 212.410156 152.988281 212.367188 152.898438 212.28125 C 152.8125 212.199219 152.761719 212.097656 152.753906 211.976562 C 152.742188 211.855469 152.777344 211.746094 152.851562 211.648438 C 152.925781 211.550781 153.019531 211.492188 153.140625 211.472656 L 167.136719 209.257812 C 167.265625 209.238281 167.382812 209.265625 167.488281 209.34375 C 167.59375 209.417969 167.652344 209.523438 167.667969 209.652344 C 167.691406 209.78125 167.664062 209.894531 167.585938 210 C 167.511719 210.105469 167.410156 210.171875 167.285156 210.191406 L 153.328125 212.40625 Z M 153.214844 212.414062 " fill-opacity="1" fill-rule="nonzero"/><g clip-path="url(#ae7ffb25bf)"><path fill="#18253b" d="M 323.871094 223.21875 C 323.871094 223.480469 324.15625 229.65625 317.316406 233.210938 C 317.1875 233.277344 317.050781 233.285156 316.910156 233.242188 C 316.769531 233.199219 316.667969 233.109375 316.597656 232.980469 C 316.527344 232.851562 316.515625 232.714844 316.5625 232.574219 C 316.605469 232.429688 316.695312 232.328125 316.828125 232.261719 C 323.027344 229.039062 322.8125 223.503906 322.796875 223.25 C 322.789062 223.101562 322.835938 222.972656 322.9375 222.863281 C 323.035156 222.753906 323.15625 222.691406 323.304688 222.683594 C 323.457031 222.675781 323.589844 222.722656 323.703125 222.828125 C 323.816406 222.933594 323.871094 223.0625 323.871094 223.21875 Z M 354.347656 222.898438 L 336.523438 225.691406 L 337.746094 222.855469 C 337.804688 222.722656 337.808594 222.585938 337.753906 222.449219 C 337.699219 222.3125 337.601562 222.214844 337.46875 222.160156 C 337.332031 222.101562 337.195312 222.101562 337.0625 222.15625 C 336.925781 222.210938 336.828125 222.304688 336.769531 222.4375 L 330.890625 236.011719 C 330.8125 236.097656 330.769531 236.199219 330.757812 236.316406 L 329.121094 240.1875 C 329.085938 240.269531 329.070312 240.355469 329.078125 240.445312 C 329.085938 240.535156 329.113281 240.613281 329.160156 240.6875 C 329.210938 240.765625 329.273438 240.820312 329.351562 240.863281 C 329.429688 240.90625 329.515625 240.925781 329.605469 240.925781 C 329.839844 240.929688 330 240.820312 330.09375 240.605469 L 331.734375 236.847656 C 333.175781 236.652344 338.941406 235.824219 343.789062 234.667969 C 346.804688 233.949219 347.976562 234.363281 348.410156 234.667969 C 348.59375 234.789062 348.710938 234.953125 348.761719 235.167969 C 348.769531 235.3125 348.828125 235.429688 348.929688 235.527344 C 349.035156 235.628906 349.160156 235.675781 349.300781 235.675781 C 349.449219 235.675781 349.574219 235.621094 349.679688 235.515625 C 349.78125 235.410156 349.832031 235.28125 349.828125 235.136719 C 349.78125 234.597656 349.542969 234.171875 349.105469 233.855469 C 348.082031 233.039062 346.214844 232.980469 343.535156 233.621094 C 339.269531 234.644531 334.289062 235.398438 332.226562 235.691406 L 333.601562 232.515625 C 334.917969 232.300781 345.828125 230.523438 349.472656 229.738281 C 350.71875 229.464844 351.660156 229.546875 352.183594 229.972656 C 352.492188 230.226562 352.65625 230.550781 352.675781 230.949219 C 352.675781 231.097656 352.730469 231.222656 352.832031 231.324219 C 352.9375 231.429688 353.0625 231.480469 353.207031 231.480469 C 353.355469 231.480469 353.480469 231.429688 353.585938 231.324219 C 353.6875 231.222656 353.742188 231.097656 353.742188 230.949219 C 353.71875 230.21875 353.429688 229.617188 352.875 229.148438 C 352.054688 228.492188 350.851562 228.328125 349.253906 228.6875 C 345.976562 229.394531 336.867188 230.890625 334.109375 231.34375 L 336.058594 226.828125 L 354.550781 223.9375 C 354.699219 223.914062 354.816406 223.84375 354.902344 223.726562 C 354.988281 223.605469 355.023438 223.472656 355 223.328125 C 354.976562 223.179688 354.90625 223.066406 354.785156 222.976562 C 354.667969 222.890625 354.535156 222.859375 354.386719 222.882812 Z M 197.558594 362.164062 C 187.238281 363.539062 163.917969 363.890625 139.46875 363.800781 C 142.296875 324.351562 142.351562 253.113281 142.351562 252.34375 C 142.351562 252.199219 142.300781 252.070312 142.195312 251.96875 C 142.09375 251.863281 141.96875 251.8125 141.820312 251.8125 C 141.671875 251.8125 141.546875 251.863281 141.445312 251.96875 C 141.339844 252.070312 141.289062 252.199219 141.289062 252.34375 C 141.289062 253.113281 141.230469 324.425781 138.398438 363.792969 C 101.539062 363.671875 62.503906 362.589844 61.847656 362.574219 C 61.703125 362.574219 61.578125 362.625 61.472656 362.730469 C 61.367188 362.832031 61.316406 362.957031 61.316406 363.105469 C 61.316406 363.253906 61.367188 363.378906 61.472656 363.480469 C 61.578125 363.585938 61.703125 363.636719 61.847656 363.636719 C 62.503906 363.636719 101.484375 364.734375 138.355469 364.859375 C 138.175781 367.316406 137.988281 369.558594 137.78125 371.699219 C 137.769531 371.84375 137.8125 371.976562 137.90625 372.085938 C 138 372.199219 138.121094 372.265625 138.265625 372.28125 L 138.316406 372.28125 C 138.453125 372.277344 138.570312 372.230469 138.671875 372.140625 C 138.773438 372.046875 138.832031 371.933594 138.847656 371.796875 C 139.050781 369.632812 139.242188 367.308594 139.421875 364.867188 L 145.136719 364.867188 C 167.488281 364.867188 188.113281 364.457031 197.671875 363.1875 C 197.816406 363.167969 197.933594 363.097656 198.019531 362.980469 C 198.109375 362.863281 198.140625 362.734375 198.121094 362.589844 C 198.097656 362.457031 198.03125 362.347656 197.921875 362.265625 C 197.8125 362.183594 197.691406 362.152344 197.558594 362.164062 Z M 116.90625 226 C 116.902344 226.023438 116.902344 226.046875 116.90625 226.066406 L 68.285156 236.25 C 68.136719 236.265625 68.011719 236.328125 67.917969 236.445312 C 67.820312 236.5625 67.78125 236.695312 67.796875 236.847656 C 67.8125 236.996094 67.875 237.121094 67.992188 237.214844 C 68.109375 237.3125 68.242188 237.351562 68.394531 237.339844 L 68.5 237.339844 L 126.226562 225.25 C 126.375 225.222656 126.496094 225.148438 126.582031 225.023438 C 126.667969 224.898438 126.695312 224.761719 126.664062 224.613281 C 126.628906 224.464844 126.550781 224.347656 126.421875 224.269531 C 126.289062 224.1875 126.152344 224.167969 126.003906 224.207031 L 118.125 225.847656 C 121.15625 217.65625 116.316406 200.175781 114.949219 195.539062 L 121.785156 195.441406 C 121.933594 195.4375 122.058594 195.382812 122.160156 195.277344 C 122.261719 195.171875 122.3125 195.046875 122.3125 194.898438 C 122.3125 194.75 122.261719 194.625 122.152344 194.519531 C 122.046875 194.417969 121.917969 194.367188 121.769531 194.375 L 114.621094 194.472656 L 114.621094 194.425781 C 114.53125 194.171875 114.351562 194.050781 114.082031 194.070312 C 113.8125 194.085938 113.652344 194.226562 113.597656 194.492188 L 51.265625 195.375 C 51.121094 195.378906 50.996094 195.429688 50.894531 195.535156 C 50.789062 195.636719 50.738281 195.761719 50.734375 195.90625 C 50.738281 196.054688 50.789062 196.179688 50.894531 196.28125 C 50.996094 196.386719 51.121094 196.4375 51.265625 196.441406 L 113.84375 195.554688 C 115.054688 199.660156 120.328125 218.410156 116.90625 226 Z M 79.433594 298.46875 L 81.824219 273.527344 C 81.792969 273.453125 81.773438 273.371094 81.777344 273.289062 C 81.785156 273.203125 81.816406 273.125 81.867188 273.050781 L 82.683594 264.777344 C 82.695312 264.632812 82.753906 264.515625 82.863281 264.421875 C 82.972656 264.324219 83.097656 264.285156 83.242188 264.296875 L 119.863281 266.046875 C 120.007812 266.058594 120.128906 266.113281 120.226562 266.222656 C 120.324219 266.328125 120.371094 266.453125 120.371094 266.597656 L 119.484375 299.125 C 119.484375 299.269531 119.429688 299.390625 119.328125 299.488281 C 119.226562 299.589844 119.105469 299.640625 118.960938 299.640625 L 79.992188 299.050781 C 79.835938 299.046875 79.703125 298.992188 79.597656 298.878906 C 79.480469 298.765625 79.425781 298.628906 79.433594 298.46875 Z M 82.957031 272.824219 L 118.992188 274.847656 C 119.023438 274.839844 119.054688 274.839844 119.082031 274.847656 L 119.296875 267.0625 L 83.710938 265.386719 Z M 80.546875 297.996094 L 118.414062 298.566406 L 119.027344 275.886719 C 118.996094 275.890625 118.964844 275.890625 118.9375 275.886719 L 82.898438 273.871094 Z M 155.992188 298.46875 L 158.382812 273.527344 C 158.347656 273.453125 158.332031 273.371094 158.332031 273.289062 C 158.34375 273.203125 158.371094 273.125 158.421875 273.050781 L 159.242188 264.777344 C 159.253906 264.636719 159.3125 264.515625 159.421875 264.421875 C 159.53125 264.328125 159.65625 264.285156 159.800781 264.296875 L 196.417969 266.046875 C 196.5625 266.058594 196.683594 266.113281 196.78125 266.222656 C 196.878906 266.328125 196.929688 266.453125 196.925781 266.597656 L 196.042969 299.125 C 196.039062 299.269531 195.988281 299.390625 195.882812 299.492188 C 195.777344 299.59375 195.652344 299.644531 195.507812 299.640625 L 156.539062 299.050781 C 156.386719 299.050781 156.257812 298.992188 156.152344 298.878906 C 156.039062 298.765625 155.984375 298.628906 155.992188 298.46875 Z M 159.511719 272.824219 L 195.550781 274.847656 C 195.582031 274.839844 195.609375 274.839844 195.640625 274.847656 L 195.851562 267.0625 L 160.257812 265.359375 Z M 157.105469 297.996094 L 194.96875 298.566406 L 195.582031 275.886719 C 195.554688 275.890625 195.523438 275.890625 195.492188 275.886719 L 159.453125 273.871094 Z M 300.296875 218.292969 C 300.15625 218.292969 300.03125 218.34375 299.925781 218.445312 C 299.824219 218.542969 299.769531 218.667969 299.765625 218.808594 C 299.765625 219.046875 299.136719 242.230469 295.128906 250.230469 C 295.066406 250.363281 295.054688 250.496094 295.101562 250.636719 C 295.148438 250.777344 295.238281 250.878906 295.367188 250.945312 C 295.441406 250.984375 295.519531 251 295.605469 251 C 295.824219 251.003906 295.984375 250.90625 296.082031 250.707031 C 300.175781 242.515625 300.804688 219.800781 300.832031 218.835938 C 300.832031 218.6875 300.78125 218.558594 300.679688 218.453125 C 300.574219 218.347656 300.445312 218.292969 300.296875 218.292969 Z M 234.773438 199.28125 L 227.445312 202.214844 C 227.308594 202.269531 227.210938 202.367188 227.152344 202.5 C 227.097656 202.636719 227.09375 202.773438 227.148438 202.910156 C 227.207031 203.046875 227.300781 203.144531 227.4375 203.203125 C 227.574219 203.257812 227.707031 203.261719 227.84375 203.207031 L 233.667969 200.871094 L 228.34375 209.488281 C 228.269531 209.613281 228.246094 209.746094 228.28125 209.886719 C 228.316406 210.03125 228.394531 210.140625 228.515625 210.21875 C 228.601562 210.273438 228.695312 210.300781 228.796875 210.300781 C 228.996094 210.300781 229.148438 210.214844 229.253906 210.046875 L 235.40625 200.085938 C 235.554688 199.878906 235.554688 199.671875 235.40625 199.460938 C 235.332031 199.359375 235.234375 199.292969 235.113281 199.257812 C 234.992188 199.226562 234.875 199.234375 234.757812 199.28125 Z M 234.773438 199.28125 " fill-opacity="1" fill-rule="nonzero"/></g><path fill="#e9eaf6" d="M 156.726562 89.609375 C 146.414062 94.109375 139.078125 92.617188 135.152344 90.988281 C 135.09375 90.992188 135.035156 90.992188 134.972656 90.988281 C 134.890625 91.003906 134.804688 91.003906 134.71875 90.988281 C 133.800781 90.691406 112.1875 83.523438 110.507812 74.449219 C 110.46875 74.222656 110.511719 74.015625 110.644531 73.828125 C 110.773438 73.636719 110.953125 73.523438 111.179688 73.480469 C 111.40625 73.441406 111.613281 73.488281 111.800781 73.617188 C 111.992188 73.75 112.105469 73.925781 112.148438 74.152344 C 113.21875 79.96875 124.480469 85.253906 130.878906 87.808594 C 127.0625 82.164062 125.964844 73.980469 125.726562 70.949219 C 123.464844 68.101562 118.828125 63.136719 112.710938 61.121094 C 112.5 61.050781 112.339844 60.914062 112.242188 60.710938 C 112.140625 60.511719 112.125 60.304688 112.195312 60.089844 C 112.265625 59.875 112.402344 59.714844 112.601562 59.613281 C 112.804688 59.511719 113.011719 59.496094 113.226562 59.566406 C 119.222656 61.570312 123.769531 66.042969 126.332031 69.101562 C 140.535156 54.460938 164.082031 54.824219 164.082031 54.824219 C 168.503906 65.570312 172.722656 82.632812 156.726562 89.609375 Z M 156.726562 89.609375 " fill-opacity="1" fill-rule="nonzero"/><path fill="#b491ca" d="M 139.667969 69.976562 C 139.578125 70.039062 139.480469 70.066406 139.371094 70.066406 C 139.183594 70.066406 139.035156 69.992188 138.929688 69.835938 C 138.847656 69.714844 138.824219 69.582031 138.851562 69.4375 C 138.875 69.292969 138.949219 69.175781 139.070312 69.089844 C 139.601562 68.738281 152.125 60.417969 161.707031 63.085938 C 161.847656 63.128906 161.953125 63.214844 162.023438 63.339844 C 162.09375 63.46875 162.113281 63.601562 162.074219 63.742188 C 162.039062 63.886719 161.953125 63.992188 161.828125 64.066406 C 161.699219 64.140625 161.5625 64.160156 161.421875 64.121094 C 152.320312 61.570312 139.789062 69.894531 139.667969 69.976562 Z M 162.511719 70.714844 C 162.472656 70.570312 162.390625 70.464844 162.261719 70.390625 C 162.132812 70.316406 161.996094 70.304688 161.855469 70.34375 L 142.515625 75.839844 C 142.375 75.882812 142.269531 75.964844 142.195312 76.09375 C 142.125 76.21875 142.109375 76.355469 142.148438 76.496094 C 142.226562 76.753906 142.398438 76.878906 142.664062 76.882812 L 142.8125 76.882812 L 162.148438 71.386719 C 162.292969 71.34375 162.402344 71.257812 162.472656 71.125 C 162.542969 70.992188 162.554688 70.855469 162.511719 70.714844 Z M 161.414062 78.378906 C 156.144531 83.433594 143.910156 82.859375 143.785156 82.851562 C 143.628906 82.828125 143.488281 82.863281 143.367188 82.964844 C 143.242188 83.066406 143.175781 83.195312 143.167969 83.355469 C 143.160156 83.511719 143.214844 83.648438 143.328125 83.757812 C 143.441406 83.871094 143.578125 83.921875 143.738281 83.910156 C 143.835938 83.910156 144.367188 83.910156 145.210938 83.910156 C 148.742188 83.910156 157.628906 83.457031 162.148438 79.117188 C 162.253906 79.015625 162.3125 78.890625 162.3125 78.746094 C 162.316406 78.597656 162.269531 78.46875 162.164062 78.363281 C 162.0625 78.257812 161.941406 78.203125 161.792969 78.199219 C 161.644531 78.195312 161.519531 78.246094 161.414062 78.347656 Z M 161.414062 78.378906 " fill-opacity="1" fill-rule="nonzero"/><path fill="#e9eaf6" d="M 148.839844 110.375 C 144.417969 114.796875 137.652344 117.09375 129.132812 117.09375 C 127.832031 117.09375 126.488281 117.042969 125.113281 116.929688 C 120.242188 116.535156 115.476562 115.613281 110.8125 114.160156 C 110.671875 114.113281 110.566406 114.027344 110.503906 113.894531 C 110.4375 113.761719 110.425781 113.628906 110.476562 113.488281 C 110.523438 113.347656 110.609375 113.246094 110.742188 113.179688 C 110.875 113.117188 111.007812 113.105469 111.148438 113.152344 C 113.300781 113.820312 115.484375 114.367188 117.699219 114.789062 L 115.980469 104.757812 C 115.960938 104.613281 115.996094 104.488281 116.078125 104.371094 C 116.164062 104.257812 116.277344 104.1875 116.417969 104.164062 C 116.558594 104.140625 116.6875 104.167969 116.804688 104.246094 C 116.921875 104.328125 116.996094 104.4375 117.027344 104.574219 L 118.8125 115.003906 C 120.597656 115.332031 122.605469 115.617188 124.726562 115.820312 L 123.597656 106.894531 C 123.578125 106.746094 123.613281 106.617188 123.703125 106.5 C 123.792969 106.382812 123.910156 106.316406 124.054688 106.296875 C 124.203125 106.277344 124.332031 106.3125 124.449219 106.402344 C 124.566406 106.492188 124.632812 106.609375 124.652344 106.753906 L 125.816406 115.902344 C 128.257812 116.082031 130.699219 116.0625 133.140625 115.847656 L 132.132812 107.5 C 132.113281 107.355469 132.148438 107.222656 132.238281 107.105469 C 132.328125 106.988281 132.445312 106.921875 132.589844 106.902344 C 132.734375 106.886719 132.867188 106.925781 132.984375 107.015625 C 133.097656 107.105469 133.167969 107.222656 133.1875 107.367188 L 134.195312 115.742188 C 136.734375 115.457031 139.191406 114.847656 141.566406 113.914062 L 140.371094 105.835938 C 140.347656 105.691406 140.378906 105.558594 140.464844 105.441406 C 140.550781 105.320312 140.667969 105.253906 140.8125 105.230469 C 140.960938 105.210938 141.089844 105.242188 141.210938 105.332031 C 141.328125 105.417969 141.398438 105.535156 141.417969 105.679688 L 142.574219 113.472656 C 144.652344 112.523438 146.507812 111.25 148.136719 109.644531 C 148.238281 109.542969 148.363281 109.488281 148.511719 109.488281 C 148.660156 109.488281 148.785156 109.539062 148.890625 109.644531 C 148.996094 109.75 149.046875 109.875 149.046875 110.023438 C 149.046875 110.171875 148.992188 110.296875 148.890625 110.398438 Z M 148.839844 110.375 " fill-opacity="1" fill-rule="nonzero"/></svg>