<svg width="143" height="208" viewBox="0 0 143 208" fill="none" xmlns="http://www.w3.org/2000/svg">
<path d="M106.301 3.73223C106.301 3.73223 117.373 12.2136 115.505 22.6697C113.512 33.8629 108.952 36.7451 112.648 44.4741C116.343 52.2006 116.173 59.2408 110.594 64.1181C105.013 68.9929 91.6415 50.0326 76.3614 62.9871C61.0813 75.9442 48.0429 62.6313 50.0609 56.2112C52.0815 49.7911 64.7132 52.5945 64.2456 43.6176C63.7779 34.6381 60.4205 24.6395 68.0478 20.9999C75.6752 17.3603 71.3595 14.4095 76.2191 7.31589C81.0761 0.222283 95.7691 -3.0818 106.301 3.73223Z" fill="#260B0B"/>
<path d="M78.1482 37.9474C78.1482 37.9474 78.9767 53.2326 78.4786 54.9126C77.9779 56.5901 76.1606 58.2345 76.1606 58.2345L80.9694 68.0552L100.873 74.0381L105.018 65.8974C105.018 65.8974 97.721 58.0362 98.2141 53.7333L78.1482 37.9474Z" fill="#EF6C79"/>
<path d="M81.4658 28.8179C81.4658 28.8179 74.8322 25.0004 72.8396 30.3124C70.847 35.6243 78.149 37.9473 78.149 37.9473C78.149 37.9473 83.7863 53.7281 96.2274 53.8984C108.669 54.0687 111.985 41.437 110.821 21.9988C110.821 21.9988 103.524 18.3491 85.9441 16.5216C85.9441 16.5166 82.7925 28.4875 81.4658 28.8179Z" fill="#FC7980"/>
<path d="M100.703 59.5509C100.703 59.5509 121.269 74.6658 126.579 80.6437C131.888 86.6215 143 126.182 143 136.628C143 147.076 132.717 161.878 132.551 172.009C132.386 182.14 135.055 207.393 135.055 207.393L50.3027 207.724C50.3027 207.724 61.0639 169.023 60.7335 165.696C60.403 162.371 45.8041 122.008 45.8041 122.008L35.5208 134.137L58.08 163.871L50.1197 180.984C50.1197 180.984 32.8699 168.357 22.4214 162.374C11.9728 156.394 3.84225 145.266 0.86095 137.949C-2.12035 130.632 3.34918 119.678 6.50076 115.029C9.64981 110.383 37.8438 77.154 40.8225 73.8322C43.7988 70.5103 61.3892 62.7025 67.5272 59.3755C70.727 57.6295 74.0692 56.2214 77.5563 55.1514C78.1485 54.9786 78.4738 54.8972 78.4738 54.8972L100.703 59.5509Z" fill="#3D9ABA"/>
<path d="M133.983 162.46C133.983 162.46 129.128 165.452 129.263 168.812C129.324 170.37 130.442 170.497 130.442 170.992C130.442 171.488 129.324 171.803 129.324 173.3C129.324 174.794 130.63 174.482 130.567 175.915C130.506 177.349 129.637 176.66 129.573 178.218C129.512 179.776 130.193 181.461 132.435 179.964C134.677 178.47 136.54 175.666 136.974 174.108C137.406 172.55 137.775 160.839 133.983 162.46Z" fill="#FC7980"/>
<path d="M76.2931 19.9246C77.231 14.5923 77.8714 8.22308 87.8828 8.42895C97.8942 8.63228 118.852 8.87373 110.874 25.5975C110.874 25.5975 107.374 24.4868 101.798 23.2185C101.198 23.0787 100.609 22.9466 100.016 22.822L99.32 19.0579L97.6349 22.2934C93.4235 21.3733 90.3787 20.7633 90.3787 20.7633L88.9172 20.6286C88.813 20.6185 88.7114 20.6312 88.6123 20.6668C88.5157 20.6998 88.4267 20.7532 88.353 20.8269C88.2768 20.898 88.2208 20.9845 88.1827 21.081C88.1446 21.1776 88.1268 21.2793 88.1319 21.3835C88.2717 23.7853 88.2742 30.5231 83.9306 30.0453C78.6619 29.4632 75.3527 25.2544 76.2931 19.9246Z" fill="#260B0B"/>
<path d="M77.6754 50.7468C79.7392 51.4305 82.8272 64.6443 75.2761 63.559C66.0603 62.2196 70.1599 69.9511 62.4843 70.617C52.0485 71.5091 50.0762 58.9257 50.0762 58.9257C50.0762 58.9257 52.4856 54.0153 56.1277 53.7916C59.7698 53.568 62.4894 56.5594 65.735 55.4284C68.9781 54.3 77.6754 50.7468 77.6754 50.7468Z" fill="#260B0B"/>
<path d="M101.483 42.497C101.523 42.5834 101.526 42.6723 101.485 42.7613C101.447 42.8528 101.384 42.9112 101.292 42.9417C100.469 43.262 99.6147 43.4221 98.7327 43.4247C95.2457 43.4247 92.9379 40.7458 92.9074 40.7153C92.8464 40.6441 92.821 40.5628 92.8286 40.4688C92.8362 40.3773 92.8769 40.301 92.9455 40.2426C93.0167 40.1816 93.098 40.1561 93.1895 40.1638C93.281 40.1714 93.3547 40.2121 93.4157 40.2807C93.5428 40.4332 96.6385 43.9863 101.056 42.3165C101.14 42.2835 101.221 42.2835 101.305 42.3191C101.389 42.3546 101.447 42.4131 101.483 42.497ZM98.8801 45.0462C96.9587 45.796 94.6941 44.665 94.6713 44.6573C94.5899 44.6141 94.5035 44.609 94.4146 44.637C94.3281 44.665 94.2621 44.7209 94.2214 44.8047C94.1782 44.8861 94.1731 44.9725 94.2011 45.0614C94.229 45.1479 94.2849 45.2139 94.3688 45.2546C95.3295 45.7146 96.3436 45.9535 97.4086 45.9739C97.9982 45.979 98.5701 45.8773 99.1241 45.6714C99.2131 45.6358 99.2741 45.5748 99.3122 45.4859C99.3478 45.3995 99.3478 45.3105 99.3122 45.2241C99.2766 45.1402 99.2156 45.0818 99.1318 45.0462C99.0479 45.0106 98.964 45.0106 98.8801 45.0462ZM94.1756 38.6617C94.2671 38.6795 94.351 38.6617 94.4273 38.6083C94.5035 38.5575 94.5493 38.4838 94.5645 38.3923C94.5798 38.3033 94.562 38.2194 94.5086 38.1457C94.4578 38.0695 94.3866 38.0237 94.2976 38.006C94.2671 38.006 91.3291 37.4875 90.2845 40.2375C90.2463 40.3264 90.2463 40.4154 90.2845 40.5043C90.3251 40.5933 90.3887 40.6518 90.4827 40.6848C90.5183 40.7001 90.5564 40.7077 90.5971 40.7051C90.7521 40.7077 90.8563 40.6365 90.9097 40.4916C91.756 38.255 94.0791 38.649 94.1756 38.6617ZM106.868 29.1256C103.824 26.9678 102.032 29.0214 102.014 29.0443C101.961 29.1129 101.938 29.1891 101.943 29.2756C101.95 29.362 101.986 29.4331 102.05 29.4916C102.118 29.55 102.197 29.578 102.288 29.5729C102.38 29.5678 102.456 29.5323 102.517 29.4636C102.576 29.3975 103.948 27.8675 106.48 29.6568C106.535 29.7 106.599 29.7203 106.67 29.7178C106.833 29.7178 106.937 29.639 106.988 29.484C107.036 29.3315 106.995 29.2069 106.863 29.1129L106.868 29.1256ZM91.7687 28.6071C91.7687 28.6071 93.1793 27.0008 95.7336 28.8028C95.7896 28.846 95.8531 28.8689 95.9243 28.8664C96.0412 28.8689 96.1301 28.8206 96.1962 28.724C96.2445 28.6503 96.2598 28.5715 96.2445 28.4851C96.2293 28.3987 96.1861 28.3301 96.1149 28.2767C93.0726 26.1214 91.2808 28.175 91.263 28.1954C91.1994 28.2665 91.1715 28.3479 91.1791 28.4419C91.1842 28.5359 91.2223 28.6122 91.2935 28.6732C91.3621 28.7367 91.446 28.7647 91.5375 28.7571C91.6315 28.752 91.7077 28.7139 91.7687 28.6427V28.6071ZM93.2708 31.5528C93.2175 31.6545 93.1819 31.7612 93.1692 31.8731C93.1565 31.9874 93.1666 32.0993 93.1971 32.2086C93.2302 32.3179 93.281 32.417 93.3522 32.5085C93.4233 32.5974 93.5072 32.6686 93.6063 32.7245C93.7054 32.7804 93.8122 32.8135 93.9266 32.8262C94.0384 32.8414 94.1502 32.8313 94.2595 32.8008C94.3713 32.7677 94.4705 32.7169 94.5594 32.6457C94.6484 32.5746 94.7195 32.4907 94.7755 32.3916C94.8314 32.2899 94.867 32.1831 94.8797 32.0713C94.8924 31.9569 94.8822 31.8451 94.8517 31.7358C94.8212 31.6265 94.7704 31.5274 94.6992 31.4359C94.628 31.347 94.5442 31.2758 94.4451 31.2199C94.3434 31.164 94.2366 31.1284 94.1248 31.1157C94.0104 31.103 93.8986 31.1106 93.7893 31.1436C93.68 31.1741 93.5784 31.225 93.4894 31.2961C93.4005 31.3673 93.3267 31.4537 93.2708 31.5528ZM104.794 32.6737C104.695 32.6178 104.586 32.5847 104.472 32.572C104.36 32.5593 104.245 32.5669 104.136 32.6C104.027 32.6305 103.925 32.6838 103.836 32.755C103.747 32.8262 103.674 32.9126 103.618 33.0142C103.562 33.1134 103.529 33.2201 103.516 33.3345C103.503 33.4489 103.513 33.5607 103.544 33.6725C103.577 33.7818 103.628 33.8835 103.699 33.9724C103.77 34.0614 103.857 34.1351 103.958 34.191C104.057 34.2469 104.167 34.28 104.281 34.2927C104.393 34.3054 104.507 34.2952 104.617 34.2647C104.726 34.2317 104.827 34.1783 104.916 34.1071C105.005 34.036 105.079 33.9496 105.132 33.8479C105.188 33.7488 105.221 33.642 105.234 33.5277C105.247 33.4133 105.237 33.3014 105.206 33.1922C105.173 33.0803 105.122 32.9812 105.051 32.8923C104.98 32.8033 104.894 32.7296 104.794 32.6737ZM101.872 37.4061C101.958 37.2053 101.986 36.9969 101.955 36.7809C101.742 35.5457 100.029 31.7155 99.9578 31.5528C99.9197 31.469 99.8587 31.4105 99.7723 31.3775C99.6833 31.3444 99.5994 31.347 99.5155 31.3876C99.4291 31.4257 99.3707 31.4867 99.3402 31.5732C99.3071 31.6596 99.3097 31.746 99.3478 31.8299C99.3478 31.8654 101.099 35.7363 101.295 36.8927C101.401 37.5281 99.8205 38.4101 98.72 38.8091C98.6412 38.8345 98.5802 38.8828 98.5396 38.954C98.4964 39.0251 98.4837 39.1014 98.4964 39.1827C98.5116 39.264 98.5497 39.3301 98.6133 39.3835C98.6768 39.4343 98.748 39.4623 98.8293 39.4598C98.8674 39.4674 98.9056 39.4674 98.9411 39.4598C99.8815 39.1395 100.725 38.6541 101.473 38.0009C101.79 38.0746 102.09 38.194 102.37 38.3618C102.649 38.527 102.896 38.7329 103.112 38.9794C103.328 39.2234 103.501 39.4953 103.63 39.7927C103.763 40.0926 103.844 40.4027 103.877 40.728C103.885 40.8144 103.92 40.8856 103.984 40.944C104.05 41.0025 104.123 41.033 104.21 41.033H104.243C104.334 41.0228 104.408 40.9822 104.467 40.911C104.525 40.8398 104.55 40.7585 104.54 40.667C104.507 40.2909 104.418 39.9299 104.276 39.5817C104.134 39.2335 103.943 38.9158 103.707 38.6261C103.468 38.3338 103.193 38.0847 102.881 37.8789C102.568 37.6705 102.23 37.5129 101.872 37.4061Z" fill="#260B0B"/>
<path d="M130.638 176.241C127.687 176.96 124.556 177.58 121.31 178.028C121.312 178.051 121.312 178.071 121.31 178.094L123.539 193.42C123.552 193.514 123.531 193.595 123.475 193.669C123.419 193.745 123.346 193.788 123.252 193.801H123.203C123.122 193.798 123.048 193.77 122.987 193.717C122.924 193.664 122.886 193.595 122.873 193.514L120.644 178.188C120.641 178.162 120.641 178.137 120.644 178.112C115.881 178.8 110.887 179.263 105.882 179.55V188.479C105.882 188.57 105.849 188.649 105.783 188.715C105.72 188.781 105.641 188.814 105.547 188.814C105.455 188.814 105.377 188.781 105.311 188.715C105.247 188.649 105.214 188.57 105.214 188.479V179.604C100.395 179.863 95.5711 179.97 90.9505 179.97H89.1663C89.1663 179.992 89.1663 180.015 89.1663 180.036L86.9373 195.364C86.9272 195.445 86.889 195.514 86.828 195.567C86.7645 195.623 86.6908 195.649 86.6095 195.649H86.5586C86.4671 195.636 86.396 195.59 86.34 195.517C86.2867 195.443 86.2663 195.359 86.279 195.27L88.508 179.97C82.2354 179.921 76.4049 179.693 71.5378 179.421C71.5454 179.454 71.5454 179.487 71.5378 179.52L69.8806 188.154C69.8654 188.232 69.8273 188.296 69.7663 188.347C69.7053 188.398 69.6341 188.425 69.5553 188.425H69.4867C69.3977 188.408 69.3266 188.359 69.2757 188.283C69.2224 188.207 69.2071 188.123 69.2249 188.032L70.882 179.393C64.1976 179.006 59.427 178.554 58.0266 178.412C57.9351 178.401 57.8614 178.361 57.8029 178.29C57.7445 178.218 57.7191 178.137 57.7292 178.046C57.7369 177.952 57.7801 177.878 57.8512 177.819C57.9249 177.761 58.0063 177.735 58.0978 177.746C62.7159 178.193 104.009 182.089 130.46 175.608C130.551 175.585 130.635 175.598 130.714 175.646C130.793 175.695 130.843 175.763 130.866 175.852C130.889 175.944 130.877 176.028 130.828 176.106C130.78 176.188 130.711 176.238 130.62 176.259L130.638 176.241Z" fill="#260B0B"/>
<path d="M53.2715 174.317C53.2715 174.317 58.037 176.622 62.5153 178.948C66.9961 181.273 71.4719 178.447 73.6297 176.953C75.785 175.456 76.944 173.964 78.2732 174.294C79.6025 174.624 83.3717 176.393 84.3044 177.992C85.1965 179.487 90.2137 176.932 82.5202 171.821C82.5202 171.821 87.2857 173.117 88.8005 174.256C90.0459 175.189 93.1568 173.631 89.9214 171.514C89.9214 171.514 92.2825 172.197 92.2825 170.764C92.2825 169.33 90.0535 166.407 88.2388 165.594C86.4267 164.781 80.0955 164.349 79.2848 164.537C78.474 164.722 80.0117 162.709 82.2483 162.709C84.4874 162.709 85.5066 163.352 87.4967 163.04C89.4842 162.727 89.0903 161.772 89.0903 161.772C89.0903 161.772 87.7229 158.907 81.7552 159.469C76.7355 159.942 74.1762 160.986 71.2609 163.487C68.3457 165.986 64.9196 169.152 63.2371 168.781C61.5571 168.41 57.826 164.481 57.826 164.481L53.2715 174.317Z" fill="#FC7980"/>
<path d="M65.2805 101.833C65.344 101.899 65.377 101.978 65.377 102.07C65.377 102.161 65.344 102.24 65.2805 102.306L53.0401 114.999C54.9743 114.587 59.6229 113.853 62.8227 115.352C62.9092 115.39 62.9676 115.454 62.9981 115.54C63.0286 115.629 63.0261 115.713 62.9854 115.797C62.9219 115.924 62.8227 115.99 62.6804 115.99C62.6321 115.99 62.5838 115.98 62.5381 115.96C58.713 114.173 52.3844 115.838 52.3208 115.855C52.2827 115.863 52.2446 115.863 52.2065 115.855L46.0456 122.24C45.9821 122.306 45.9033 122.339 45.8093 122.342C45.7178 122.342 45.639 122.311 45.5729 122.247C45.5043 122.181 45.4712 122.103 45.4712 122.011C45.4687 121.917 45.4992 121.838 45.5653 121.772L64.8077 101.838C64.8713 101.772 64.9501 101.739 65.0416 101.737C65.1356 101.737 65.2144 101.767 65.2805 101.833ZM33.2131 129.433C33.1902 129.387 33.1623 129.346 33.1241 129.311C31.805 127.397 30.1708 125.811 28.2214 124.548C28.1426 124.504 28.0587 124.494 27.9723 124.517C27.8859 124.54 27.8198 124.588 27.7715 124.667C27.7258 124.743 27.7131 124.825 27.7308 124.914C27.7512 125 27.7969 125.069 27.8732 125.119C29.5023 126.167 30.8951 127.465 32.049 129.021C29.8709 128.535 24.4446 127.633 20.8075 129.659C20.7262 129.702 20.6728 129.768 20.6474 129.854C20.622 129.943 20.6322 130.027 20.6779 130.106C20.7389 130.223 20.8355 130.281 20.9676 130.281C21.0261 130.281 21.082 130.266 21.1329 130.241C25.1003 128.009 31.6271 129.585 32.6743 129.857C33.6629 131.247 34.5093 132.719 35.2133 134.272C35.2718 134.409 35.3734 134.478 35.5209 134.478C35.5691 134.478 35.6124 134.467 35.6556 134.45C35.742 134.412 35.8004 134.351 35.836 134.264C35.8691 134.175 35.8665 134.089 35.8284 134.005C35.1091 132.394 34.2373 130.869 33.2131 129.433ZM132.796 156.813C132.89 156.813 132.968 156.783 133.034 156.717C133.101 156.651 133.131 156.572 133.131 156.478V111.611C133.131 111.517 133.098 111.438 133.032 111.374C132.968 111.308 132.89 111.275 132.796 111.275C132.704 111.275 132.625 111.308 132.559 111.374C132.496 111.438 132.463 111.517 132.463 111.611V156.478C132.463 156.569 132.496 156.648 132.559 156.714C132.625 156.78 132.704 156.813 132.796 156.813ZM108.129 65.1809C82.4591 68.119 70.4094 60.085 70.295 60.0011C70.2188 59.9554 70.14 59.9401 70.0536 59.9579C69.9672 59.9757 69.8986 60.0189 69.8477 60.0901C69.802 60.1638 69.7867 60.2451 69.802 60.3315C69.8172 60.4179 69.863 60.4866 69.9341 60.5374C70.0587 60.6213 73.0527 62.6444 79.272 64.3218C83.2826 65.4071 89.2834 66.4746 97.1903 66.4746C100.881 66.4695 104.558 66.2535 108.223 65.8265C108.315 65.8188 108.391 65.7782 108.447 65.7045C108.505 65.6308 108.528 65.5494 108.516 65.4579C108.503 65.3639 108.457 65.2927 108.381 65.2368C108.305 65.1834 108.221 65.1631 108.129 65.1809ZM108.462 63.0205C82.7896 65.9612 70.7449 57.9246 70.6255 57.8458C70.5492 57.7975 70.4704 57.7823 70.384 57.7975C70.2976 57.8153 70.229 57.8585 70.1781 57.9297C70.1324 58.0034 70.1171 58.0847 70.1324 58.1686C70.1502 58.255 70.1934 58.3237 70.262 58.377C70.3891 58.4609 73.3831 60.484 79.6227 62.1615C83.6359 63.2467 89.6392 64.3193 97.5461 64.3193C101.237 64.3117 104.914 64.0931 108.579 63.6661C108.671 63.6559 108.744 63.6153 108.803 63.5416C108.861 63.4704 108.884 63.3891 108.874 63.295C108.854 63.2035 108.803 63.1298 108.722 63.079C108.643 63.0282 108.556 63.0155 108.462 63.0383V63.0205ZM54.4431 158.933C54.3668 158.89 54.2855 158.877 54.2016 158.897C54.1152 158.915 54.0466 158.963 53.9983 159.037L43.0364 176.147C42.9932 176.223 42.983 176.305 43.0008 176.391C43.0211 176.478 43.0669 176.544 43.1406 176.595C43.2168 176.64 43.2982 176.653 43.382 176.633C43.4684 176.612 43.5371 176.567 43.5854 176.493L54.532 159.385C54.5778 159.309 54.593 159.228 54.5752 159.141C54.56 159.055 54.5142 158.986 54.4431 158.933ZM90.0357 171.214C89.108 170.741 80.9342 166.621 79.5084 166.751C78.0825 166.881 71.9573 169.526 71.6929 169.638C71.6091 169.676 71.5481 169.74 71.515 169.826C71.482 169.913 71.482 169.999 71.5201 170.085C71.5557 170.172 71.6192 170.233 71.7056 170.266C71.7946 170.302 71.881 170.299 71.9649 170.258C73.7186 169.506 78.4968 167.518 79.5744 167.419H79.6202C80.6749 167.419 86.3554 170.098 89.7383 171.832C89.7866 171.854 89.8349 171.865 89.8883 171.867C89.967 171.867 90.0357 171.844 90.0967 171.796C90.1577 171.748 90.1983 171.684 90.2161 171.61C90.2339 171.534 90.2263 171.46 90.1932 171.392C90.1602 171.321 90.1094 171.267 90.0407 171.232L90.0357 171.214ZM82.6066 171.514L78.6823 169.951L70.9813 172.358C70.905 172.383 70.844 172.431 70.8034 172.503C70.7602 172.571 70.7449 172.647 70.7576 172.726C70.7703 172.808 70.8085 172.874 70.8694 172.927C70.9304 172.98 71.0016 173.008 71.0829 173.011H71.1821L78.6569 170.675L82.36 172.147C82.449 172.192 82.5379 172.195 82.6294 172.159C82.7209 172.126 82.7845 172.063 82.8201 171.971C82.8556 171.88 82.8531 171.791 82.8099 171.702C82.7667 171.613 82.6981 171.555 82.6066 171.527V171.514ZM134.905 168.388C134.966 168.317 134.994 168.235 134.986 168.141C134.979 168.047 134.941 167.968 134.87 167.907C134.798 167.846 134.714 167.818 134.62 167.826C134.526 167.831 134.45 167.872 134.387 167.943C133.21 169.361 130.312 170.645 130.282 170.657C130.196 170.693 130.135 170.756 130.101 170.843C130.068 170.932 130.074 171.018 130.114 171.102C130.17 171.237 130.272 171.303 130.417 171.3C130.462 171.3 130.508 171.29 130.549 171.272C130.694 171.247 133.644 169.943 134.923 168.405L134.905 168.388ZM135.236 171.514C135.162 171.455 135.08 171.43 134.989 171.44C134.897 171.448 134.821 171.488 134.763 171.56C133.586 172.973 130.683 174.238 130.656 174.269C130.584 174.299 130.528 174.35 130.49 174.421C130.455 174.493 130.445 174.566 130.46 174.645C130.478 174.724 130.516 174.787 130.577 174.838C130.64 174.887 130.711 174.912 130.79 174.912C130.836 174.912 130.882 174.902 130.925 174.884C131.049 174.826 133.995 173.524 135.274 171.987C135.327 171.921 135.35 171.847 135.347 171.763C135.342 171.679 135.312 171.605 135.253 171.544L135.236 171.514Z" fill="#260B0B"/>
<path d="M81.5082 125.208C81.3862 125.145 81.2591 125.109 81.1219 125.097C80.9872 125.086 80.8525 125.102 80.7228 125.142C80.5932 125.186 80.4763 125.249 80.3721 125.338C80.2679 125.427 80.184 125.534 80.123 125.656L79.6401 126.548C79.5537 126.716 79.5156 126.891 79.5257 127.079C79.5359 127.267 79.5944 127.437 79.6986 127.592C78.2143 129.865 77.1011 130.32 75.8175 130.271C74.6865 130.2 73.6724 129.824 72.7676 129.143C76.9536 123.879 78.1482 111.906 78.4506 107.488C78.7582 107.366 78.931 107.14 78.9691 106.81C79.8231 98.7758 77.8889 91.5475 73.7893 87.4657C71.8044 85.4883 69.5042 84.5327 67.3159 84.7868H67.2371C66.7059 79.2843 66.8177 74.3892 67.8344 69.8448C68.8942 65.1377 70.8945 60.8704 73.8326 57.0453C74.8263 55.7058 77.279 53.1617 78.5904 51.7791V49.3493C77.8 50.0152 76.6004 51.2733 76.58 51.2962C74.0232 53.8606 71.8221 56.7047 69.9769 59.8232C68.4799 62.3725 67.3438 65.0767 66.5687 67.9309C66.256 69.0696 66.007 70.2235 65.8138 71.3901C65.1504 75.4083 65.0666 79.8002 65.6003 85.1859C64.4998 85.5366 63.4882 86.0627 62.5707 86.7668C61.6532 87.4708 60.878 88.307 60.2502 89.2804C57.4748 93.5833 57.4977 100.222 60.3138 109.008C60.3595 109.153 60.4409 109.278 60.5578 109.377C60.6721 109.478 60.8043 109.542 60.9568 109.57C62.159 113.227 66.3043 124.825 71.7154 129.262C71.0647 129.992 70.2743 130.505 69.3441 130.803C68.1089 131.163 66.9143 131.003 64.909 129.184C64.97 129.006 64.9827 128.825 64.9446 128.64C64.909 128.457 64.8251 128.294 64.7006 128.157L64.0042 127.402C63.9127 127.3 63.8034 127.221 63.6814 127.163C63.5569 127.107 63.4272 127.074 63.2925 127.069C63.1553 127.064 63.0231 127.084 62.896 127.13C62.7664 127.178 62.652 127.247 62.5529 127.341C62.4538 127.432 62.375 127.542 62.3166 127.664C62.2606 127.788 62.2276 127.918 62.2225 128.055C62.2174 128.19 62.2378 128.322 62.2835 128.452C62.3318 128.579 62.4004 128.693 62.4945 128.795L63.1832 129.55C63.3484 129.725 63.5467 129.832 63.7856 129.867C64.0245 129.905 64.2456 129.862 64.454 129.74C66.345 131.451 67.7835 131.972 69.4254 131.527L69.5449 131.491C70.6225 131.148 71.5349 130.553 72.2822 129.705C73.3141 130.498 74.4781 130.935 75.7769 131.013C76.1861 131.029 76.5902 130.986 76.9892 130.884C78.1711 130.571 79.1725 129.677 80.2552 128.027C80.489 128.091 80.7152 128.075 80.9363 127.979C81.1574 127.885 81.3252 127.73 81.437 127.516L81.9148 126.624C81.9835 126.505 82.0267 126.375 82.0419 126.238C82.0597 126.101 82.0495 125.963 82.0089 125.831C81.9708 125.696 81.9098 125.577 81.8233 125.468C81.7344 125.361 81.6302 125.275 81.5082 125.208ZM61.6812 109.377C61.8108 109.268 61.8972 109.133 61.9429 108.97C61.9887 108.808 61.9887 108.645 61.9353 108.485C59.3149 100.319 59.2311 93.9925 61.6862 90.1801C62.1742 89.4176 62.769 88.7543 63.473 88.19C64.1796 87.6233 64.9573 87.1861 65.8062 86.876L67.415 86.4668H67.504C69.1763 86.2788 70.9885 87.0616 72.6024 88.673C75.4922 91.5475 78.2422 97.7795 77.2968 106.645C77.279 106.815 77.312 106.978 77.3933 107.128C77.4747 107.277 77.5916 107.392 77.7415 107.471C77.434 111.687 76.2318 123.704 72.2161 128.724C67.0033 124.482 62.8452 112.833 61.6812 109.377ZM127.397 113.448C127.328 113.588 127.249 113.723 127.166 113.853C127.079 113.982 126.985 114.107 126.883 114.226C126.782 114.343 126.672 114.455 126.558 114.559C126.444 114.666 126.322 114.762 126.195 114.851C126.068 114.94 125.935 115.024 125.798 115.095C125.661 115.169 125.519 115.235 125.374 115.291C125.229 115.347 125.079 115.393 124.929 115.431C124.779 115.469 124.624 115.497 124.471 115.515C124.316 115.535 124.161 115.543 124.006 115.543C123.849 115.543 123.694 115.533 123.541 115.512C123.386 115.492 123.234 115.464 123.084 115.426C122.931 115.388 122.784 115.339 122.639 115.281C122.494 115.225 122.354 115.159 122.217 115.085C122.08 115.012 121.948 114.928 121.821 114.839C121.693 114.747 121.574 114.651 121.46 114.544C121.345 114.44 121.236 114.328 121.137 114.208C121.035 114.089 120.941 113.964 120.857 113.835C120.771 113.703 120.695 113.568 120.626 113.428C120.557 113.288 120.496 113.146 120.446 112.999C120.395 112.851 120.354 112.701 120.321 112.549C120.288 112.396 120.265 112.241 120.252 112.086C120.237 111.931 120.235 111.776 120.24 111.621C120.245 111.466 120.26 111.311 120.285 111.156C120.311 111.001 120.344 110.851 120.387 110.701C120.43 110.551 120.484 110.404 120.545 110.261C120.606 110.119 120.677 109.979 120.756 109.844C120.834 109.71 120.921 109.58 121.015 109.458C121.109 109.334 121.211 109.217 121.32 109.105C121.429 108.993 121.543 108.889 121.665 108.792C121.787 108.696 121.915 108.607 122.049 108.525C122.181 108.444 122.319 108.37 122.461 108.307C122.603 108.243 122.748 108.187 122.896 108.142C122.451 103.142 121.434 94.2568 118.71 84.98C116.445 77.251 113.482 70.9249 109.855 66.0502C108.696 64.4871 107.417 63.0282 106.019 61.6761C104.512 60.2197 102.865 58.9464 101.081 57.8484C100.408 57.4392 99.9348 57.1927 99.2638 56.8546L98.3717 54.5545C99.6018 55.0933 100.791 55.7109 101.938 56.4124C110.144 61.4067 116.336 70.8589 120.346 84.5073C123.114 93.9493 124.131 102.962 124.593 108.012C124.891 108.055 125.178 108.131 125.455 108.243C125.732 108.355 125.991 108.497 126.235 108.673C126.479 108.846 126.7 109.046 126.896 109.27C127.092 109.496 127.26 109.743 127.397 110.01C127.537 110.274 127.641 110.554 127.712 110.843C127.786 111.133 127.821 111.428 127.824 111.728C127.826 112.028 127.793 112.323 127.725 112.615C127.656 112.907 127.554 113.187 127.42 113.454L127.397 113.448Z" fill="#18253B"/>
<path d="M116.232 112.548C114.628 114.038 106.47 114.691 101.689 114.256C101.621 107.61 101.242 101.851 101.201 95.418C102.597 95.2121 103.918 95.0241 105.151 94.8589C105.171 94.4497 105.217 94.0405 105.286 93.6363C105.301 93.5016 105.341 93.3771 105.41 93.2602C105.601 92.9933 106.002 93.0009 106.333 93.034C107.72 93.1738 109.106 93.1738 110.491 93.034C110.603 93.4152 110.686 93.8015 110.742 94.193C111.998 94.0328 113.261 93.9439 114.529 93.9261C116.255 94.043 116.232 112.548 116.232 112.548Z" fill="#18253B"/>
<path d="M126.302 111.918C126.281 112.22 126.202 112.508 126.065 112.78C125.931 113.051 125.748 113.288 125.519 113.486C125.29 113.684 125.031 113.832 124.744 113.928C124.456 114.025 124.162 114.061 123.859 114.04C123.557 114.02 123.269 113.941 122.997 113.804C122.726 113.669 122.492 113.486 122.293 113.255C122.095 113.026 121.948 112.767 121.851 112.48C121.755 112.19 121.719 111.895 121.739 111.593C121.762 111.29 121.841 111.003 121.976 110.731C122.11 110.459 122.293 110.223 122.522 110.024C122.754 109.826 123.01 109.679 123.3 109.582C123.587 109.486 123.882 109.45 124.184 109.47C124.487 109.493 124.774 109.572 125.043 109.709C125.315 109.844 125.549 110.027 125.748 110.256C125.946 110.487 126.093 110.744 126.19 111.033C126.284 111.321 126.322 111.615 126.302 111.918Z" fill="#3D9ABA"/>
<path d="M110.742 97.4895C110.742 97.4895 111.141 100.519 110.955 101.693C110.767 102.868 106.386 102.359 106.386 102.359L105.847 97.7691L110.742 97.4895ZM113.492 104.387C113.563 104.372 113.622 104.337 113.662 104.276C113.705 104.215 113.718 104.146 113.705 104.075C113.693 104.001 113.657 103.945 113.596 103.902C113.535 103.861 113.469 103.846 113.398 103.859C113.332 103.859 106.563 105.038 103.872 104.69C103.798 104.68 103.732 104.697 103.674 104.741C103.615 104.786 103.582 104.845 103.572 104.919C103.564 104.992 103.582 105.056 103.628 105.114C103.674 105.173 103.732 105.208 103.806 105.216C104.248 105.272 104.695 105.295 105.143 105.287C108.266 105.287 113.245 104.426 113.492 104.387ZM113.728 106.37C113.799 106.357 113.858 106.322 113.901 106.261C113.944 106.2 113.96 106.133 113.947 106.06C113.932 105.989 113.896 105.93 113.835 105.887C113.774 105.844 113.708 105.828 113.634 105.841C113.566 105.841 106.805 107.026 104.113 106.672C104.04 106.662 103.974 106.68 103.915 106.723C103.854 106.769 103.821 106.827 103.811 106.901C103.801 106.975 103.819 107.041 103.864 107.102C103.908 107.16 103.969 107.193 104.042 107.204C104.484 107.257 104.932 107.28 105.379 107.275C108.503 107.275 113.487 106.413 113.728 106.37ZM113.688 108.479C113.761 108.469 113.817 108.434 113.86 108.373C113.904 108.312 113.919 108.246 113.906 108.172C113.891 108.101 113.855 108.042 113.794 107.999C113.733 107.956 113.667 107.941 113.594 107.953C113.527 107.953 106.764 109.138 104.068 108.784C103.996 108.777 103.933 108.797 103.874 108.843C103.819 108.886 103.786 108.944 103.778 109.018C103.768 109.089 103.786 109.153 103.829 109.211C103.872 109.27 103.93 109.303 104.002 109.316C104.446 109.366 104.891 109.392 105.338 109.387C108.462 109.377 113.446 108.525 113.688 108.484V108.479ZM113.924 110.467C113.993 110.449 114.043 110.414 114.084 110.355C114.122 110.294 114.135 110.231 114.122 110.162C114.112 110.093 114.079 110.037 114.023 109.994C113.967 109.951 113.904 109.933 113.835 109.941C113.766 109.941 107.001 111.12 104.309 110.772C104.235 110.759 104.169 110.774 104.111 110.82C104.052 110.866 104.017 110.924 104.009 110.998C103.999 111.072 104.017 111.138 104.06 111.196C104.106 111.257 104.164 111.29 104.238 111.303C104.683 111.351 105.127 111.374 105.575 111.369C108.704 111.369 113.683 110.508 113.924 110.467Z" fill="#3D9ABA"/>
</svg>
