<svg width="51" height="51" viewBox="0 0 51 51" fill="none" xmlns="http://www.w3.org/2000/svg">
<circle cx="25.5" cy="25.5" r="25.5" fill="#a855f7"/>
<path d="M37.2774 26.1045L37.2767 21.8796H37.2774L24.6079 11L12.0875 21.8609L12 26.1037L13.711 24.5864V39H35.6948V24.8404L37.2774 26.1045Z" stroke="#FCFCFC" stroke-linecap="round" stroke-linejoin="round"/>
<path d="M33.9213 27.7244C33.8255 27.7244 33.7379 27.7739 33.6922 27.8542L33.5349 28.1283C33.4795 28.0723 33.3964 27.9819 33.2377 27.8306C33.1193 27.7172 32.9232 27.7394 32.8348 27.8758L32.3294 28.6484C32.3121 28.675 32.2844 28.6915 32.2522 28.6943C32.22 28.6972 32.1893 28.6857 32.1654 28.6599C32.1556 28.6491 32.1481 28.6348 32.1437 28.6183C32.1399 28.6039 31.4001 25.8333 31.3956 25.8196C31.302 25.5937 30.9725 25.5937 30.8789 25.8196L30.1279 27.634C30.0478 27.7509 30.0163 27.7158 29.3282 27.7158C29.2196 27.7158 29.1687 27.8514 29.0968 28.0752C29.09 28.0501 28.81 26.9689 28.801 26.9446C28.7538 26.8534 28.6131 26.857 28.5756 26.9661L28.184 28.1032C27.883 27.8126 27.8216 27.7158 27.6321 27.7158H27.5498C27.4412 27.7158 27.3498 27.6333 27.3416 27.5292L26.9432 22.5224C26.938 22.46 26.8848 22.4141 26.8212 22.4141C26.7568 22.4148 26.7059 22.4621 26.7014 22.5238L26.2588 29.5732L25.9526 28.0027C25.9204 27.837 25.7714 27.7172 25.5969 27.7158C25.5168 27.7151 25.4434 27.6734 25.4075 27.6039L25.045 26.9037C25.0038 26.824 24.8863 26.8348 24.8586 26.9166L24.4497 28.1032L24.154 27.8169C24.0776 27.7445 23.96 27.7251 23.8544 27.7782C23.7736 27.8191 23.7945 27.809 23.2554 28.6333C23.2202 28.6879 23.1371 28.7044 23.0869 28.6513C23.06 28.6226 22.3314 25.8534 22.3172 25.811C22.2236 25.5858 21.8941 25.5858 21.8005 25.811L21.0494 27.6254C21.0105 27.6821 20.9454 27.7158 20.875 27.7158C19.9487 27.7158 20.3089 27.634 19.8237 28.1032L19.4298 26.9603C19.4111 26.9058 19.3542 26.8714 19.2928 26.8814C19.2134 26.895 19.2269 26.9051 18.8659 27.6039C18.8315 27.6706 18.7633 27.7129 18.687 27.7151C18.5088 27.7215 18.3538 27.8327 18.3208 28.002L18.0138 29.5732L17.5713 22.5238C17.5675 22.4621 17.5158 22.4148 17.4515 22.4141C17.3848 22.4134 17.3346 22.46 17.3294 22.5224L16.9318 27.5292C16.9235 27.6333 16.8314 27.7158 16.7236 27.7158C16.6383 27.7158 16.5042 27.7021 16.3829 27.8191L16.0894 28.1032L15.6805 26.9166C15.6671 26.8785 15.6326 26.8527 15.5914 26.8499C15.551 26.8463 15.5121 26.8678 15.4933 26.9037L15.1197 27.6268C15.0912 27.6813 15.0343 27.7158 14.9714 27.7158H13.7217V27.8657H14.9714C15.0927 27.8657 15.2043 27.7997 15.259 27.6943L15.5742 27.0837C15.9988 28.317 15.9666 28.2782 16.0422 28.2954C16.1156 28.3119 16.1148 28.2911 16.493 27.9253C16.5641 27.8564 16.639 27.8657 16.7236 27.8657C16.9131 27.8657 17.0726 27.7229 17.0868 27.5407L17.447 23.0174L17.885 30.0029C17.8925 30.117 18.0632 30.1299 18.0864 30.0151L18.4736 28.0307C18.4923 27.9353 18.5791 27.8657 18.6795 27.8657C18.8173 27.8671 18.9431 27.7904 19.0045 27.6713L19.3085 27.0837C19.733 28.317 19.7008 28.2782 19.7765 28.2954C19.8499 28.3127 19.8491 28.2919 20.2273 27.9253C20.3081 27.8471 20.1756 27.8657 20.875 27.8657C21.0015 27.8657 21.1176 27.804 21.185 27.7C22.0027 25.7278 21.9428 25.7924 22.0588 25.7924C22.109 25.7924 22.1509 25.8189 22.1704 25.8627C22.9731 28.8665 22.9125 28.6886 22.9739 28.7553C23.0832 28.8701 23.2883 28.8651 23.3909 28.7072C23.9316 27.8808 23.8956 27.9073 23.9668 27.8994C23.984 27.8973 24.0169 27.898 24.0416 27.921C24.425 28.2919 24.4235 28.3127 24.4962 28.2954C24.5725 28.2782 24.5403 28.3163 24.9649 27.0837L25.2682 27.6713C25.3303 27.7918 25.4561 27.8664 25.5961 27.8657C25.6972 27.8657 25.7819 27.9403 25.8006 28.0372L26.187 30.0151C26.1959 30.0624 26.2371 30.0954 26.2865 30.0954C26.2888 30.0954 26.291 30.0947 26.2933 30.0947C26.3449 30.0919 26.3846 30.0531 26.3876 30.0029L26.8264 23.0174L27.1866 27.5407C27.2008 27.7229 27.3603 27.8657 27.5498 27.8657C27.6314 27.8657 27.7085 27.8557 27.7796 27.9253C28.1593 28.2919 28.1578 28.3127 28.2304 28.2954C28.3068 28.2782 28.2761 28.3119 28.6872 27.1174C28.6939 27.1426 28.9935 28.2998 29.0024 28.3234C29.0204 28.3586 29.0541 28.3779 29.09 28.3744C29.2181 28.365 29.2323 28.0652 29.3342 27.8844C29.3521 27.8521 29.2069 27.8657 29.9796 27.8736L29.9774 27.8729C30.0949 27.8657 30.2005 27.8055 30.2634 27.7079L31.0235 25.8756C31.0646 25.7766 31.2062 25.7759 31.2496 25.8713L31.9931 28.6563C32.0036 28.6958 32.0231 28.7316 32.0523 28.7632C32.1017 28.8163 32.1699 28.845 32.2425 28.845C32.2507 28.845 32.2582 28.845 32.2657 28.8443C32.3466 28.8371 32.4177 28.7955 32.4611 28.7288C33.0108 27.888 32.9741 27.9167 33.043 27.9095C33.0999 27.903 33.1126 27.9116 33.3732 28.1821C33.487 28.299 33.5394 28.3485 33.636 28.2624L33.8285 27.9274C33.8464 27.8944 33.8824 27.8743 33.9213 27.8743H35.5305V27.7244H33.9213Z" stroke="#FCFCFC" stroke-width="0.5"/>
</svg>
